<?xml version="1.0" standalone="no"?>
<!DOCTYPE svg PUBLIC "-//W3C//DTD SVG 1.1//EN" "http://www.w3.org/Graphics/SVG/1.1/DTD/svg11.dtd" >
<svg xmlns="http://www.w3.org/2000/svg" xmlns:xlink="http://www.w3.org/1999/xlink" version="1.1">
<metadata></metadata>
<defs>
<font id="amplesoftmedium" horiz-adv-x="1302" >
<font-face units-per-em="2048" ascent="1536" descent="-512" />
<missing-glyph horiz-adv-x="503" />
<glyph horiz-adv-x="0" />
<glyph horiz-adv-x="682" />
<glyph unicode=" "  horiz-adv-x="503" />
<glyph unicode="&#x09;" horiz-adv-x="503" />
<glyph unicode="&#xa0;" horiz-adv-x="503" />
<glyph unicode="!" horiz-adv-x="565" d="M150 115q0 55 39 94t94 39t94 -39t39 -94q0 -57 -38.5 -96t-94.5 -39t-94.5 39t-38.5 96zM182 883v356q0 55 18 73.5t74 18.5h21q55 0 73.5 -18.5t18.5 -73.5v-356q0 -258 -27 -445q-4 -33 -18.5 -45t-48.5 -12h-17q-34 0 -47.5 11.5t-19.5 45.5q-27 166 -27 445z" />
<glyph unicode="&#x22;" horiz-adv-x="645" d="M80 1130v273q0 46 16 62t62 16h20q46 0 62 -16t16 -62v-273q0 -46 -16 -61.5t-62 -15.5h-20q-46 0 -62 15.5t-16 61.5zM389 1130v273q0 46 16 62t62 16h20q46 0 62 -16t16 -62v-273q0 -46 -16 -61.5t-62 -15.5h-20q-46 0 -62 15.5t-16 61.5z" />
<glyph unicode="#" horiz-adv-x="1380" d="M90 375v22q0 40 14 54t54 14h161l101 401h-172q-40 0 -54 14t-14 54v22q0 40 14 54t54 14h211l57 231q10 45 30 60.5t66 15.5h23q46 0 57.5 -15t1.5 -61l-59 -231h287l59 231q10 45 30 60.5t66 15.5h21q46 0 57.5 -15t1.5 -61l-59 -231h125q40 0 53.5 -14t13.5 -54v-22 q0 -40 -13.5 -54t-53.5 -14h-162l-100 -401h172q40 0 53.5 -14t13.5 -54v-22q0 -40 -13.5 -54t-53.5 -14h-213l-58 -231q-10 -45 -30 -60.5t-66 -15.5h-21q-46 0 -57.5 15t-1.5 61l57 231h-286l-58 -231q-10 -45 -30 -60.5t-66 -15.5h-22q-46 0 -58 15t-2 61l58 231h-121 q-40 0 -54 14t-14 54zM496 465h286l101 401h-287z" />
<glyph unicode="$" horiz-adv-x="1030" d="M84 145v33q0 54 19 70.5t67 -0.5q46 -14 71 -21t92 -16.5t142 -9.5q131 0 189.5 30t58.5 101q0 56 -36 94t-132 100l-256 164q-96 63 -147.5 140t-51.5 190q0 266 318 303v104q0 46 16 62t62 16h24q46 0 62 -16t16 -62v-98q92 -4 201 -39q56 -20 71 -36t15 -66v-35 q0 -55 -16.5 -70t-67.5 2q-112 41 -266 41q-114 0 -162.5 -26t-48.5 -88q0 -49 26.5 -81t93.5 -75l265 -172q58 -38 96 -69t73 -73.5t51.5 -94.5t16.5 -117q0 -284 -348 -324v-102q0 -46 -16 -62t-62 -16h-24q-46 0 -62 16t-16 62v94q-128 6 -248 43q-54 18 -70 36t-16 68z " />
<glyph unicode="%" horiz-adv-x="1695" d="M86 1014q0 338 324 338q323 0 323 -338q0 -173 -81 -256.5t-242 -83.5q-324 0 -324 340zM266 1014q0 -94 32.5 -134t111.5 -40t111 39.5t32 134.5q0 93 -32 133.5t-111 40.5t-111.5 -40.5t-32.5 -133.5zM422 16.5q-10 16.5 16 67.5l604 1163q26 51 53.5 67.5t84.5 16.5 h30q57 0 67.5 -16.5t-15.5 -67.5l-609 -1163q-26 -51 -53 -67.5t-84 -16.5h-27q-57 0 -67 16.5zM961 317q0 340 323 340q326 0 326 -340q0 -172 -82 -254.5t-244 -82.5q-323 0 -323 337zM1141 317q0 -95 32 -134.5t111 -39.5t112.5 40t33.5 134t-33.5 134.5t-112.5 40.5 t-111 -40t-32 -135z" />
<glyph unicode="&#x26;" horiz-adv-x="1271" d="M109 371q0 130 52.5 206t155.5 113q-92 38 -134 105.5t-42 175.5q0 379 451 379q38 0 100 -4q53 -5 70.5 -24t17.5 -71v-32q0 -52 -17 -68t-67 -8q-58 8 -110 8q-124 0 -178 -46t-54 -147q0 -95 49 -140.5t179 -45.5h262v88q0 58 19 77t77 19h25q59 0 77.5 -19t18.5 -77 v-88h100q46 0 61 -15t15 -61v-24q0 -46 -15 -61t-61 -15h-100v-197q0 -117 -36.5 -201.5t-103.5 -131.5t-147.5 -68t-181.5 -21q-483 0 -483 394zM326 383q0 -117 65.5 -161t192.5 -44q59 0 101 8.5t80.5 31.5t58.5 70.5t20 119.5v188h-258q-134 0 -197 -48.5t-63 -164.5z " />
<glyph unicode="'" horiz-adv-x="335" d="M80 1130v273q0 46 16 62t62 16h20q46 0 62 -16t16 -62v-273q0 -46 -16 -61.5t-62 -15.5h-20q-46 0 -62 15.5t-16 61.5z" />
<glyph unicode="(" horiz-adv-x="737" d="M104 512q0 302 90.5 535.5t270.5 418.5q33 32 55 31.5t58 -33.5l18 -18q35 -32 36.5 -53.5t-30.5 -53.5q-301 -309 -301 -827q0 -516 305 -829q31 -31 29 -52t-37 -53l-20 -18q-35 -32 -59 -32t-54 30q-178 184 -269.5 417.5t-91.5 536.5z" />
<glyph unicode=")" horiz-adv-x="737" d="M102 -369q-2 21 29 52q305 313 305 829q0 518 -301 827q-32 32 -30.5 53.5t36.5 53.5l19 18q36 33 57.5 33.5t54.5 -31.5q180 -185 270.5 -418.5t90.5 -535.5q0 -303 -91.5 -536.5t-269.5 -417.5q-30 -30 -53.5 -30t-58.5 32l-21 18q-35 32 -37 53z" />
<glyph unicode="*" horiz-adv-x="954" d="M95 1177q-10 18 3 58l8 25q14 40 32.5 49t58.5 -6l209 -80l-11 223q-1 43 13 57.5t57 14.5h24q43 0 57 -14.5t13 -57.5l-10 -225l209 79q40 16 60 7t30 -50l6 -22q11 -41 2 -58.5t-49 -29.5l-213 -64l135 -172q28 -34 25.5 -54.5t-37.5 -43.5l-19 -12 q-35 -24 -54.5 -21.5t-43.5 37.5l-125 184l-123 -182q-23 -35 -42 -37.5t-54 21.5l-18 12q-36 25 -39 43.5t24 52.5l137 174l-213 62q-42 12 -52 30z" />
<glyph unicode="+" horiz-adv-x="1146" d="M104 645v23q0 46 16 61.5t62 15.5h295v289q0 51 16.5 67.5t67.5 16.5h25q51 0 67.5 -16.5t16.5 -67.5v-289h295q46 0 61.5 -15.5t15.5 -61.5v-23q0 -46 -15.5 -62t-61.5 -16h-295v-286q0 -51 -16.5 -67.5t-67.5 -16.5h-25q-51 0 -67.5 16.5t-16.5 67.5v286h-295 q-46 0 -62 16t-16 62z" />
<glyph unicode="," horiz-adv-x="438" d="M84 -242q0 82 6 164q20 314 143 314q43 0 68 -29.5t25 -79.5q0 -61 -56 -183t-106 -204q-20 -35 -47 -27l-6 2q-27 8 -27 43z" />
<glyph unicode="-" horiz-adv-x="819" d="M53 645v23q0 46 16 61.5t62 15.5h557q46 0 62 -15.5t16 -61.5v-23q0 -46 -16 -62t-62 -16h-557q-46 0 -62 16t-16 62z" />
<glyph unicode="." horiz-adv-x="454" d="M94 113q0 55 39 94t94 39t94 -39t39 -94t-39 -94t-94 -39t-94 39t-39 94z" />
<glyph unicode="/" horiz-adv-x="681" d="M11 -45q-12 16 3 63l455 1420q15 47 37.5 63.5t73.5 16.5h28q51 0 62 -16.5t-4 -63.5l-457 -1420q-15 -47 -37.5 -63t-73.5 -16h-24q-51 0 -63 16z" />
<glyph unicode="0" horiz-adv-x="1193" d="M102 502v321q0 126 24.5 219.5t80.5 164.5t153 107t236 36q140 0 238 -36t153.5 -107t80 -164t24.5 -220v-321q0 -127 -24.5 -220t-80 -164t-153.5 -107t-238 -36q-139 0 -236 36t-153 107t-80.5 164.5t-24.5 219.5zM319 502q0 -172 61.5 -248t215.5 -76q158 0 217 75 t59 249v321q0 173 -59.5 248.5t-216.5 75.5q-154 0 -215.5 -76.5t-61.5 -247.5v-321z" />
<glyph unicode="1" horiz-adv-x="757" d="M20.5 1043q-1.5 25 32.5 65l99 117q55 64 111.5 94.5t125.5 30.5q112 0 168.5 -64t56.5 -209v-983q0 -57 -18.5 -75.5t-75.5 -18.5h-26q-57 0 -76 18.5t-19 75.5v912q0 95 -6.5 119t-34.5 24q-14 0 -32 -14t-50 -54l-83 -108q-32 -40 -55 -41.5t-60 33.5l-19 18 q-37 35 -38.5 60z" />
<glyph unicode="2" horiz-adv-x="1058" d="M90 213q0 87 35.5 154t124.5 135l305 239q113 87 149.5 136t36.5 112q0 84 -59.5 122t-192.5 38q-127 0 -260 -35q-52 -13 -70 3t-18 71v35q0 52 16.5 69t71.5 31q105 27 254 27q230 0 352.5 -82.5t122.5 -270.5q0 -113 -52.5 -195t-184.5 -186l-346 -272 q-46 -36 -61 -54.5t-15 -39.5q0 -26 19.5 -36.5t80.5 -10.5h467q56 0 74 -18.5t18 -73.5v-19q0 -56 -18 -74t-74 -18h-481q-160 0 -227.5 50.5t-67.5 162.5z" />
<glyph unicode="3" horiz-adv-x="1040" d="M92 113v32q0 54 19.5 70.5t68.5 3.5q151 -39 281 -39q79 0 131 13t81 40.5t40.5 64t11.5 89.5q0 100 -59.5 153.5t-210.5 53.5h-15q-46 0 -62 16t-16 62v24q0 46 16 62t62 16h15q145 0 197.5 44t52.5 140q0 104 -53 147.5t-191 43.5q-105 0 -256 -33q-52 -12 -70 4.5 t-18 71.5v33q0 53 17.5 72t72.5 30q121 23 254 23q461 0 461 -379q0 -110 -42.5 -176t-129.5 -109q91 -33 141.5 -108.5t50.5 -190.5q0 -410 -481 -410q-160 0 -281 31q-53 14 -70.5 33.5t-17.5 71.5z" />
<glyph unicode="4" horiz-adv-x="1067" d="M106 363q-65 89 0 286l197 588q19 57 44.5 75.5t84.5 18.5h31q59 0 72.5 -18.5t-5.5 -73.5l-221 -657q-19 -57 0 -82t80 -25h340v434q0 57 18.5 76t75.5 19h27q57 0 75.5 -19t18.5 -76v-815q0 -57 -18.5 -75.5t-75.5 -18.5h-27q-57 0 -75.5 18.5t-18.5 75.5v180h-352 q-206 0 -271 89z" />
<glyph unicode="5" horiz-adv-x="1114" d="M143 115v30q0 55 19 72t69 0q118 -37 283 -37q153 0 218 50t65 157q0 129 -70.5 173t-249.5 44h-88q-122 0 -177.5 56t-55.5 178v260q0 123 55 178t178 55h455q56 0 74 -18.5t18 -73.5v-18q0 -56 -18.5 -74.5t-73.5 -18.5h-393q-42 0 -61 -18t-19 -59v-164q0 -80 80 -80 h73q254 0 371 -103t117 -317q0 -211 -124.5 -309t-369.5 -98q-173 0 -287 30q-54 14 -71 33t-17 72z" />
<glyph unicode="6" horiz-adv-x="1122" d="M102 500v331q0 274 123 396.5t408 122.5q140 0 250 -33q41 -11 64.5 -34.5t23.5 -72.5v-28q0 -51 -24.5 -67.5t-63.5 -4.5q-132 39 -256 39q-180 0 -244 -63.5t-64 -245.5v-62q119 43 277 43q225 0 333.5 -91t108.5 -308q0 -231 -115.5 -336.5t-347.5 -105.5 q-249 0 -361 130.5t-112 389.5zM319 518q0 -69 5 -116t21.5 -92.5t45.5 -71.5t78.5 -42t120.5 -16q132 0 182.5 52t50.5 178q0 128 -56 175.5t-194 47.5q-151 0 -254 -47v-68z" />
<glyph unicode="7" horiz-adv-x="1017" d="M70 1221v18q0 55 18 73.5t74 18.5h475q151 0 222 -55t71 -174q0 -72 -23 -142.5t-71 -166.5l-353 -699q-28 -57 -58 -75.5t-95 -18.5h-33q-64 0 -75 18.5t18 75.5l450 881q29 60 29 94q0 30 -23.5 44.5t-77.5 14.5h-456q-55 0 -73.5 18.5t-18.5 74.5z" />
<glyph unicode="8" horiz-adv-x="1155" d="M98 373q0 125 47 197.5t152 117.5q-92 47 -129 112t-37 175q0 179 110 277t337 98q230 0 338 -93t108 -282q0 -110 -36.5 -175t-127.5 -112q104 -44 149.5 -117.5t45.5 -197.5q0 -185 -116 -290.5t-364 -105.5t-362.5 105.5t-114.5 290.5zM315 387q0 -110 60 -159.5 t203 -49.5t201.5 49.5t58.5 159.5q0 106 -61 156.5t-199 50.5q-139 0 -201 -50.5t-62 -156.5zM344 958q0 -105 53 -147.5t181 -42.5q127 0 180 42.5t53 147.5q0 100 -50.5 146.5t-185.5 46.5q-132 0 -181.5 -46t-49.5 -147z" />
<glyph unicode="9" horiz-adv-x="1122" d="M84 907q0 232 115 337.5t348 105.5q249 0 361 -131t112 -390v-333q0 -274 -123 -396.5t-408 -122.5q-138 0 -264 37q-54 15 -71 34.5t-17 72.5v29q0 55 19.5 71t68.5 0q38 -13 116 -27t155 -14q180 0 243.5 62.5t63.5 244.5v64q-107 -41 -273 -41q-228 0 -337 90 t-109 307zM299 920q0 -129 56.5 -176.5t199.5 -47.5q145 0 248 47v68q0 70 -5 117t-21.5 93t-45.5 72t-78.5 42t-120.5 16q-132 0 -182.5 -52.5t-50.5 -178.5z" />
<glyph unicode=":" horiz-adv-x="454" d="M94 113q0 55 39 94t94 39t94 -39t39 -94t-39 -94t-94 -39t-94 39t-39 94zM94 903q0 57 38.5 96t94.5 39q55 0 94 -39.5t39 -95.5q0 -54 -39 -93.5t-94 -39.5t-94 39t-39 94z" />
<glyph unicode=";" horiz-adv-x="448" d="M90 903q0 57 39 96t96 39q55 0 94 -39.5t39 -95.5q0 -54 -39 -93.5t-94 -39.5q-57 0 -96 38.5t-39 94.5zM104 -242q0 68 7 164q20 314 143 314q43 0 67.5 -29.5t24.5 -79.5q0 -61 -56 -183t-106 -204q-20 -35 -47 -27l-6 2q-27 8 -27 43z" />
<glyph unicode="&#x3c;" horiz-adv-x="940" d="M59 664q0 69 29.5 117t108.5 87l567 287q47 25 63.5 15t16.5 -64v-23q0 -54 -16 -80t-64 -51l-488 -239q-36 -19 -36 -49q0 -34 36 -50l488 -239q48 -25 64 -51t16 -80v-25q0 -54 -16.5 -64t-63.5 15l-567 287q-78 39 -108 88t-30 119z" />
<glyph unicode="=" horiz-adv-x="1105" d="M104 428v21q0 46 16 61.5t62 15.5h742q46 0 61.5 -15.5t15.5 -61.5v-21q0 -46 -15.5 -62t-61.5 -16h-742q-46 0 -62 16t-16 62zM104 887v20q0 46 16 62t62 16h742q46 0 61.5 -16t15.5 -62v-20q0 -46 -15.5 -62t-61.5 -16h-742q-46 0 -62 16t-16 62z" />
<glyph unicode="&#x3e;" horiz-adv-x="940" d="M96 219v25q0 54 16 80t64 51l488 239q36 16 36 50q0 30 -36 49l-488 239q-48 25 -64 51t-16 80v23q0 54 16.5 64t63.5 -15l567 -287q79 -39 108.5 -87t29.5 -117q0 -70 -30 -119t-108 -88l-567 -287q-47 -25 -63.5 -15t-16.5 64z" />
<glyph unicode="?" horiz-adv-x="870" d="M92 1200v37q0 52 17.5 70.5t70.5 27.5q88 15 152 15q226 0 334 -89t108 -300q0 -80 -20 -142.5t-60 -108t-80 -75t-100 -62.5q-48 -27 -79 -53t-42.5 -41.5t-21.5 -36.5q-19 -39 -35.5 -49t-63.5 -10h-22q-48 0 -68.5 15.5t-17.5 52.5q4 57 39 111t78.5 90.5t107.5 78.5 q39 24 57 36.5t44.5 35.5t38.5 42.5t21 49.5t9 66q0 108 -51 149t-174 41q-75 0 -156 -18q-51 -12 -68.5 1.5t-17.5 65.5zM127 115q0 55 38.5 94t94.5 39t94.5 -39t38.5 -94q0 -57 -38.5 -96t-94.5 -39t-94.5 39t-38.5 96z" />
<glyph unicode="@" horiz-adv-x="1972" d="M117 436v146q0 258 110 441.5t304 274.5t454 91q140 0 267 -30t238.5 -94.5t192.5 -157.5t128 -227.5t47 -297.5v-136q0 -60 -8.5 -112t-31.5 -105t-59.5 -91t-97 -61.5t-139.5 -23.5q-90 0 -163.5 47.5t-103.5 143.5q-33 -93 -106.5 -142t-206.5 -49q-191 0 -280 106 t-89 285v138q0 385 412 385q190 0 299 -97.5t109 -287.5v-146q0 -207 125 -207q147 0 147 213v142q0 158 -55 281t-150 197.5t-215.5 112t-259.5 37.5q-320 0 -498 -160.5t-178 -469.5v-146q0 -131 33.5 -237.5t92 -179.5t140.5 -122t175.5 -71.5t199.5 -22.5q211 0 346 95 q28 20 43.5 22.5t26.5 -5.5t33 -36l14 -18q31 -36 29.5 -57.5t-39.5 -45.5q-209 -131 -473 -131q-135 0 -257 34t-223.5 101.5t-175.5 163.5t-115.5 226.5t-41.5 283.5zM772 442q0 -110 44.5 -161.5t162.5 -51.5q120 0 168.5 56.5t48.5 156.5v136q0 104 -46 157t-167 53 t-166 -52.5t-45 -157.5v-136z" />
<glyph unicode="A" horiz-adv-x="1296" d="M66 18q-6 9 -6 25q0 18 8 47l251 916q19 67 33.5 111.5t35 86.5t43 66.5t54 44t71.5 27.5t93 8t92.5 -8t71 -27.5t54 -43.5t42.5 -67t34.5 -86.5t33.5 -111.5l252 -916q8 -28 8 -46q0 -17 -7 -26q-14 -18 -71 -18h-29q-57 0 -80 18t-38 72l-76 279h-576l-75 -279 q-15 -54 -38.5 -72t-80.5 -18h-29q-57 0 -71 18zM412 563h473l-121 447q-24 91 -45 119t-70 28q-50 0 -71.5 -28.5t-45.5 -118.5z" />
<glyph unicode="B" horiz-adv-x="1232" d="M150 233v865q0 123 55 178t178 55h270q232 0 335.5 -92.5t103.5 -261.5q0 -111 -43.5 -178.5t-147.5 -104.5v-8q130 -41 181 -115t51 -194q0 -64 -13 -117.5t-46.5 -102.5t-86.5 -83t-138 -54t-196 -20h-270q-123 0 -178 55t-55 178zM365 281q0 -41 19 -59.5t60 -18.5 h197q156 0 214 42t58 146q0 97 -52 147t-181 50h-315v-307zM365 774h288q120 0 169.5 47t49.5 133q0 87 -48.5 130.5t-170.5 43.5h-209q-42 0 -60.5 -18t-18.5 -59v-277z" />
<glyph unicode="C" horiz-adv-x="1083" d="M109 489v328q0 259 135.5 396t414.5 137q152 0 259 -43q56 -23 71 -40t15 -67v-31q0 -55 -16 -70q-8 -7 -23 -7q-18 0 -45 10q-120 47 -265 47q-171 0 -248 -81t-77 -251v-328q0 -73 16 -126.5t52.5 -96t103 -64.5t162.5 -22q157 0 264 43q34 13 58 -2.5t24 -64.5v-31 q0 -48 -20 -69.5t-64 -37.5q-111 -41 -267 -41q-276 0 -413 123t-137 389z" />
<glyph unicode="D" horiz-adv-x="1263" d="M150 233v865q0 123 55 178t178 55h170q162 0 271 -24.5t185.5 -84.5t111 -161t34.5 -254v-283q0 -280 -143 -402t-459 -122h-170q-123 0 -178 55t-55 178zM365 281q0 -41 19 -59.5t60 -18.5h109q151 0 232.5 31t115 98.5t33.5 191.5v283q0 123 -33 190.5t-115 99 t-233 31.5h-109q-42 0 -60.5 -18t-18.5 -59v-770z" />
<glyph unicode="E" horiz-adv-x="1150" d="M150 233v865q0 123 55 178t178 55h580q55 0 73.5 -18.5t18.5 -73.5v-18q0 -56 -18.5 -74.5t-73.5 -18.5h-519q-42 0 -60.5 -18t-18.5 -59v-263h516q55 0 73.5 -18t18.5 -74v-18q0 -56 -18.5 -74t-73.5 -18h-516v-305q0 -41 19 -59.5t60 -18.5h519q55 0 73.5 -18.5 t18.5 -73.5v-19q0 -56 -18.5 -74t-73.5 -18h-580q-123 0 -178 55t-55 178z" />
<glyph unicode="F" horiz-adv-x="1101" d="M150 94v1004q0 123 55 178t178 55h551q56 0 74 -18.5t18 -73.5v-18q0 -56 -18.5 -74.5t-73.5 -18.5h-490q-42 0 -60.5 -18t-18.5 -59v-277h487q56 0 74 -18t18 -74v-18q0 -56 -18.5 -74.5t-73.5 -18.5h-487v-477q0 -57 -19 -75.5t-76 -18.5h-26q-57 0 -75.5 18.5 t-18.5 75.5z" />
<glyph unicode="G" horiz-adv-x="1206" d="M109 498v327q0 248 145.5 386.5t452.5 138.5q153 0 292 -50q53 -21 66.5 -37t13.5 -67v-31q0 -54 -17 -69q-7 -7 -22 -7q-17 0 -43 9q-140 51 -288 51q-207 0 -293 -78t-86 -260v-328q0 -72 17.5 -124.5t59.5 -94.5t119 -63t189 -21q78 0 112 6q40 6 56 29t16 66v372 q0 55 18.5 73.5t73.5 18.5h19q56 0 74 -18.5t18 -73.5v-374q0 -135 -44.5 -200.5t-166.5 -86.5q-93 -15 -174 -15q-321 0 -464.5 121t-143.5 400z" />
<glyph unicode="H" horiz-adv-x="1286" d="M150 94v1143q0 57 18.5 75.5t75.5 18.5h26q57 0 76 -18.5t19 -75.5v-434h557v434q0 57 18.5 75.5t75.5 18.5h26q57 0 76 -18.5t19 -75.5v-1143q0 -57 -19 -75.5t-76 -18.5h-26q-57 0 -75.5 18.5t-18.5 75.5v506h-557v-506q0 -57 -19 -75.5t-76 -18.5h-26 q-57 0 -75.5 18.5t-18.5 75.5z" />
<glyph unicode="I" horiz-adv-x="542" d="M164 94v1143q0 57 18.5 75.5t75.5 18.5h27q57 0 75.5 -18.5t18.5 -75.5v-1143q0 -57 -18.5 -75.5t-75.5 -18.5h-27q-57 0 -75.5 18.5t-18.5 75.5z" />
<glyph unicode="J" horiz-adv-x="542" d="M-6 -186q48 44 82.5 97t61 156t26.5 238v932q0 57 18.5 75.5t75.5 18.5h27q57 0 75.5 -18.5t18.5 -75.5v-918q0 -139 -20.5 -249t-61 -189.5t-84 -134t-104.5 -106.5q-33 -27 -57 -20.5t-54 48.5l-14 21q-27 41 -27 66q0 27 37 59z" />
<glyph unicode="K" horiz-adv-x="1198" d="M150 94v1143q0 57 18.5 75.5t75.5 18.5h26q57 0 76 -18.5t19 -75.5v-1143q0 -57 -19 -75.5t-76 -18.5h-26q-57 0 -75.5 18.5t-18.5 75.5zM442 698q0 53 21 99.5t76 113.5l278 334q43 51 79 68.5t101 17.5h37q66 -1 74 -17l2 -6q0 -19 -35 -63l-340 -414 q-55 -67 -70.5 -90.5t-15.5 -46.5q0 -19 14.5 -41.5t71.5 -93.5l381 -473q34 -44 34 -63q0 -4 -1 -6q-8 -17 -74 -17h-37q-67 0 -103 17t-77 69l-319 395q-54 68 -75.5 116.5t-21.5 100.5z" />
<glyph unicode="L" horiz-adv-x="1021" d="M150 233v1004q0 57 18.5 75.5t75.5 18.5h26q57 0 76 -18.5t19 -75.5v-956q0 -41 19 -59.5t60 -18.5h437q55 0 73.5 -18.5t18.5 -73.5v-19q0 -56 -18.5 -74t-73.5 -18h-498q-123 0 -178 55t-55 178z" />
<glyph unicode="M" horiz-adv-x="1683" d="M76 94l69 948q12 160 78.5 230.5t202.5 70.5q126 0 190 -69.5t84 -231.5l97 -790q6 -47 14 -60.5t31 -13.5q21 0 29 13.5t14 60.5l96 790q20 162 84.5 231.5t189.5 69.5q136 0 202.5 -70t78.5 -231l72 -948q1 -11 1 -20q-1 -42 -15 -56q-18 -18 -74 -18h-31 q-57 0 -76 18.5t-24 75.5l-66 946q-4 65 -20.5 88t-51.5 23q-31 0 -46.5 -23t-24.5 -88l-111 -823q-15 -121 -62.5 -169t-164.5 -48q-103 0 -157 47.5t-71 169.5l-112 823q-9 65 -25.5 88t-48.5 23q-33 0 -49.5 -23.5t-20.5 -87.5l-63 -946q-3 -57 -23 -75.5t-77 -18.5h-31 q-56 0 -74 18q-14 15 -15 56q0 9 1 20z" />
<glyph unicode="N" horiz-adv-x="1351" d="M150 94v987q0 149 57.5 210t183.5 61q109 0 162.5 -47t87.5 -170l258 -916q10 -35 21.5 -46t31.5 -11q23 0 32 15t9 52v1008q0 57 18.5 75.5t75.5 18.5h21q57 0 75.5 -18.5t18.5 -75.5v-987q0 -150 -55.5 -210t-177.5 -60q-113 0 -168.5 50t-91.5 177l-254 895 q-11 40 -22 53.5t-34 13.5t-32 -15.5t-9 -55.5v-1004q0 -57 -18.5 -75.5t-75.5 -18.5h-20q-57 0 -75.5 18.5t-18.5 75.5z" />
<glyph unicode="O" d="M109 516v293q0 102 15 181t52.5 148.5t98 115t155 71t221.5 25.5t222 -25.5t156 -71t98 -115t52 -148.5t15 -181v-293q0 -102 -15 -181.5t-52.5 -148.5t-98.5 -114.5t-155.5 -71t-221.5 -25.5t-222 25.5t-155.5 71t-98 115t-52 148.5t-14.5 181zM326 516q0 -88 12.5 -146 t47 -104t99.5 -67t166 -21t166 21t100 67t47.5 104t12.5 146v293q0 89 -12.5 147t-47.5 104t-100 66.5t-166 20.5t-166 -20.5t-99.5 -66.5t-47 -104t-12.5 -147v-293z" />
<glyph unicode="P" horiz-adv-x="1222" d="M150 94v1004q0 123 55 178t178 55h317q238 0 343.5 -112.5t105.5 -321.5t-106 -321.5t-343 -112.5h-335v-369q0 -57 -19 -75.5t-76 -18.5h-26q-57 0 -75.5 18.5t-18.5 75.5zM365 666h335q132 0 183 54.5t51 176.5q0 120 -52 175.5t-182 55.5h-256q-42 0 -60.5 -18 t-18.5 -59v-385z" />
<glyph unicode="Q" d="M109 516v293q0 102 15 181t52.5 148.5t98 115t155 71t221.5 25.5t222 -25.5t156 -71t98 -115t52 -148.5t15 -181v-293q0 -102 -15.5 -181.5t-51.5 -148.5t-102 -116t-161 -70l201 -195q45 -42 45 -60q0 -3 -1 -5q-8 -16 -79 -16h-53q-64 0 -99.5 15.5t-78.5 61.5 l-160 176q-87 3 -170 23q-83 16 -146 48.5t-103.5 77.5t-65.5 106.5t-35 130t-10 153.5zM326 516q0 -88 12.5 -146t47 -104t99.5 -67t166 -21t166 21t100 67t47.5 104t12.5 146v293q0 89 -12.5 147t-47.5 104t-100 66.5t-166 20.5t-166 -20.5t-99.5 -66.5t-47 -104 t-12.5 -147v-293z" />
<glyph unicode="R" horiz-adv-x="1265" d="M150 94v1004q0 123 55 178t178 55h324q237 0 339.5 -105.5t102.5 -305.5q0 -163 -67 -262.5t-220 -131.5l283 -436q27 -42 27 -62q0 -6 -2 -10q-10 -18 -74 -18h-35q-65 0 -97.5 18t-66.5 72l-268 420h-264v-416q0 -57 -19 -75.5t-76 -18.5h-26q-57 0 -75.5 18.5 t-18.5 75.5zM365 713h342q128 0 177.5 51.5t49.5 155.5q0 109 -49 158.5t-178 49.5h-263q-42 0 -60.5 -18t-18.5 -59v-338z" />
<glyph unicode="S" horiz-adv-x="1075" d="M88 127v33q0 54 17 70q8 8 25 7q17 0 42 -8q162 -49 332 -49q140 0 202 32t62 112q0 60 -37 98.5t-139 99.5l-283 170q-99 60 -152 139.5t-53 194.5q0 165 111 244.5t342 79.5q159 0 285 -41q53 -16 70.5 -34.5t17.5 -68.5v-35q0 -54 -16 -68q-7 -7 -23 -7q-17 0 -43 8 q-131 43 -291 43q-123 0 -177 -28.5t-54 -98.5q0 -52 29 -85t100 -75l290 -178q60 -36 99.5 -67t75 -73.5t52.5 -96t17 -121.5q0 -174 -119 -260.5t-370 -86.5q-183 0 -330 48q-52 15 -67 33t-15 69z" />
<glyph unicode="T" horiz-adv-x="1155" d="M57 1221v18q0 55 18.5 73.5t74.5 18.5h854q56 0 74 -18.5t18 -73.5v-18q0 -56 -18.5 -74.5t-73.5 -18.5h-318v-1034q0 -57 -18.5 -75.5t-75.5 -18.5h-29q-57 0 -75.5 18.5t-18.5 75.5v1034h-319q-56 0 -74.5 19t-18.5 74z" />
<glyph unicode="U" horiz-adv-x="1294" d="M129 444v793q0 57 18.5 75.5t75.5 18.5h27q57 0 75.5 -18.5t18.5 -75.5v-793q0 -143 76.5 -203.5t226.5 -60.5t226.5 60.5t76.5 203.5v793q0 57 18.5 75.5t75.5 18.5h29q57 0 75.5 -18.5t18.5 -75.5v-793q0 -124 -37.5 -215t-108 -145.5t-163.5 -80.5t-211 -26t-211 26 t-163 80.5t-107 145.5t-37 215z" />
<glyph unicode="V" horiz-adv-x="1263" d="M70 1239q-7 28 -7 46.5t7 27.5q14 18 71 18h35q57 0 80.5 -18.5t36.5 -73.5l221 -917q22 -90 44.5 -119t72.5 -29t72.5 29t44.5 119l221 917q14 56 36.5 74t79.5 18h35q58 0 72 -18q7 -9 7 -28q0 -18 -7 -46l-227 -913q-25 -100 -48 -159t-60.5 -104t-91 -63t-134.5 -18 t-134.5 18t-91 63t-60.5 104t-48 159z" />
<glyph unicode="W" horiz-adv-x="1902" d="M78 1237q-3 19 -3 34q1 29 11 41q16 18 72 19h28q57 0 78.5 -18.5t28.5 -75.5l131 -938q10 -75 28.5 -100t57.5 -25q37 0 55.5 25.5t30.5 99.5l119 780q22 144 71.5 198t163.5 54q116 0 165 -54t71 -198l121 -780q12 -74 30.5 -99.5t55.5 -25.5q38 0 57 25.5t29 99.5 l131 938q8 57 28.5 75.5t77.5 18.5h29q57 -1 73 -19q10 -12 10 -41q0 -15 -3 -34l-133 -938q-25 -174 -89.5 -245.5t-209.5 -71.5q-140 0 -198.5 71t-84.5 246l-111 764q-8 53 -16.5 68.5t-32.5 15.5q-23 0 -32 -16t-17 -68l-108 -764q-24 -174 -83 -245.5t-200 -71.5 q-145 0 -209.5 71.5t-89.5 245.5z" />
<glyph unicode="X" horiz-adv-x="1275" d="M87 19q-4 6 -4 14q0 22 21 63l226 457q30 60 56 95.5t63 53.5q-24 11 -46.5 37t-36 49.5t-34.5 65.5l-187 381q-20 41 -20 63q0 8 4 14q12 18 76 19h26q65 0 94.5 -19t55.5 -77l139 -307q35 -78 57 -101.5t62 -23.5q38 0 60 23.5t57 101.5l139 307q26 58 55 77t94 19h29 q65 -1 77 -19q4 -5 4 -14q0 -21 -21 -63l-189 -381q-22 -44 -34.5 -66t-35.5 -48.5t-49 -37.5q39 -18 65 -53.5t56 -95.5l228 -457q21 -41 21 -63q0 -9 -4 -14q-12 -19 -77 -19h-29q-64 0 -93.5 18.5t-57.5 77.5l-178 381q-38 81 -58.5 104t-58.5 23q-40 0 -60.5 -23 t-58.5 -104l-178 -381q-28 -58 -57.5 -77t-94.5 -19h-26q-65 0 -77 19z" />
<glyph unicode="Y" horiz-adv-x="1294" d="M60 1312q11 19 75 19h29q65 0 95 -18.5t58 -75.5l193 -379q48 -94 71.5 -119.5t65.5 -25.5q40 0 63.5 25.5t71.5 119.5l193 379q29 57 59.5 75.5t95.5 18.5h29q64 0 75 -19q3 -4 3 -12q0 -21 -23 -63l-276 -510q-57 -105 -89.5 -140t-92.5 -55v-438q0 -57 -18.5 -75.5 t-75.5 -18.5h-29q-57 0 -75.5 18.5t-18.5 75.5v438q-61 21 -95 56t-90 139l-274 510q-23 42 -23 63q0 8 3 12z" />
<glyph unicode="Z" horiz-adv-x="1136" d="M57 213q0 84 30.5 146.5t115.5 132.5l610 503q30 25 40.5 42.5t10.5 37.5q0 27 -19 40t-65 13h-575q-55 0 -73.5 18.5t-18.5 74.5v18q0 55 18.5 73.5t73.5 18.5h588q151 0 216.5 -56.5t65.5 -170.5q0 -79 -30.5 -141.5t-114.5 -131.5l-604 -499q-62 -50 -62 -88 q0 -22 17.5 -31.5t58.5 -9.5h647q55 0 73.5 -18.5t18.5 -73.5v-19q0 -56 -18.5 -74t-73.5 -18h-643q-85 0 -143 15t-88.5 45t-43 66.5t-12.5 86.5z" />
<glyph unicode="[" horiz-adv-x="690" d="M158 -279v1582q0 114 50.5 164.5t164.5 50.5h159q44 0 59 -15t15 -59v-23q0 -44 -15 -58.5t-59 -14.5h-114q-36 0 -52 -16t-16 -52v-1536q0 -36 16 -52t52 -16h114q44 0 59 -14.5t15 -58.5v-23q0 -44 -15 -59t-59 -15h-159q-114 0 -164.5 50.5t-50.5 164.5z" />
<glyph unicode="\" horiz-adv-x="681" d="M12 1501.5q11 16.5 62 16.5h28q51 0 72.5 -16t36.5 -64l455 -1420q15 -47 4 -63t-62 -16h-24q-51 0 -73.5 16t-37.5 63l-457 1420q-15 47 -4 63.5z" />
<glyph unicode="]" horiz-adv-x="690" d="M84 -397q0 44 15 58.5t59 14.5h114q36 0 52 16t16 52v1536q0 36 -16 52t-52 16h-114q-44 0 -59 14.5t-15 58.5v23q0 44 15 59t59 15h159q114 0 164.5 -50.5t50.5 -164.5v-1582q0 -114 -50.5 -164.5t-164.5 -50.5h-159q-44 0 -59 15t-15 59v23z" />
<glyph unicode="^" horiz-adv-x="1064" d="M151.5 758q-9.5 15 10.5 61l203 479q33 77 69.5 106.5t97.5 29.5t98 -29.5t70 -106.5l205 -479q20 -46 10.5 -61t-59.5 -15h-29q-49 0 -71 15t-39 61l-152 406q-9 24 -15.5 32.5t-17.5 8.5q-10 0 -16.5 -8t-15.5 -33l-152 -406q-17 -46 -39 -61t-71 -15h-27 q-50 0 -59.5 15z" />
<glyph unicode="_" horiz-adv-x="1028" d="M-4 -106q0 43 14.5 57t57.5 14h893q43 0 57 -14t14 -57v-19q0 -43 -14 -57.5t-57 -14.5h-893q-43 0 -57.5 14.5t-14.5 57.5v19z" />
<glyph unicode="`" horiz-adv-x="575" d="M136 1800.5q8 14.5 59 14.5h51q51 0 75 -15t46 -61l63 -133q20 -41 11.5 -55.5t-54.5 -14.5h-22q-46 0 -70 13.5t-49 52.5l-90 141q-28 43 -20 57.5z" />
<glyph unicode="a" horiz-adv-x="1003" d="M61 293q0 84 29 144.5t84.5 96t130.5 52t174 16.5h226v100q0 89 -61 122.5t-181 33.5q-123 0 -215 -18q-45 -9 -60.5 5t-15.5 60v29q0 45 15.5 62.5t58.5 25.5q94 16 205 16q108 0 189.5 -17t144.5 -55t95.5 -104t32.5 -160v-397q0 -169 -104.5 -248.5t-331.5 -79.5 q-416 0 -416 316zM272 297q0 -44 16 -73t46.5 -43t62.5 -19.5t76 -5.5t75.5 3t63 13t50.5 27t31 46t12 70v127h-226q-106 0 -156.5 -34t-50.5 -111z" />
<glyph unicode="b" horiz-adv-x="1142" d="M117 416v925q0 56 18.5 74.5t73.5 18.5h24q55 0 74 -19t19 -74v-436q83 133 301 133q216 0 321 -115t105 -331v-176q0 -223 -116.5 -331t-352.5 -108q-220 0 -343.5 110t-123.5 329zM326 420q0 -128 54.5 -186t205.5 -58q79 0 130 15t78.5 48t37.5 75t10 106v176 q0 64 -10.5 106.5t-38 75.5t-78.5 48.5t-129 15.5t-129.5 -15.5t-80 -48t-39.5 -75.5t-11 -107v-176z" />
<glyph unicode="c" horiz-adv-x="864" d="M90 408v200q0 200 118.5 315t354.5 115q78 0 160 -20q51 -12 66.5 -31.5t15.5 -71.5v-26q0 -53 -18 -68q-9 -8 -26 -7.5t-42 7.5q-66 21 -152 21q-148 0 -207 -54.5t-59 -181.5v-192q0 -132 65 -185t216 -53q27 0 54 2.5t40.5 4.5t36.5 6.5t26 5.5q20 4 35 4q22 -1 32 -9 q16 -14 17 -65v-25q0 -51 -17 -70.5t-69 -31.5q-92 -21 -166 -21q-246 0 -363.5 107.5t-117.5 323.5z" />
<glyph unicode="d" horiz-adv-x="1130" d="M90 416v176q0 216 105 331t323 115q216 0 299 -133v436q0 56 18.5 74.5t73.5 18.5h25q55 0 73.5 -18.5t18.5 -74.5v-925q0 -219 -123 -329t-344 -110q-235 0 -352 108t-117 331zM301 420q0 -64 10 -106t37.5 -75t78.5 -48t130 -15q151 0 205.5 58t54.5 186v176 q0 64 -11 107t-39.5 75.5t-80 48t-129.5 15.5q-149 0 -202.5 -58.5t-53.5 -187.5v-176z" />
<glyph unicode="e" horiz-adv-x="1069" d="M90 416v178q0 444 455 444q213 0 323.5 -107t110.5 -317q0 -44 -4 -90q-6 -57 -27 -75.5t-78 -18.5h-569v-45q0 -112 68.5 -160.5t224.5 -48.5q122 0 266 33q22 5 37 5q20 0 30 -8q17 -16 17 -69v-26q0 -51 -16 -69t-68 -32q-126 -33 -266 -33q-259 0 -381.5 103.5 t-122.5 335.5zM301 602h479v51q0 203 -241 203q-238 0 -238 -203v-51z" />
<glyph unicode="f" horiz-adv-x="802" d="M29 891v20q0 43 14 59.5t55 24.5l109 21v119q0 100 27 170.5t78 109.5t115 56.5t148 17.5q80 0 132 -10q53 -9 70.5 -28t17.5 -71v-24q0 -52 -17 -67q-12 -10 -38 -10q-15 0 -33 3q-54 8 -117 8q-84 0 -129 -32t-45 -107v-135h272q52 0 69 -17t17 -69v-25 q0 -53 -17 -69.5t-69 -16.5h-272v-727q0 -56 -18 -74t-74 -18h-25q-55 0 -73.5 18t-18.5 74v727h-107q-43 0 -57 14.5t-14 57.5z" />
<glyph unicode="g" horiz-adv-x="1054" d="M63 -168q0 142 109 207q-78 47 -78 143q0 136 162 176q-166 79 -166 299v19q0 173 117.5 267.5t329.5 94.5q110 0 194 -32l117 100q34 31 57 31q1 0 1 -1q23 0 57 -32l18 -19q34 -32 34 -54t-32 -56l-84 -90q78 -78 78 -209v-19q0 -368 -440 -368q-101 0 -148.5 -5.5 t-66.5 -18.5t-19 -42q0 -36 45 -47.5t189 -11.5q181 0 282 -29t143 -91.5t42 -172.5q0 -119 -43 -186.5t-144 -99t-280 -31.5q-140 0 -233.5 17.5t-146 54.5t-73.5 86t-21 120zM274 -139q0 -81 56.5 -105t206.5 -24q57 0 93.5 2.5t70.5 10t52 22t29 39t11 59.5q0 33 -11 55 t-28.5 35t-53 19.5t-70 8t-93.5 1.5q-119 0 -187 8q-76 -36 -76 -131zM301 657q0 -94 51 -140t185 -46q131 0 180 46t49 140v19q0 86 -51 133t-178 47q-129 0 -182.5 -47t-53.5 -133v-19z" />
<glyph unicode="h" horiz-adv-x="1132" d="M131 92v1249q0 56 18.5 74.5t73.5 18.5h27q55 0 73.5 -18.5t18.5 -74.5v-430q96 127 317 127q165 0 264 -85.5t99 -268.5v-592q0 -56 -18 -74t-74 -18h-27q-55 0 -73.5 18t-18.5 74v559q0 101 -51.5 146t-165.5 45q-125 0 -188.5 -59t-63.5 -199v-492q0 -56 -18 -74 t-74 -18h-27q-55 0 -73.5 18t-18.5 74z" />
<glyph unicode="i" horiz-adv-x="477" d="M109 1329q0 54 38.5 91.5t92.5 37.5t91.5 -38t37.5 -91q0 -54 -37.5 -91.5t-91.5 -37.5t-92.5 37.5t-38.5 91.5zM133 92v832q0 56 18.5 74t73.5 18h27q56 0 74 -18t18 -74v-832q0 -56 -18 -74t-74 -18h-27q-55 0 -73.5 18t-18.5 74z" />
<glyph unicode="j" horiz-adv-x="466" d="M-41 -242q32 28 57.5 61.5t53.5 89.5t43.5 142t15.5 193v680q0 56 18.5 74t73.5 18h25q56 0 74 -18t18 -74v-666q0 -142 -22 -254t-63 -190.5t-84 -129.5t-101 -98q-31 -24 -51 -17t-48 50l-16 25q-27 41 -27 62q0 23 33 52zM104 1329q0 54 37.5 91.5t91.5 37.5t91.5 -38 t37.5 -91q0 -54 -37.5 -91.5t-91.5 -37.5t-91.5 37.5t-37.5 91.5z" />
<glyph unicode="k" horiz-adv-x="1067" d="M131 92v1249q0 56 18.5 74.5t73.5 18.5h25q55 0 73.5 -18.5t18.5 -74.5v-1249q0 -56 -18 -74t-74 -18h-25q-55 0 -73.5 18t-18.5 74zM410 543q0 48 16.5 84.5t65.5 89.5l188 213q46 52 83.5 69t106.5 17h35q69 0 77 -17q1 -3 1 -6q0 -19 -39 -63l-285 -320 q-41 -41 -41 -73q0 -27 39 -72l328 -379q39 -44 39 -63q0 -3 -1 -6q-8 -17 -77 -17h-35q-69 0 -106.5 17t-83.5 69l-229 268q-47 54 -64.5 97t-17.5 92z" />
<glyph unicode="l" horiz-adv-x="520" d="M113 287v1054q0 56 18.5 74.5t73.5 18.5h26q55 0 74 -19t19 -74v-1013q0 -82 23.5 -114t72.5 -32q51 0 64.5 -14.5t13.5 -67.5v-20q0 -51 -16 -68t-68 -26q-12 -2 -29 -2q-123 0 -197.5 73.5t-74.5 229.5z" />
<glyph unicode="m" horiz-adv-x="1665" d="M111 92v549q0 193 102.5 295t312.5 102q227 0 308 -149q84 149 307 149q216 0 314.5 -100t98.5 -297v-549q0 -56 -18 -74t-74 -18h-26q-56 0 -74.5 18.5t-18.5 73.5v549q0 104 -42 152.5t-160 48.5q-120 0 -163.5 -48.5t-43.5 -152.5v-549q0 -56 -18 -74t-74 -18h-21 q-55 0 -73.5 18t-18.5 74v549q0 105 -42 153t-161 48t-161.5 -48t-42.5 -153v-549q0 -55 -18.5 -73.5t-74.5 -18.5h-26q-55 0 -73.5 18t-18.5 74z" />
<glyph unicode="n" horiz-adv-x="1112" d="M111 92v549q0 193 110 295t336 102q233 0 338.5 -99.5t105.5 -297.5v-549q0 -56 -18.5 -74t-73.5 -18h-26q-55 0 -73.5 18t-18.5 74v549q0 52 -9.5 86.5t-34.5 62t-71.5 40t-118.5 12.5q-94 0 -146.5 -24.5t-70.5 -66t-18 -110.5v-549q0 -55 -18.5 -73.5t-74.5 -18.5h-26 q-55 0 -73.5 18t-18.5 74z" />
<glyph unicode="o" horiz-adv-x="1118" d="M90 420v176q0 215 117 328.5t354 113.5q244 0 355.5 -110.5t111.5 -331.5v-176q0 -214 -116 -328.5t-351 -114.5q-245 0 -358 111t-113 332zM301 420q0 -128 54.5 -186t205.5 -58q77 0 128 15t78.5 47.5t38.5 75t11 106.5v176q0 129 -53.5 187.5t-202.5 58.5 q-78 0 -129.5 -15.5t-80 -48t-39.5 -75.5t-11 -107v-176z" />
<glyph unicode="p" horiz-adv-x="1142" d="M117 -317v919q0 218 123.5 327t343.5 109q236 0 352.5 -106.5t116.5 -329.5v-178q0 -215 -105 -331t-321 -116q-218 0 -301 134v-428q0 -55 -19 -74t-74 -19h-24q-55 0 -73.5 18.5t-18.5 74.5zM326 420q0 -128 54.5 -186t205.5 -58q78 0 129 15t78.5 47.5t38 75 t10.5 106.5v176q0 64 -10.5 106.5t-37.5 76t-78 48.5t-130 15q-78 0 -129.5 -15.5t-80 -48t-39.5 -75.5t-11 -107v-176z" />
<glyph unicode="q" horiz-adv-x="1142" d="M90 424v178q0 222 117 329t352 107q222 0 344.5 -108.5t122.5 -327.5v-919q0 -56 -18.5 -74.5t-73.5 -18.5h-25q-55 0 -73.5 18.5t-18.5 74.5v428q-83 -134 -299 -134q-217 0 -322.5 116t-105.5 331zM301 420q0 -64 11 -106.5t38.5 -75t78.5 -47.5t128 -15 q151 0 205.5 58t54.5 186v176q0 64 -11 107t-39.5 75.5t-80 48t-129.5 15.5q-79 0 -130 -15t-78 -48.5t-37.5 -76t-10.5 -106.5v-176z" />
<glyph unicode="r" horiz-adv-x="663" d="M111 92v584q0 175 96.5 268.5t290.5 93.5q25 0 41 -2q52 -6 69 -24.5t17 -71.5v-29q-1 -51 -17 -65q-10 -8 -35 -9q-15 0 -34 3q-16 2 -41 2q-102 0 -139 -43t-37 -137v-570q0 -55 -18.5 -73.5t-74.5 -18.5h-26q-55 0 -73.5 18t-18.5 74z" />
<glyph unicode="s" horiz-adv-x="948" d="M82 113v26q0 54 16 69q9 8 28 8q16 0 38 -5q153 -39 299 -39q104 0 147 19t43 69q0 39 -27 63.5t-104 59.5l-221 98q-51 22 -85 44.5t-62.5 55t-42 76.5t-13.5 103q0 142 93.5 210t297.5 68q127 0 238 -30q54 -15 70 -33.5t16 -69.5v-24q0 -53 -17 -68q-9 -8 -28 -8 q-16 0 -39 6q-120 33 -244 33q-101 0 -140.5 -19.5t-39.5 -64.5q0 -36 21 -58.5t75 -46.5l238 -102q74 -31 119 -64t72.5 -89.5t27.5 -135.5q0 -149 -98.5 -218t-315.5 -69q-148 0 -280 35q-52 14 -67 31.5t-15 69.5z" />
<glyph unicode="t" horiz-adv-x="866" d="M29 891v20q0 43 14 59.5t55 24.5l109 21l24 192q6 44 23 59t61 15h27q44 0 59 -15t15 -59v-192h286q52 0 69 -17t17 -69v-25q0 -53 -17 -69.5t-69 -16.5h-286v-465q0 -96 41 -137t118 -41q87 0 166 19q21 4 36 4q21 -1 31 -9q16 -14 17 -67v-25q0 -52 -16.5 -71.5 t-67.5 -30.5q-83 -16 -166 -16t-148 19t-115.5 61.5t-77.5 117t-27 178.5v463h-107q-43 0 -57 14.5t-14 57.5z" />
<glyph unicode="u" horiz-adv-x="1099" d="M104 377v547q0 55 18.5 73.5t74.5 18.5h26q55 0 73.5 -18t18.5 -74v-547q0 -51 10 -86t35.5 -62t72.5 -40t118 -13q72 0 118.5 12.5t71.5 40t34 62t9 86.5v547q0 55 18.5 73.5t74.5 18.5h26q55 0 73.5 -18t18.5 -74v-547q0 -198 -105.5 -299t-338.5 -101 q-226 0 -336.5 103.5t-110.5 296.5z" />
<glyph unicode="v" horiz-adv-x="1093" d="M72 926q-7 27 -7 45t7 27q14 18 69 18h31q56 0 78.5 -18t34.5 -72l159 -666q14 -60 36.5 -79t66.5 -19t66 18.5t36 79.5l160 666q12 54 34.5 72t78.5 18h30q56 0 70 -18q7 -9 7 -27t-7 -45l-164 -676q-19 -77 -37 -121t-52 -81.5t-87 -52.5t-135 -15q-66 0 -113 11 t-78.5 30t-54.5 54.5t-36.5 74t-28.5 100.5z" />
<glyph unicode="w" horiz-adv-x="1693" d="M76 924q-3 19 -3 34q1 28 11 40q16 18 70 18h30q56 0 77 -18.5t28 -73.5l96 -664q9 -59 26.5 -79.5t55.5 -20.5q37 0 55 21t27 79l80 555q15 109 63 155t154 46q103 0 152.5 -43.5t66.5 -157.5l80 -555q9 -59 26.5 -79.5t55.5 -20.5q37 0 55 21t27 79l96 664 q8 56 28.5 74t75.5 18h31q54 0 70 -18q10 -12 11 -40q0 -15 -3 -34l-100 -674q-11 -70 -28 -117t-49.5 -84t-85 -54.5t-128.5 -17.5q-130 0 -186 66t-76 207l-68 500q-8 53 -17.5 69.5t-33.5 16.5q-23 0 -32 -16.5t-17 -69.5l-70 -500q-20 -142 -75 -207.5t-185 -65.5 q-76 0 -128.5 17t-85 53.5t-49.5 84t-28 118.5z" />
<glyph unicode="x" horiz-adv-x="1138" d="M72 18q-2 4 -2 10q0 20 24 60l178 297q46 78 68.5 108t54.5 48q-30 16 -53 46t-70 109l-137 232q-24 40 -24 60q0 6 2 10q10 18 71 18h27q61 0 91.5 -18t59.5 -72l121 -215q28 -50 43.5 -64t42.5 -14t41.5 13.5t42.5 64.5l121 215q29 54 59.5 72t92.5 18h26q62 0 72 -18 q3 -5 3 -11q0 -20 -23 -59l-138 -232q-47 -79 -70 -109t-55 -46q7 -4 14 -8.5t12 -8t12 -10.5l11 -11t11 -14.5t10.5 -15t12 -18.5t12 -20t14.5 -24t16 -26l176 -297q24 -40 24 -60q0 -6 -2 -10q-10 -18 -71 -18h-28q-62 0 -92.5 18t-61.5 72l-158 279q-29 53 -43.5 66.5 t-40.5 13.5q-27 0 -42 -14t-44 -66l-157 -279q-31 -54 -61.5 -72t-92.5 -18h-29q-61 0 -71 18z" />
<glyph unicode="y" horiz-adv-x="1093" d="M72 924q-7 28 -7 46.5t7 27.5q14 18 71 18h27q57 0 80.5 -18.5t36.5 -73.5l162 -660q14 -61 37.5 -80.5t72.5 -19.5q38 0 60 20t36 80l154 660q12 55 35 73.5t80 18.5h26q57 0 72 -18q7 -9 7 -28q0 -18 -7 -46l-221 -924q-52 -212 -157.5 -322t-281.5 -129 q-40 -4 -60.5 13t-31.5 63l-6 27q-10 43 3.5 59.5t54.5 22.5q104 15 167 79t97 185q-32 -14 -94 -14q-49 0 -86 13t-61.5 33.5t-44 56.5t-31.5 71t-25 88z" />
<glyph unicode="z" horiz-adv-x="987" d="M70 209q0 72 33 131.5t122 114.5l451 276q49 32 49 60q0 19 -14 26.5t-52 7.5h-450q-49 0 -65.5 16.5t-16.5 65.5v27q0 50 16.5 66t65.5 16h471q132 0 185 -48.5t53 -162.5q0 -80 -30.5 -133.5t-127.5 -112.5l-455 -276q-43 -25 -43 -56q0 -20 14.5 -28.5t51.5 -8.5h508 q50 0 66 -16t16 -65v-27q0 -50 -16 -66t-66 -16h-531q-119 0 -177 50.5t-58 158.5z" />
<glyph unicode="{" horiz-adv-x="804" d="M57 518v25q0 43 11.5 58t40.5 15h8q170 0 170 299v236q0 180 88 276.5t246 96.5h26q44 0 59 -15t15 -59v-23q0 -44 -15 -58.5t-59 -14.5h-8q-83 0 -121.5 -55.5t-38.5 -174.5v-241q0 -270 -164 -353q88 -41 126 -136t38 -216v-278q0 -119 38.5 -174.5t121.5 -55.5h8 q44 0 59 -14.5t15 -58.5v-23q0 -44 -15 -59t-59 -15h-26q-154 0 -244 96.5t-90 276.5v272q0 299 -170 299h-8q-29 0 -40.5 15.5t-11.5 58.5z" />
<glyph unicode="|" horiz-adv-x="509" d="M158 -410v1844q0 51 16.5 67.5t67.5 16.5h24q51 0 67.5 -16.5t16.5 -67.5v-1844q0 -51 -16.5 -67.5t-67.5 -16.5h-24q-51 0 -67.5 16.5t-16.5 67.5z" />
<glyph unicode="}" horiz-adv-x="804" d="M82 -403q0 44 15 58.5t59 14.5h8q83 0 121.5 55.5t38.5 174.5v278q0 276 163 352q-163 82 -163 353v241q0 119 -38.5 174.5t-121.5 55.5h-8q-44 0 -59 14.5t-15 58.5v23q0 44 15 59t59 15h26q158 0 246 -96.5t88 -276.5v-236q0 -299 170 -299h8q29 0 40 -15t11 -58v-25 q0 -43 -11 -58.5t-40 -15.5h-8q-170 0 -170 -299v-272q0 -180 -90 -276.5t-244 -96.5h-26q-44 0 -59 15t-15 59v23z" />
<glyph unicode="~" horiz-adv-x="1142" d="M82 467q11 134 81.5 211.5t196.5 77.5q62 0 115 -20.5t89.5 -50t69.5 -59.5t69.5 -50.5t74.5 -20.5q103 0 117 129q3 36 19 47.5t57 11.5h18q41 0 57 -11t13 -44q-12 -136 -81 -212.5t-190 -76.5q-61 0 -113.5 20.5t-90 49.5t-71.5 58.5t-72 50t-76 20.5q-56 0 -83.5 -38 t-33.5 -89q-5 -36 -19.5 -47.5t-56.5 -11.5h-20q-44 0 -58.5 11.5t-11.5 43.5z" />
<glyph unicode="&#xa1;" horiz-adv-x="565" d="M150 889q0 57 38.5 96t94.5 39t94.5 -39t38.5 -96q0 -55 -39 -94t-94 -39t-94 39t-39 94zM178 121q0 257 27 444q4 34 18.5 46t48.5 12h17q34 0 47.5 -12t19.5 -46q27 -167 27 -444v-357q0 -56 -18.5 -74t-73.5 -18h-21q-56 0 -74 18t-18 74v357z" />
<glyph unicode="&#xa2;" horiz-adv-x="874" d="M90 559v195q0 177 91.5 289.5t273.5 136.5v98q0 43 14 57.5t57 14.5h25q43 0 57.5 -14.5t14.5 -57.5v-96q32 -4 77 -13q54 -12 73.5 -35.5t19.5 -78.5v-15q0 -56 -17 -69t-71 0q-74 18 -144 18q-144 0 -202 -55t-58 -184v-185q0 -133 63 -187t207 -54q68 0 150 16 q55 11 72.5 -2t17.5 -68v-12q0 -56 -18 -78.5t-72 -34.5q-63 -13 -98 -16v-94q0 -43 -14.5 -57.5t-57.5 -14.5h-25q-43 0 -57 14.5t-14 57.5v98q-186 23 -275.5 129t-89.5 297z" />
<glyph unicode="&#xa3;" horiz-adv-x="1054" d="M37 651v27q0 38 12.5 50.5t50.5 12.5h107v144q0 235 105 350t325 115q97 0 176 -19q55 -11 72.5 -31t17.5 -75v-15q0 -56 -18 -71.5t-72 -5.5q-72 16 -168 16q-130 0 -175.5 -64t-45.5 -223v-121h274q38 0 51 -12.5t13 -50.5v-27q0 -38 -13 -50.5t-51 -12.5h-274v-307 q0 -41 18.5 -59.5t61.5 -18.5h395q55 0 73.5 -18.5t18.5 -73.5v-19q0 -56 -18.5 -74t-73.5 -18h-459q-123 0 -178 55t-55 178v355h-107q-38 0 -50.5 12.5t-12.5 50.5z" />
<glyph unicode="&#xa4;" horiz-adv-x="1357" d="M143 1070.5q0 25.5 39 62.5l21 18q40 37 64 37.5t63 -37.5l223 -227q59 26 127 26q69 0 125 -26l221 225q39 39 64 39t65 -39l16 -16q40 -40 40.5 -64.5t-37.5 -62.5l-207 -207q37 -64 37 -144q0 -79 -39 -143l209 -203q38 -39 37.5 -63t-37.5 -64l-21 -22 q-37 -39 -62.5 -39t-64.5 39l-223 227q-61 -25 -123 -25q-64 0 -125 25l-225 -227q-38 -38 -63.5 -38t-63.5 38l-21 20q-38 38 -38 63.5t38 63.5l211 207q-37 61 -37 141q0 79 37 140l-211 211q-39 39 -39 64.5zM526 655q0 -66 44 -108.5t110 -42.5t110 42.5t44 108.5 t-44 110t-110 44t-110 -44t-44 -110z" />
<glyph unicode="&#xa5;" horiz-adv-x="1269" d="M80 1312.5q12 18.5 74 18.5h36q62 0 90.5 -18.5t53.5 -75.5l164 -379q41 -96 65 -121.5t72 -25.5t73 26t66 121l162 379q25 57 53 75.5t90 18.5h37q62 0 74 -18.5t-14 -73.5l-211 -446q-46 -98 -76 -134.5t-84 -58.5h223q38 0 51 -12.5t13 -50.5v-21q0 -38 -13 -50.5 t-51 -12.5h-283v-140h283q38 0 51 -12.5t13 -50.5v-21q0 -38 -13 -50.5t-51 -12.5h-283v-72q0 -57 -18.5 -75.5t-75.5 -18.5h-28q-57 0 -76 18.5t-19 75.5v72h-286q-38 0 -51 12.5t-13 50.5v21q0 38 13 50.5t51 12.5h286v140h-286q-38 0 -51 12.5t-13 50.5v21q0 38 13 50.5 t51 12.5h223q-53 21 -83.5 58t-76.5 135l-211 446q-26 55 -14 73.5z" />
<glyph unicode="&#xa6;" horiz-adv-x="505" d="M158 272q0 51 16.5 67.5t67.5 16.5h24q51 0 67.5 -16.5t16.5 -67.5v-682q0 -51 -16.5 -67.5t-67.5 -16.5h-24q-51 0 -67.5 16.5t-16.5 67.5v682zM158 795v639q0 51 16.5 67.5t67.5 16.5h24q51 0 67.5 -16.5t16.5 -67.5v-639q0 -51 -16.5 -67.5t-67.5 -16.5h-24 q-51 0 -67.5 16.5t-16.5 67.5z" />
<glyph unicode="&#xa7;" horiz-adv-x="1095" d="M111 582q0 198 159 266q-78 58 -118.5 126t-40.5 167q0 160 106 238.5t328 78.5q145 0 270 -41q53 -18 68.5 -35.5t15.5 -68.5v-35q0 -54 -16.5 -68t-67.5 2q-118 41 -268 41q-117 0 -166 -26.5t-49 -93.5q0 -49 28 -81t103 -77l278 -166q62 -37 103 -69t76.5 -74.5 t52 -94.5t16.5 -118q0 -204 -170 -275q84 -66 127 -134t43 -165q0 -336 -483 -336q-169 0 -301 45q-49 16 -65.5 34.5t-16.5 68.5v33q0 52 19 68t63 1q138 -47 305 -47q135 0 195.5 31.5t60.5 105.5q0 53 -37 92t-141 103l-271 166q-99 60 -152.5 139t-53.5 199zM326 600 q0 -60 29 -104t104 -90l205 -127q56 14 83 49.5t27 103.5q0 54 -38.5 107t-143.5 114l-162 95q-56 -10 -80 -45.5t-24 -102.5z" />
<glyph unicode="&#xa8;" horiz-adv-x="788" d="M96 1651q0 47 34 81.5t81 34.5q49 0 83 -34t34 -82t-34 -81.5t-83 -33.5q-47 0 -81 34t-34 81zM461 1651q0 47 35 81.5t82 34.5t80.5 -34.5t33.5 -81.5t-34 -81t-80 -34q-47 0 -82 34t-35 81z" />
<glyph unicode="&#xa9;" horiz-adv-x="1722" d="M127 721q0 201 98 370t266.5 267t368.5 98q150 0 286.5 -58t234.5 -156t156 -234.5t58 -286.5q0 -200 -98 -368.5t-267 -266.5t-370 -98q-200 0 -368.5 98t-266.5 266.5t-98 368.5zM254 721q0 -123 48.5 -235t130 -193.5t193.5 -129.5t234 -48q165 0 305 81t221.5 221 t81.5 304q0 165 -81.5 305.5t-221.5 222.5t-305 82q-163 0 -303 -82t-221.5 -222.5t-81.5 -305.5zM530 629v190q0 162 99.5 243t279.5 81q71 0 123 -13q41 -11 56.5 -30t15.5 -62v-18q0 -41 -16.5 -50.5t-57.5 1.5q-54 12 -115 12q-111 0 -158.5 -42t-47.5 -132v-180 q0 -89 53 -128.5t164 -39.5q42 0 123 12q43 6 57 -5.5t14 -53.5v-17q0 -41 -17.5 -59t-60.5 -27q-69 -12 -120 -12q-197 0 -294.5 78.5t-97.5 251.5z" />
<glyph unicode="&#xab;" horiz-adv-x="1062" d="M59 512q0 33 13 60t47 67l188 229q34 40 62 53t80 13h24q52 0 58.5 -13t-27.5 -53l-246 -301q-29 -33 -29 -55q0 -14 5.5 -23.5t23.5 -31.5l246 -301q34 -40 27.5 -53t-58.5 -13h-24q-52 0 -80 13t-62 53l-188 229q-35 41 -47.5 67t-12.5 60zM473 512q0 34 12.5 60.5 t46.5 66.5l191 229q34 40 61.5 53t79.5 13h23q52 0 58.5 -14t-27.5 -54l-244 -299q-29 -33 -29 -55q0 -15 5.5 -25.5t23.5 -29.5l244 -299q34 -40 27.5 -54t-58.5 -14h-23q-52 0 -79.5 13t-61.5 53l-191 229q-34 42 -46.5 68t-12.5 59z" />
<glyph unicode="&#xac;" horiz-adv-x="1110" d="M51 852v20q0 46 16 62t62 16h670q114 0 165.5 -50.5t51.5 -164.5v-258q0 -51 -16.5 -67.5t-67.5 -16.5h-27q-51 0 -67.5 16.5t-16.5 67.5v230q0 36 -15.5 51.5t-51.5 15.5h-625q-46 0 -62 16t-16 62z" />
<glyph unicode="&#xad;" horiz-adv-x="819" d="M53 645v23q0 46 16 61.5t62 15.5h557q46 0 62 -15.5t16 -61.5v-23q0 -46 -16 -62t-62 -16h-557q-46 0 -62 16t-16 62z" />
<glyph unicode="&#xae;" horiz-adv-x="1722" d="M127 721q0 201 98 370t266.5 267t368.5 98q150 0 286.5 -58t234.5 -156t156 -234.5t58 -286.5q0 -200 -98 -368.5t-267 -266.5t-370 -98q-200 0 -368.5 98t-266.5 266.5t-98 368.5zM254 721q0 -123 48.5 -235t130 -193.5t193.5 -129.5t234 -48q165 0 305 81t221.5 221 t81.5 304q0 165 -81.5 305.5t-221.5 222.5t-305 82q-163 0 -303 -82t-221.5 -222.5t-81.5 -305.5zM575 395v504q0 118 54 171.5t172 53.5h98q141 0 213 -65t72 -185q0 -181 -156 -237l125 -244q24 -46 14.5 -61t-61.5 -15h-25q-52 0 -76.5 16t-46.5 62l-102 226h-104v-226 q0 -46 -16 -62t-62 -16h-21q-46 0 -62 16t-16 62zM752 770h135q64 0 90.5 22t26.5 76q0 53 -25 77t-86 24h-68q-38 0 -55.5 -18t-17.5 -56v-125z" />
<glyph unicode="&#xb0;" horiz-adv-x="821" d="M96 1204q0 133 91 223.5t225 90.5q132 0 222.5 -91t90.5 -223t-90.5 -222.5t-222.5 -90.5q-136 0 -226 88.5t-90 224.5zM250 1204q0 -70 46.5 -116t115.5 -46q64 0 111.5 47t47.5 115q0 70 -45 117t-114 47q-70 0 -116 -47t-46 -117z" />
<glyph unicode="&#xb1;" horiz-adv-x="1146" d="M104 119v20q0 46 16 62t62 16h295v350h-295q-46 0 -62 16t-16 62v23q0 46 16 61.5t62 15.5h295v289q0 51 16.5 67.5t67.5 16.5h25q51 0 67.5 -16.5t16.5 -67.5v-289h295q46 0 61.5 -15.5t15.5 -61.5v-23q0 -46 -15.5 -62t-61.5 -16h-295v-350h295q46 0 61.5 -16t15.5 -62 v-20q0 -46 -15.5 -62t-61.5 -16h-783q-46 0 -62 16t-16 62z" />
<glyph unicode="&#xb4;" horiz-adv-x="575" d="M133.5 1550.5q-8.5 14.5 11.5 55.5l64 133q22 46 46 61t75 15h51q51 0 59 -14.5t-20 -57.5l-90 -141q-25 -39 -49 -52.5t-70 -13.5h-23q-46 0 -54.5 14.5z" />
<glyph unicode="&#xb5;" horiz-adv-x="1126" d="M131 -317v1241q0 56 18.5 74t73.5 18h25q56 0 74 -18t18 -74v-562q0 -101 55 -143.5t183 -42.5q134 0 183.5 46.5t49.5 154.5v547q0 56 18.5 74t73.5 18h27q56 0 74 -18t18 -74v-547q0 -98 -32 -176t-87.5 -126t-127 -73t-152.5 -25q-198 0 -283 123v-417 q0 -56 -18.5 -74.5t-73.5 -18.5h-25q-55 0 -73.5 18.5t-18.5 74.5z" />
<glyph unicode="&#xb6;" horiz-adv-x="1175" d="M49 936q0 177 116.5 286t328.5 109h303q123 0 178 -55t55 -178v-1215q0 -43 -14.5 -57t-57.5 -14h-24q-43 0 -57.5 14t-14.5 57v1164q0 57 -25.5 82.5t-82.5 25.5h-136v-686q0 -222 -56.5 -372.5t-194.5 -270.5q-34 -28 -51.5 -24t-41.5 42l-14 23q-23 36 -20.5 53.5 t32.5 44.5q179 160 179 504v70q-176 0 -289 114t-113 283z" />
<glyph unicode="&#xb7;" horiz-adv-x="438" d="M86 657q0 56 39 95t94 39t94 -39t39 -95q0 -57 -38.5 -96t-94.5 -39t-94.5 39t-38.5 96z" />
<glyph unicode="&#xb8;" horiz-adv-x="499" d="M88 -326q0 30 10 38.5t39 4.5q28 -4 47 -4q46 0 66 13.5t20 50.5t-19.5 50t-64.5 13h-20q-34 0 -41 8.5t0 40.5l41 162h117l-31 -131q90 5 132 -27.5t42 -113.5q0 -96 -52.5 -139t-164.5 -43q-41 0 -74 8q-27 6 -37 17.5t-10 39.5v12z" />
<glyph unicode="&#xbb;" horiz-adv-x="1062" d="M117.5 103q-6.5 13 27.5 53l246 301q13 16 17 21.5t8 14.5t4 19q0 9 -4.5 19t-8 14.5t-16.5 21.5l-246 301q-34 40 -27.5 53t58.5 13h25q52 0 79.5 -13t61.5 -53l188 -229q34 -40 47 -67t13 -60t-12.5 -58.5t-47.5 -68.5l-188 -229q-34 -40 -61.5 -53t-79.5 -13h-25 q-52 0 -58.5 13zM531.5 103q-6.5 13 27.5 53l246 301q13 16 17 21.5t8 14.5t4 19q0 22 -29 55l-246 301q-34 40 -27.5 53t58.5 13h24q52 0 80 -13t62 -53l190 -229q33 -41 45.5 -67.5t12.5 -59.5t-12 -59t-46 -68l-190 -229q-34 -40 -62 -53t-80 -13h-24q-52 0 -58.5 13z " />
<glyph unicode="&#xbf;" horiz-adv-x="870" d="M96 57q0 65 14.5 119t36.5 91.5t59 72t69.5 56.5t80.5 48q68 38 98.5 68.5t45.5 62.5q19 39 35.5 49.5t62.5 10.5h23q48 0 68.5 -15.5t17.5 -52.5q-5 -82 -65.5 -148.5t-160.5 -131.5q-39 -24 -57 -36.5t-44.5 -35.5t-38.5 -42.5t-21 -49.5t-9 -66q0 -108 51.5 -149 t174.5 -41q74 0 155 18q51 12 68.5 -1.5t17.5 -65.5v-37q0 -52 -17.5 -70.5t-70.5 -27.5q-88 -15 -151 -15q-226 0 -334.5 89t-108.5 300zM477 903q0 57 38.5 96t94.5 39t94.5 -39t38.5 -96q0 -55 -38.5 -94t-94.5 -39t-94.5 39t-38.5 94z" />
<glyph unicode="&#xc0;" horiz-adv-x="1296" d="M66.5 18q-13.5 18 1.5 72l251 916q19 67 33.5 111.5t35 86.5t43 66.5t54 44t71.5 27.5t93 8t92.5 -8t71 -27.5t54 -43.5t42.5 -67t34.5 -86.5t33.5 -111.5l252 -916q15 -54 1 -72t-71 -18h-29q-57 0 -80 18t-38 72l-76 279h-576l-75 -279q-15 -54 -38.5 -72t-80.5 -18 h-29q-57 0 -70.5 18zM412 563h473l-121 447q-24 91 -45 119t-70 28q-50 0 -71.5 -28.5t-45.5 -118.5zM414 1702q8 14 59 14h51q51 0 75 -15t46 -61l64 -133q20 -41 11.5 -55t-54.5 -14h-23q-46 0 -70.5 13t-48.5 52l-90 142q-28 43 -20 57z" />
<glyph unicode="&#xc1;" horiz-adv-x="1296" d="M66.5 18q-13.5 18 1.5 72l251 916q19 67 33.5 111.5t35 86.5t43 66.5t54 44t71.5 27.5t93 8t92.5 -8t71 -27.5t54 -43.5t42.5 -67t34.5 -86.5t33.5 -111.5l252 -916q15 -54 1 -72t-71 -18h-29q-57 0 -80 18t-38 72l-76 279h-576l-75 -279q-15 -54 -38.5 -72t-80.5 -18 h-29q-57 0 -70.5 18zM412 563h473l-121 447q-24 91 -45 119t-70 28q-50 0 -71.5 -28.5t-45.5 -118.5zM568.5 1452q-8.5 14 11.5 55l63 133q22 46 46 61t75 15h51q51 0 59 -14t-20 -57l-90 -142q-24 -39 -48.5 -52t-70.5 -13h-22q-46 0 -54.5 14z" />
<glyph unicode="&#xc2;" horiz-adv-x="1296" d="M66.5 18q-13.5 18 1.5 72l251 916q19 67 33.5 111.5t35 86.5t43 66.5t54 44t71.5 27.5t93 8t92.5 -8t71 -27.5t54 -43.5t42.5 -67t34.5 -86.5t33.5 -111.5l252 -916q15 -54 1 -72t-71 -18h-29q-57 0 -80 18t-38 72l-76 279h-576l-75 -279q-15 -54 -38.5 -72t-80.5 -18 h-29q-57 0 -70.5 18zM397 1454q-6 12 17 47l78 123q34 53 66.5 71.5t90.5 18.5t91 -18.5t67 -71.5l80 -123q23 -35 16.5 -47t-49.5 -12h-23q-43 0 -64.5 12t-43.5 49l-31 49q-21 35 -43 35q-12 0 -21 -7t-22 -28l-31 -49q-22 -37 -43.5 -49t-64.5 -12h-21q-43 0 -49 12z M412 563h473l-121 447q-24 91 -45 119t-70 28q-50 0 -71.5 -28.5t-45.5 -118.5z" />
<glyph unicode="&#xc3;" horiz-adv-x="1296" d="M66.5 18q-13.5 18 1.5 72l251 916q19 67 33.5 111.5t35 86.5t43 66.5t54 44t71.5 27.5t93 8t92.5 -8t71 -27.5t54 -43.5t42.5 -67t34.5 -86.5t33.5 -111.5l252 -916q15 -54 1 -72t-71 -18h-29q-57 0 -80 18t-38 72l-76 279h-576l-75 -279q-15 -54 -38.5 -72t-80.5 -18 h-29q-57 0 -70.5 18zM309 1501q17 207 205 207q45 0 89.5 -18.5t73.5 -41t61.5 -41t56.5 -18.5q31 0 46 17t17 41q1 29 15 40t47 11h16q31 0 43.5 -10t11.5 -35q-7 -94 -55.5 -150.5t-147.5 -56.5q-46 0 -90.5 18.5t-73.5 41t-61.5 41t-56.5 18.5q-60 0 -66 -68 q-3 -25 -14.5 -33t-44.5 -8h-16q-35 0 -47 9t-9 36zM412 563h473l-121 447q-24 91 -45 119t-70 28q-50 0 -71.5 -28.5t-45.5 -118.5z" />
<glyph unicode="&#xc4;" horiz-adv-x="1296" d="M66.5 18q-13.5 18 1.5 72l251 916q19 67 33.5 111.5t35 86.5t43 66.5t54 44t71.5 27.5t93 8t92.5 -8t71 -27.5t54 -43.5t42.5 -67t34.5 -86.5t33.5 -111.5l252 -916q15 -54 1 -72t-71 -18h-29q-57 0 -80 18t-38 72l-76 279h-576l-75 -279q-15 -54 -38.5 -72t-80.5 -18 h-29q-57 0 -70.5 18zM352 1577q0 47 34 82t81 35q49 0 83 -34.5t34 -82.5t-34 -81.5t-83 -33.5q-47 0 -81 34t-34 81zM412 563h473l-121 447q-24 91 -45 119t-70 28q-50 0 -71.5 -28.5t-45.5 -118.5zM717 1577q0 47 35 82t82 35t80.5 -34.5t33.5 -82.5q0 -47 -34 -81 t-80 -34q-47 0 -82 34t-35 81z" />
<glyph unicode="&#xc5;" horiz-adv-x="1296" d="M66.5 18q-13.5 18 1.5 72l251 916q19 67 33.5 111.5t35 86.5t43 66.5t54 44t71.5 27.5t93 8t92.5 -8t71 -27.5t54 -43.5t42.5 -67t34.5 -86.5t33.5 -111.5l252 -916q15 -54 1 -72t-71 -18h-29q-57 0 -80 18t-38 72l-76 279h-576l-75 -279q-15 -54 -38.5 -72t-80.5 -18 h-29q-57 0 -70.5 18zM412 563h473l-121 447q-24 91 -45 119t-70 28q-50 0 -71.5 -28.5t-45.5 -118.5zM463 1577q0 87 53 136.5t131 49.5q80 0 134.5 -49.5t54.5 -136.5q0 -85 -54.5 -134.5t-134.5 -49.5q-77 0 -130.5 49.5t-53.5 134.5zM563 1577q0 -35 23.5 -58.5 t60.5 -23.5q39 0 62.5 23.5t23.5 58.5q0 37 -23.5 61.5t-62.5 24.5q-38 0 -61 -24.5t-23 -61.5z" />
<glyph unicode="&#xc6;" horiz-adv-x="1822" d="M67.5 18q-12.5 18 2.5 70l266 899q29 97 55.5 156t66 104.5t93.5 64.5t133 19h952q56 0 74.5 -18.5t18.5 -73.5v-18q0 -55 -18.5 -74t-74.5 -19h-520q-42 0 -61 -18t-19 -59v-263h518q56 0 74.5 -18.5t18.5 -73.5v-18q0 -55 -18.5 -73.5t-74.5 -18.5h-518v-305 q0 -41 19 -59.5t61 -18.5h520q56 0 74.5 -18.5t18.5 -73.5v-19q0 -55 -18.5 -73.5t-74.5 -18.5h-581q-123 0 -178.5 55t-55.5 178v136h-456l-82 -281q-15 -53 -38.5 -70.5t-78.5 -17.5h-31q-55 0 -67.5 18zM420 563h401v492q0 51 10 73h-161q-55 0 -79 -30t-48 -113z" />
<glyph unicode="&#xc7;" horiz-adv-x="1083" d="M109 489v328q0 259 135.5 396t414.5 137q152 0 259 -43q56 -23 71 -40t15 -67v-31q0 -55 -16.5 -70t-67.5 3q-120 47 -265 47q-171 0 -248 -81t-77 -251v-328q0 -73 16 -126.5t52.5 -96t103 -64.5t162.5 -22q157 0 264 43q34 13 58 -2.5t24 -64.5v-31q0 -48 -20 -69.5 t-64 -37.5q-92 -37 -234 -41l-12 -57q90 5 132 -27.5t42 -113.5q0 -96 -52.5 -139t-164.5 -43q-41 0 -74 8q-27 6 -37 17.5t-10 39.5v12q0 30 10 38.5t39 4.5q28 -4 47 -4q46 0 66 13.5t20 50.5t-19.5 50t-64.5 13h-20q-34 0 -41 8.5t0 40.5l22 93q-234 15 -350 138 t-116 369z" />
<glyph unicode="&#xc8;" horiz-adv-x="1150" d="M150 233v865q0 123 55 178t178 55h580q55 0 73.5 -18.5t18.5 -73.5v-18q0 -56 -18.5 -74.5t-73.5 -18.5h-519q-42 0 -60.5 -18t-18.5 -59v-263h516q55 0 73.5 -18t18.5 -74v-18q0 -56 -18.5 -74t-73.5 -18h-516v-305q0 -41 19 -59.5t60 -18.5h519q55 0 73.5 -18.5 t18.5 -73.5v-19q0 -56 -18.5 -74t-73.5 -18h-580q-123 0 -178 55t-55 178zM379 1702q8 14 59 14h51q51 0 75 -15t46 -61l64 -133q20 -41 11.5 -55t-54.5 -14h-23q-46 0 -70.5 13t-48.5 52l-90 142q-28 43 -20 57z" />
<glyph unicode="&#xc9;" horiz-adv-x="1150" d="M150 233v865q0 123 55 178t178 55h580q55 0 73.5 -18.5t18.5 -73.5v-18q0 -56 -18.5 -74.5t-73.5 -18.5h-519q-42 0 -60.5 -18t-18.5 -59v-263h516q55 0 73.5 -18t18.5 -74v-18q0 -56 -18.5 -74t-73.5 -18h-516v-305q0 -41 19 -59.5t60 -18.5h519q55 0 73.5 -18.5 t18.5 -73.5v-19q0 -56 -18.5 -74t-73.5 -18h-580q-123 0 -178 55t-55 178zM539.5 1452q-8.5 14 11.5 55l63 133q22 46 46 61t75 15h51q51 0 59 -14t-20 -57l-90 -142q-24 -39 -48.5 -52t-70.5 -13h-22q-46 0 -54.5 14z" />
<glyph unicode="&#xca;" horiz-adv-x="1150" d="M150 233v865q0 123 55 178t178 55h580q55 0 73.5 -18.5t18.5 -73.5v-18q0 -56 -18.5 -74.5t-73.5 -18.5h-519q-42 0 -60.5 -18t-18.5 -59v-263h516q55 0 73.5 -18t18.5 -74v-18q0 -56 -18.5 -74t-73.5 -18h-516v-305q0 -41 19 -59.5t60 -18.5h519q55 0 73.5 -18.5 t18.5 -73.5v-19q0 -56 -18.5 -74t-73.5 -18h-580q-123 0 -178 55t-55 178zM360.5 1454q-6.5 12 16.5 47l78 123q34 53 66.5 71.5t90.5 18.5t91 -18.5t67 -71.5l80 -123q23 -35 16.5 -47t-49.5 -12h-22q-43 0 -65 12.5t-44 48.5l-31 49q-21 35 -43 35q-12 0 -21 -7t-22 -28 l-30 -49q-22 -36 -44 -48.5t-65 -12.5h-20q-43 0 -49.5 12z" />
<glyph unicode="&#xcb;" horiz-adv-x="1150" d="M150 233v865q0 123 55 178t178 55h580q55 0 73.5 -18.5t18.5 -73.5v-18q0 -56 -18.5 -74.5t-73.5 -18.5h-519q-42 0 -60.5 -18t-18.5 -59v-263h516q55 0 73.5 -18t18.5 -74v-18q0 -56 -18.5 -74t-73.5 -18h-516v-305q0 -41 19 -59.5t60 -18.5h519q55 0 73.5 -18.5 t18.5 -73.5v-19q0 -56 -18.5 -74t-73.5 -18h-580q-123 0 -178 55t-55 178zM319 1577q0 47 34 82t81 35q49 0 83 -34.5t34 -82.5t-34 -81.5t-83 -33.5q-47 0 -81 34t-34 81zM684 1577q0 47 35 82t82 35t80.5 -34.5t33.5 -82.5q0 -47 -34 -81t-80 -34q-47 0 -82 34t-35 81z " />
<glyph unicode="&#xcc;" horiz-adv-x="542" d="M25 1702q8 14 59 14h51q51 0 75 -15t46 -61l63 -133q20 -41 11.5 -55t-54.5 -14h-22q-46 0 -70.5 13t-48.5 52l-90 142q-28 43 -20 57zM164 94v1143q0 57 18.5 75.5t75.5 18.5h27q57 0 75.5 -18.5t18.5 -75.5v-1143q0 -57 -18.5 -75.5t-75.5 -18.5h-27q-57 0 -75.5 18.5 t-18.5 75.5z" />
<glyph unicode="&#xcd;" horiz-adv-x="542" d="M164 94v1143q0 57 18.5 75.5t75.5 18.5h27q57 0 75.5 -18.5t18.5 -75.5v-1143q0 -57 -18.5 -75.5t-75.5 -18.5h-27q-57 0 -75.5 18.5t-18.5 75.5zM209.5 1452q-8.5 14 11.5 55l64 133q22 46 46 61t75 15h51q51 0 59 -14t-20 -57l-90 -142q-24 -39 -48.5 -52t-70.5 -13 h-23q-46 0 -54.5 14z" />
<glyph unicode="&#xce;" horiz-adv-x="542" d="M18.5 1454q-6.5 12 16.5 47l78 123q34 53 66.5 71.5t90.5 18.5t91 -18.5t67 -71.5l80 -123q23 -35 16.5 -47t-49.5 -12h-22q-43 0 -65 12.5t-44 48.5l-31 49q-21 35 -43 35q-12 0 -21 -7t-22 -28l-30 -49q-22 -36 -44 -48.5t-65 -12.5h-20q-43 0 -49.5 12zM164 94v1143 q0 57 18.5 75.5t75.5 18.5h27q57 0 75.5 -18.5t18.5 -75.5v-1143q0 -57 -18.5 -75.5t-75.5 -18.5h-27q-57 0 -75.5 18.5t-18.5 75.5z" />
<glyph unicode="&#xcf;" horiz-adv-x="542" d="M-27 1577q0 47 34 82t81 35q49 0 83 -34.5t34 -82.5t-34 -81.5t-83 -33.5q-47 0 -81 34t-34 81zM164 94v1143q0 57 18.5 75.5t75.5 18.5h27q57 0 75.5 -18.5t18.5 -75.5v-1143q0 -57 -18.5 -75.5t-75.5 -18.5h-27q-57 0 -75.5 18.5t-18.5 75.5zM338 1577q0 47 35 82 t82 35t80.5 -34.5t33.5 -82.5q0 -47 -34 -81t-80 -34q-47 0 -82 34t-35 81z" />
<glyph unicode="&#xd0;" horiz-adv-x="1290" d="M33 655v21q0 40 13.5 53.5t53.5 13.5h88v355q0 123 55.5 178t178.5 55h170q162 0 271 -24.5t185.5 -84.5t111 -161t34.5 -254v-283q0 -280 -143 -402t-459 -122h-170q-123 0 -178.5 55t-55.5 178v355h-88q-40 0 -53.5 13.5t-13.5 53.5zM403 281q0 -41 19 -59.5t61 -18.5 h109q151 0 232.5 31t115 98.5t33.5 191.5v283q0 123 -33 190.5t-115 99t-233 31.5h-109q-42 0 -61 -18t-19 -59v-308h121q40 0 54 -13.5t14 -53.5v-21q0 -40 -14 -53.5t-54 -13.5h-121v-307z" />
<glyph unicode="&#xd1;" horiz-adv-x="1351" d="M150 94v987q0 149 57.5 210t183.5 61q109 0 162.5 -47t87.5 -170l258 -916q10 -35 21.5 -46t31.5 -11q23 0 32 15t9 52v1008q0 57 18.5 75.5t75.5 18.5h21q57 0 75.5 -18.5t18.5 -75.5v-987q0 -150 -55.5 -210t-177.5 -60q-113 0 -168.5 50t-91.5 177l-254 895 q-11 40 -22 53.5t-34 13.5t-32 -15.5t-9 -55.5v-1004q0 -57 -18.5 -75.5t-75.5 -18.5h-20q-57 0 -75.5 18.5t-18.5 75.5zM334 1501q17 207 205 207q45 0 89.5 -18.5t73 -41t61 -41t56.5 -18.5q31 0 46.5 17t17.5 41q1 29 14.5 40t46.5 11h17q31 0 43.5 -10t11.5 -35 q-7 -94 -55.5 -150.5t-147.5 -56.5q-46 0 -90.5 18.5t-74 41t-62 41t-56.5 18.5q-59 0 -65 -68q-3 -25 -14.5 -33t-44.5 -8h-17q-35 0 -46.5 9t-8.5 36z" />
<glyph unicode="&#xd2;" d="M109 516v293q0 102 15 181t52.5 148.5t98 115t155 71t221.5 25.5t222 -25.5t156 -71t98 -115t52 -148.5t15 -181v-293q0 -102 -15 -181.5t-52.5 -148.5t-98.5 -114.5t-155.5 -71t-221.5 -25.5t-222 25.5t-155.5 71t-98 115t-52 148.5t-14.5 181zM326 516q0 -88 12.5 -146 t47 -104t99.5 -67t166 -21t166 21t100 67t47.5 104t12.5 146v293q0 89 -12.5 147t-47.5 104t-100 66.5t-166 20.5t-166 -20.5t-99.5 -66.5t-47 -104t-12.5 -147v-293zM418 1702q8 14 59 14h51q51 0 75 -15t46 -61l64 -133q20 -41 11.5 -55t-54.5 -14h-23q-46 0 -70.5 13 t-48.5 52l-90 142q-28 43 -20 57z" />
<glyph unicode="&#xd3;" d="M109 516v293q0 102 15 181t52.5 148.5t98 115t155 71t221.5 25.5t222 -25.5t156 -71t98 -115t52 -148.5t15 -181v-293q0 -102 -15 -181.5t-52.5 -148.5t-98.5 -114.5t-155.5 -71t-221.5 -25.5t-222 25.5t-155.5 71t-98 115t-52 148.5t-14.5 181zM326 516q0 -88 12.5 -146 t47 -104t99.5 -67t166 -21t166 21t100 67t47.5 104t12.5 146v293q0 89 -12.5 147t-47.5 104t-100 66.5t-166 20.5t-166 -20.5t-99.5 -66.5t-47 -104t-12.5 -147v-293zM547.5 1452q-8.5 14 11.5 55l64 133q22 46 45.5 61t74.5 15h52q51 0 59 -14t-20 -57l-91 -142 q-25 -39 -48.5 -52t-69.5 -13h-23q-46 0 -54.5 14z" />
<glyph unicode="&#xd4;" d="M109 516v293q0 102 15 181t52.5 148.5t98 115t155 71t221.5 25.5t222 -25.5t156 -71t98 -115t52 -148.5t15 -181v-293q0 -102 -15 -181.5t-52.5 -148.5t-98.5 -114.5t-155.5 -71t-221.5 -25.5t-222 25.5t-155.5 71t-98 115t-52 148.5t-14.5 181zM326 516q0 -88 12.5 -146 t47 -104t99.5 -67t166 -21t166 21t100 67t47.5 104t12.5 146v293q0 89 -12.5 147t-47.5 104t-100 66.5t-166 20.5t-166 -20.5t-99.5 -66.5t-47 -104t-12.5 -147v-293zM399.5 1454q-6.5 12 16.5 47l78 123q34 53 66.5 71.5t90.5 18.5t91 -18.5t67 -71.5l80 -123 q23 -35 16.5 -47t-49.5 -12h-22q-43 0 -65 12.5t-44 48.5l-31 49q-21 35 -43 35q-12 0 -21 -7t-22 -28l-30 -49q-22 -36 -44 -48.5t-65 -12.5h-20q-43 0 -49.5 12z" />
<glyph unicode="&#xd5;" d="M109 516v293q0 102 15 181t52.5 148.5t98 115t155 71t221.5 25.5t222 -25.5t156 -71t98 -115t52 -148.5t15 -181v-293q0 -102 -15 -181.5t-52.5 -148.5t-98.5 -114.5t-155.5 -71t-221.5 -25.5t-222 25.5t-155.5 71t-98 115t-52 148.5t-14.5 181zM311 1501q17 207 205 207 q45 0 89.5 -18.5t73.5 -41t61.5 -41t56.5 -18.5q31 0 46 17t17 41q1 29 15 40t47 11h16q31 0 43.5 -10t11.5 -35q-7 -94 -55 -150.5t-147 -56.5q-46 0 -90.5 18.5t-74 41t-62 41t-56.5 18.5q-60 0 -66 -68q-3 -25 -14.5 -33t-44.5 -8h-16q-35 0 -47 9t-9 36zM326 516 q0 -88 12.5 -146t47 -104t99.5 -67t166 -21t166 21t100 67t47.5 104t12.5 146v293q0 89 -12.5 147t-47.5 104t-100 66.5t-166 20.5t-166 -20.5t-99.5 -66.5t-47 -104t-12.5 -147v-293z" />
<glyph unicode="&#xd6;" d="M109 516v293q0 102 15 181t52.5 148.5t98 115t155 71t221.5 25.5t222 -25.5t156 -71t98 -115t52 -148.5t15 -181v-293q0 -102 -15 -181.5t-52.5 -148.5t-98.5 -114.5t-155.5 -71t-221.5 -25.5t-222 25.5t-155.5 71t-98 115t-52 148.5t-14.5 181zM326 516q0 -88 12.5 -146 t47 -104t99.5 -67t166 -21t166 21t100 67t47.5 104t12.5 146v293q0 89 -12.5 147t-47.5 104t-100 66.5t-166 20.5t-166 -20.5t-99.5 -66.5t-47 -104t-12.5 -147v-293zM354 1577q0 47 34 82t81 35q49 0 83 -34.5t34 -82.5t-34 -81.5t-83 -33.5q-47 0 -81 34t-34 81zM719 1577 q0 47 35 82t82 35t80.5 -34.5t33.5 -82.5q0 -47 -34 -81t-80 -34q-47 0 -82 34t-35 81z" />
<glyph unicode="&#xd7;" horiz-adv-x="1126" d="M132 338q0 21 34 55l270 273l-270 272q-34 34 -34 55.5t34 55.5l14 14q34 34 55.5 34t55.5 -34l272 -270l273 270q34 34 55 34t55 -34l15 -14q34 -34 34 -55.5t-34 -55.5l-271 -272l271 -273q34 -34 34 -55t-34 -55l-15 -15q-34 -34 -55 -34t-55 34l-273 271l-272 -271 q-34 -34 -55.5 -34t-55.5 34l-14 15q-34 34 -34 55z" />
<glyph unicode="&#xd8;" d="M109 516v293q0 102 15 181t52.5 148.5t98 115t155 71t221.5 25.5q169 0 275 -47l35 61q22 37 41.5 42.5t56.5 -15.5l18 -11q37 -22 42 -40.5t-17 -55.5l-37 -63q129 -126 129 -412v-293q0 -102 -15 -181.5t-52.5 -148.5t-98.5 -114.5t-155.5 -71t-221.5 -25.5 q-164 0 -276 45l-33 -57q-22 -37 -41.5 -42.5t-56.5 16.5l-19 10q-37 22 -42 40.5t16 55.5l37 63q-127 122 -127 410zM326 516q0 -153 41 -219l471 819q-70 31 -187 31q-101 0 -166 -20.5t-99.5 -66.5t-47 -104t-12.5 -147v-293zM459 211q67 -33 192 -33q101 0 166 21 t100 67t47.5 104t12.5 146v293q0 154 -43 223z" />
<glyph unicode="&#xd9;" horiz-adv-x="1294" d="M129 444v793q0 57 18.5 75.5t75.5 18.5h27q57 0 75.5 -18.5t18.5 -75.5v-793q0 -143 76.5 -203.5t226.5 -60.5t226.5 60.5t76.5 203.5v793q0 57 18.5 75.5t75.5 18.5h29q57 0 75.5 -18.5t18.5 -75.5v-793q0 -124 -37.5 -215t-108 -145.5t-163.5 -80.5t-211 -26t-211 26 t-163 80.5t-107 145.5t-37 215zM400 1702q8 14 59 14h51q51 0 75 -15t46 -61l63 -133q20 -41 11.5 -55t-54.5 -14h-22q-46 0 -70.5 13t-48.5 52l-90 142q-28 43 -20 57z" />
<glyph unicode="&#xda;" horiz-adv-x="1294" d="M129 444v793q0 57 18.5 75.5t75.5 18.5h27q57 0 75.5 -18.5t18.5 -75.5v-793q0 -143 76.5 -203.5t226.5 -60.5t226.5 60.5t76.5 203.5v793q0 57 18.5 75.5t75.5 18.5h29q57 0 75.5 -18.5t18.5 -75.5v-793q0 -124 -37.5 -215t-108 -145.5t-163.5 -80.5t-211 -26t-211 26 t-163 80.5t-107 145.5t-37 215zM578.5 1452q-8.5 14 11.5 55l63 133q22 46 46 61t75 15h51q51 0 59 -14t-20 -57l-90 -142q-24 -39 -48.5 -52t-70.5 -13h-22q-46 0 -54.5 14z" />
<glyph unicode="&#xdb;" horiz-adv-x="1294" d="M129 444v793q0 57 18.5 75.5t75.5 18.5h27q57 0 75.5 -18.5t18.5 -75.5v-793q0 -143 76.5 -203.5t226.5 -60.5t226.5 60.5t76.5 203.5v793q0 57 18.5 75.5t75.5 18.5h29q57 0 75.5 -18.5t18.5 -75.5v-793q0 -124 -37.5 -215t-108 -145.5t-163.5 -80.5t-211 -26t-211 26 t-163 80.5t-107 145.5t-37 215zM395 1454q-6 12 17 47l77 123q34 53 67 71.5t91 18.5t91 -18.5t67 -71.5l80 -123q23 -35 16.5 -47t-49.5 -12h-23q-43 0 -64.5 12t-43.5 49l-31 49q-21 35 -43 35q-12 0 -21 -7t-22 -28l-31 -49q-22 -37 -43.5 -49t-64.5 -12h-21 q-43 0 -49 12z" />
<glyph unicode="&#xdc;" horiz-adv-x="1294" d="M129 444v793q0 57 18.5 75.5t75.5 18.5h27q57 0 75.5 -18.5t18.5 -75.5v-793q0 -143 76.5 -203.5t226.5 -60.5t226.5 60.5t76.5 203.5v793q0 57 18.5 75.5t75.5 18.5h29q57 0 75.5 -18.5t18.5 -75.5v-793q0 -124 -37.5 -215t-108 -145.5t-163.5 -80.5t-211 -26t-211 26 t-163 80.5t-107 145.5t-37 215zM350 1577q0 47 34 82t81 35q49 0 83 -34.5t34 -82.5t-34 -81.5t-83 -33.5q-47 0 -81 34t-34 81zM715 1577q0 47 34.5 82t81.5 35t81 -35t34 -82t-34.5 -81t-80.5 -34q-47 0 -81.5 34t-34.5 81z" />
<glyph unicode="&#xdd;" horiz-adv-x="1294" d="M60 1312.5q11 18.5 75 18.5h29q65 0 95 -18.5t58 -75.5l193 -379q48 -94 71.5 -119.5t65.5 -25.5q40 0 63.5 25.5t71.5 119.5l193 379q29 57 59.5 75.5t95.5 18.5h29q64 0 75 -18.5t-20 -75.5l-276 -510q-57 -105 -89.5 -140t-92.5 -55v-438q0 -57 -18.5 -75.5 t-75.5 -18.5h-29q-57 0 -75.5 18.5t-18.5 75.5v438q-61 21 -95 56t-90 139l-274 510q-31 57 -20 75.5zM586.5 1452q-8.5 14 11.5 55l64 133q22 46 45.5 61t74.5 15h52q51 0 58.5 -14t-20.5 -57l-90 -142q-25 -39 -48.5 -52t-69.5 -13h-23q-46 0 -54.5 14z" />
<glyph unicode="&#xde;" horiz-adv-x="1210" d="M150 94v1125q0 57 18.5 75.5t75.5 18.5h26q57 0 76 -18.5t19 -75.5v-119h315q239 0 348 -107.5t109 -320.5t-109 -320.5t-348 -107.5h-315v-150q0 -57 -19 -75.5t-76 -18.5h-26q-57 0 -75.5 18.5t-18.5 75.5zM365 446h315q134 0 188 50t54 176q0 123 -55 174t-187 51 h-315v-451z" />
<glyph unicode="&#xdf;" horiz-adv-x="1134" d="M123 94v809q0 241 108.5 344t329.5 103q199 0 291 -83t92 -243q0 -55 -19 -100t-47 -72t-61 -52t-61 -41t-47 -36.5t-19 -42.5t25.5 -42t64 -36t83.5 -41.5t83.5 -55t64 -80.5t25.5 -114q0 -177 -105.5 -255.5t-330.5 -78.5q-31 0 -72 5q-52 6 -69 24.5t-17 71.5v43 q0 51 16 62.5t68 2.5q30 -6 78 -6q123 0 169 27.5t46 93.5q0 35 -19 61.5t-49 44t-66.5 33.5t-73 35.5t-66.5 44.5t-49 66.5t-19 95.5q0 55 25.5 98.5t62.5 72t74 54t62.5 56.5t25.5 67q0 58 -39 89.5t-133 31.5q-121 0 -169 -54t-48 -186v-817q0 -57 -18.5 -75.5 t-75.5 -18.5h-27q-57 0 -75.5 18.5t-18.5 75.5z" />
<glyph unicode="&#xe0;" horiz-adv-x="1003" d="M61 293q0 84 29 144.5t84.5 96t130.5 52t174 16.5h226v100q0 89 -61 122.5t-181 33.5q-123 0 -215 -18q-45 -9 -60.5 5t-15.5 60v29q0 45 15.5 62.5t58.5 25.5q94 16 205 16q108 0 189.5 -17t144.5 -55t95.5 -104t32.5 -160v-397q0 -169 -104.5 -248.5t-331.5 -79.5 q-416 0 -416 316zM272 297q0 -44 16 -73t46.5 -43t62.5 -19.5t76 -5.5t75.5 3t63 13t50.5 27t31 46t12 70v127h-226q-106 0 -156.5 -34t-50.5 -111zM316 1409q8 14 59 14h51q51 0 75 -15t46 -60l63 -134q20 -41 11.5 -55t-54.5 -14h-22q-46 0 -70.5 13t-48.5 52l-90 142 q-28 43 -20 57z" />
<glyph unicode="&#xe1;" horiz-adv-x="1003" d="M61 293q0 84 29 144.5t84.5 96t130.5 52t174 16.5h226v100q0 89 -61 122.5t-181 33.5q-123 0 -215 -18q-45 -9 -60.5 5t-15.5 60v29q0 45 15.5 62.5t58.5 25.5q94 16 205 16q108 0 189.5 -17t144.5 -55t95.5 -104t32.5 -160v-397q0 -169 -104.5 -248.5t-331.5 -79.5 q-416 0 -416 316zM272 297q0 -44 16 -73t46.5 -43t62.5 -19.5t76 -5.5t75.5 3t63 13t50.5 27t31 46t12 70v127h-226q-106 0 -156.5 -34t-50.5 -111zM422.5 1159q-8.5 14 11.5 55l64 134q22 46 45.5 60.5t74.5 14.5h52q51 0 59 -14t-20 -57l-91 -142q-25 -39 -48.5 -52 t-69.5 -13h-23q-46 0 -54.5 14z" />
<glyph unicode="&#xe2;" horiz-adv-x="1003" d="M61 293q0 84 29 144.5t84.5 96t130.5 52t174 16.5h226v100q0 89 -61 122.5t-181 33.5q-123 0 -215 -18q-45 -9 -60.5 5t-15.5 60v29q0 45 15.5 62.5t58.5 25.5q94 16 205 16q108 0 189.5 -17t144.5 -55t95.5 -104t32.5 -160v-397q0 -169 -104.5 -248.5t-331.5 -79.5 q-416 0 -416 316zM245.5 1161q-6.5 12 16.5 47l78 123q34 53 67 71.5t91 18.5t90.5 -18.5t66.5 -71.5l80 -123q23 -35 16.5 -47t-49.5 -12h-22q-43 0 -65 12.5t-44 48.5l-30 50q-20 34 -43 34q-13 0 -21.5 -6.5t-21.5 -27.5l-31 -50q-22 -36 -44 -48.5t-65 -12.5h-20 q-43 0 -49.5 12zM272 297q0 -44 16 -73t46.5 -43t62.5 -19.5t76 -5.5t75.5 3t63 13t50.5 27t31 46t12 70v127h-226q-106 0 -156.5 -34t-50.5 -111z" />
<glyph unicode="&#xe3;" horiz-adv-x="1003" d="M61 293q0 84 29 144.5t84.5 96t130.5 52t174 16.5h226v100q0 89 -61 122.5t-181 33.5q-123 0 -215 -18q-45 -9 -60.5 5t-15.5 60v29q0 45 15.5 62.5t58.5 25.5q94 16 205 16q108 0 189.5 -17t144.5 -55t95.5 -104t32.5 -160v-397q0 -169 -104.5 -248.5t-331.5 -79.5 q-416 0 -416 316zM158 1208q17 207 204 207q45 0 89.5 -18.5t73.5 -41t61.5 -41t56.5 -18.5q31 0 46.5 17t17.5 41q1 29 14.5 40t46.5 11h16q31 0 44 -10.5t12 -34.5q-7 -94 -55.5 -150.5t-147.5 -56.5q-46 0 -90.5 18.5t-74 41t-62 41t-56.5 18.5q-59 0 -65 -68 q-3 -25 -14.5 -33t-45.5 -8h-16q-35 0 -46.5 9t-8.5 36zM272 297q0 -44 16 -73t46.5 -43t62.5 -19.5t76 -5.5t75.5 3t63 13t50.5 27t31 46t12 70v127h-226q-106 0 -156.5 -34t-50.5 -111z" />
<glyph unicode="&#xe4;" horiz-adv-x="1003" d="M61 293q0 84 29 144.5t84.5 96t130.5 52t174 16.5h226v100q0 89 -61 122.5t-181 33.5q-123 0 -215 -18q-45 -9 -60.5 5t-15.5 60v29q0 45 15.5 62.5t58.5 25.5q94 16 205 16q108 0 189.5 -17t144.5 -55t95.5 -104t32.5 -160v-397q0 -169 -104.5 -248.5t-331.5 -79.5 q-416 0 -416 316zM213 1284q0 47 34 82t81 35q49 0 82.5 -34.5t33.5 -82.5t-33.5 -81.5t-82.5 -33.5q-47 0 -81 34t-34 81zM272 297q0 -44 16 -73t46.5 -43t62.5 -19.5t76 -5.5t75.5 3t63 13t50.5 27t31 46t12 70v127h-226q-106 0 -156.5 -34t-50.5 -111zM578 1284 q0 47 34.5 82t81.5 35t81 -35t34 -82t-34.5 -81t-80.5 -34q-47 0 -81.5 34t-34.5 81z" />
<glyph unicode="&#xe5;" horiz-adv-x="1003" d="M61 293q0 84 29 144.5t84.5 96t130.5 52t174 16.5h226v100q0 89 -61 122.5t-181 33.5q-123 0 -215 -18q-45 -9 -60.5 5t-15.5 60v29q0 45 15.5 62.5t58.5 25.5q94 16 205 16q108 0 189.5 -17t144.5 -55t95.5 -104t32.5 -160v-397q0 -169 -104.5 -248.5t-331.5 -79.5 q-416 0 -416 316zM272 297q0 -44 16 -73t46.5 -43t62.5 -19.5t76 -5.5t75.5 3t63 13t50.5 27t31 46t12 70v127h-226q-106 0 -156.5 -34t-50.5 -111zM309 1284q0 87 53.5 136.5t131.5 49.5q80 0 134 -49.5t54 -136.5q0 -85 -54 -134.5t-134 -49.5q-77 0 -131 50t-54 134z M410 1284q0 -35 23.5 -58.5t60.5 -23.5q39 0 62.5 23.5t23.5 58.5q0 37 -23.5 61.5t-62.5 24.5q-38 0 -61 -24.5t-23 -61.5z" />
<glyph unicode="&#xe6;" horiz-adv-x="1656" d="M61 293q0 84 29 144.5t84.5 96t130.5 52t174 16.5h226v100q0 89 -61 122.5t-181 33.5q-117 0 -207 -16q-47 -8 -65.5 6t-18.5 59v29q0 45 17.5 62.5t64.5 25.5q86 14 197 14q141 0 240.5 -39.5t121.5 -124.5h8q22 75 112.5 119.5t217.5 44.5q213 0 323.5 -107t110.5 -317 q0 -28 -4 -90q-4 -55 -25 -74.5t-77 -19.5h-572v-45q0 -112 68.5 -160.5t224.5 -48.5q113 0 268 33q51 10 67.5 -4.5t16.5 -67.5v-26q0 -51 -16 -69t-68 -32q-125 -33 -268 -33t-246.5 40.5t-128.5 121.5h-8q-13 -81 -105 -121.5t-235 -40.5q-416 0 -416 316zM272 297 q0 -44 16 -73t46.5 -43t62.5 -19.5t76 -5.5t75.5 3t63 13t50.5 27t31 46t12 70v127h-226q-106 0 -156.5 -34t-50.5 -111zM907 602h479v51q0 203 -241 203q-238 0 -238 -203v-51z" />
<glyph unicode="&#xe7;" horiz-adv-x="878" d="M90 408v200q0 200 118.5 315t354.5 115q78 0 160 -20q51 -12 66.5 -31.5t15.5 -71.5v-26q0 -53 -18 -68t-68 0q-66 21 -152 21q-148 0 -207 -54.5t-59 -181.5v-192q0 -132 65 -185t216 -53q27 0 54 2.5t40.5 4.5t36.5 6.5t26 5.5q51 9 67.5 -4.5t16.5 -65.5v-25 q0 -51 -17 -70.5t-69 -31.5q-78 -19 -155 -21l-13 -57q90 5 132 -27.5t42 -113.5q0 -96 -52.5 -139t-164.5 -43q-40 0 -73 8q-27 6 -37 17.5t-10 39.5v12q0 30 10 38.5t39 4.5q28 -4 47 -4q46 0 66 13.5t20 50.5t-19.5 50t-64.5 13h-21q-34 0 -41 8.5t0 40.5l25 95 q-193 22 -285 127t-92 297z" />
<glyph unicode="&#xe8;" horiz-adv-x="1050" d="M90 416v178q0 444 455 444q213 0 323.5 -107t110.5 -317q0 -44 -4 -90q-6 -57 -27 -75.5t-78 -18.5h-569v-45q0 -112 68.5 -160.5t224.5 -48.5q122 0 266 33q50 12 67 -3.5t17 -68.5v-26q0 -51 -16 -69t-68 -32q-126 -33 -266 -33q-259 0 -381.5 103.5t-122.5 335.5z M301 602h479v51q0 203 -241 203q-238 0 -238 -203v-51zM314 1409q8 14 59 14h51q51 0 75 -15t46 -60l63 -134q20 -41 11.5 -55t-54.5 -14h-22q-46 0 -70.5 13t-48.5 52l-90 142q-28 43 -20 57z" />
<glyph unicode="&#xe9;" horiz-adv-x="1050" d="M90 416v178q0 444 455 444q213 0 323.5 -107t110.5 -317q0 -44 -4 -90q-6 -57 -27 -75.5t-78 -18.5h-569v-45q0 -112 68.5 -160.5t224.5 -48.5q122 0 266 33q50 12 67 -3.5t17 -68.5v-26q0 -51 -16 -69t-68 -32q-126 -33 -266 -33q-259 0 -381.5 103.5t-122.5 335.5z M301 602h479v51q0 203 -241 203q-238 0 -238 -203v-51zM424.5 1159q-8.5 14 11.5 55l64 134q22 45 46 60t75 15h51q51 0 59 -14t-20 -57l-90 -142q-24 -39 -48.5 -52t-70.5 -13h-23q-46 0 -54.5 14z" />
<glyph unicode="&#xea;" horiz-adv-x="1050" d="M90 416v178q0 444 455 444q213 0 323.5 -107t110.5 -317q0 -44 -4 -90q-6 -57 -27 -75.5t-78 -18.5h-569v-45q0 -112 68.5 -160.5t224.5 -48.5q122 0 266 33q50 12 67 -3.5t17 -68.5v-26q0 -51 -16 -69t-68 -32q-126 -33 -266 -33q-259 0 -381.5 103.5t-122.5 335.5z M257.5 1161q-6.5 12 16.5 47l78 123q34 53 67 71.5t91 18.5t91 -18.5t67 -71.5l80 -123q23 -35 16.5 -47t-49.5 -12h-23q-43 0 -64.5 12t-43.5 49l-31 50q-20 34 -43 34q-13 0 -21.5 -6.5t-21.5 -27.5l-31 -50q-22 -37 -43.5 -49t-64.5 -12h-21q-43 0 -49.5 12zM301 602h479 v51q0 203 -241 203q-238 0 -238 -203v-51z" />
<glyph unicode="&#xeb;" horiz-adv-x="1050" d="M90 416v178q0 444 455 444q213 0 323.5 -107t110.5 -317q0 -44 -4 -90q-6 -57 -27 -75.5t-78 -18.5h-569v-45q0 -112 68.5 -160.5t224.5 -48.5q122 0 266 33q50 12 67 -3.5t17 -68.5v-26q0 -51 -16 -69t-68 -32q-126 -33 -266 -33q-259 0 -381.5 103.5t-122.5 335.5z M215 1284q0 47 34 82t81 35q49 0 82.5 -34.5t33.5 -82.5t-33.5 -81.5t-82.5 -33.5q-47 0 -81 34t-34 81zM301 602h479v51q0 203 -241 203q-238 0 -238 -203v-51zM580 1284q0 47 34.5 82t81.5 35t81 -35t34 -82t-34.5 -81t-80.5 -34q-47 0 -81.5 34t-34.5 81z" />
<glyph unicode="&#xec;" horiz-adv-x="477" d="M15 1409q8 14 59 14h51q51 0 75 -15t46 -60l63 -134q20 -41 11.5 -55t-54.5 -14h-22q-46 0 -70.5 13t-48.5 52l-90 142q-28 43 -20 57zM133 92v832q0 56 18.5 74t73.5 18h27q56 0 74 -18t18 -74v-832q0 -56 -18 -74t-74 -18h-27q-55 0 -73.5 18t-18.5 74z" />
<glyph unicode="&#xed;" horiz-adv-x="477" d="M133 92v832q0 56 18.5 74t73.5 18h27q56 0 74 -18t18 -74v-832q0 -56 -18 -74t-74 -18h-27q-55 0 -73.5 18t-18.5 74zM150.5 1159q-8.5 14 11.5 55l63 134q22 45 46 60t75 15h51q51 0 59 -14t-20 -57l-90 -142q-24 -39 -48.5 -52t-70.5 -13h-22q-46 0 -54.5 14z" />
<glyph unicode="&#xee;" horiz-adv-x="477" d="M-14.5 1161q-6.5 12 16.5 47l78 123q34 53 67 71.5t91 18.5t90.5 -18.5t66.5 -71.5l80 -123q23 -35 16.5 -47t-49.5 -12h-22q-43 0 -65 12.5t-44 48.5l-30 50q-20 34 -43 34q-13 0 -21.5 -6.5t-21.5 -27.5l-31 -50q-22 -36 -44 -48.5t-65 -12.5h-20q-43 0 -49.5 12z M133 92v832q0 56 18.5 74t73.5 18h27q56 0 74 -18t18 -74v-832q0 -56 -18 -74t-74 -18h-27q-55 0 -73.5 18t-18.5 74z" />
<glyph unicode="&#xef;" horiz-adv-x="477" d="M-59 1284q0 48 33.5 82.5t80.5 34.5q49 0 83 -34.5t34 -82.5t-34 -81.5t-83 -33.5q-47 0 -80.5 34t-33.5 81zM133 92v832q0 56 18.5 74t73.5 18h27q56 0 74 -18t18 -74v-832q0 -56 -18 -74t-74 -18h-27q-55 0 -73.5 18t-18.5 74zM305 1284q0 47 35 82t82 35t81 -35 t34 -82t-34.5 -81t-80.5 -34q-47 0 -82 34t-35 81z" />
<glyph unicode="&#xf0;" horiz-adv-x="1124" d="M86 410q0 218 109 316.5t337 98.5q141 0 263 -43q-9 134 -48.5 221.5t-121.5 151.5l-156 -156q-26 -26 -43 -26t-43 26l-12 13q-26 26 -26 42.5t26 41.5l135 135q-25 12 -52 21.5t-50.5 15.5t-40.5 9.5t-33.5 6t-18.5 2.5q-52 11 -64.5 30.5t1.5 69.5l8 27 q14 47 33.5 57.5t66.5 2.5q50 -7 136.5 -32t158.5 -63l94 95q26 25 43 24t43 -27l13 -12q26 -25 26 -41t-26 -41l-76 -76q128 -106 189 -257.5t61 -389.5q0 -121 -9 -212t-30.5 -169.5t-59 -131.5t-93.5 -90.5t-133.5 -55t-180.5 -17.5q-426 0 -426 433zM303 408 q0 -121 51 -174.5t162 -53.5q72 0 119 12.5t79.5 38.5t49.5 76t24 115t7 166q-110 49 -258 49q-119 0 -176.5 -48.5t-57.5 -180.5z" />
<glyph unicode="&#xf1;" horiz-adv-x="1112" d="M111 92v549q0 193 110 295t336 102q233 0 338.5 -99.5t105.5 -297.5v-549q0 -56 -18.5 -74t-73.5 -18h-26q-55 0 -73.5 18t-18.5 74v549q0 52 -9.5 86.5t-34.5 62t-71.5 40t-118.5 12.5q-94 0 -146.5 -24.5t-70.5 -66t-18 -110.5v-549q0 -55 -18.5 -73.5t-74.5 -18.5h-26 q-55 0 -73.5 18t-18.5 74zM217 1208q17 207 205 207q45 0 89.5 -18.5t73 -41t61 -41t56.5 -18.5q31 0 46.5 17t17.5 41q1 29 14.5 40t46.5 11h17q31 0 43.5 -10t11.5 -35q-7 -94 -55.5 -150.5t-147.5 -56.5q-46 0 -90.5 18.5t-73.5 41t-61.5 41t-56.5 18.5q-60 0 -66 -68 q-3 -25 -14.5 -33t-44.5 -8h-17q-35 0 -46.5 9t-8.5 36z" />
<glyph unicode="&#xf2;" horiz-adv-x="1118" d="M90 420v176q0 215 117 328.5t354 113.5q244 0 355.5 -110.5t111.5 -331.5v-176q0 -214 -116 -328.5t-351 -114.5q-245 0 -358 111t-113 332zM301 420q0 -128 54.5 -186t205.5 -58q77 0 128 15t78.5 47.5t38.5 75t11 106.5v176q0 129 -53.5 187.5t-202.5 58.5 q-78 0 -129.5 -15.5t-80 -48t-39.5 -75.5t-11 -107v-176zM330 1409q8 14 59 14h51q51 0 75 -15t46 -60l64 -134q20 -41 11.5 -55t-54.5 -14h-23q-46 0 -70.5 13t-48.5 52l-90 142q-28 43 -20 57z" />
<glyph unicode="&#xf3;" horiz-adv-x="1118" d="M90 420v176q0 215 117 328.5t354 113.5q244 0 355.5 -110.5t111.5 -331.5v-176q0 -214 -116 -328.5t-351 -114.5q-245 0 -358 111t-113 332zM301 420q0 -128 54.5 -186t205.5 -58q77 0 128 15t78.5 47.5t38.5 75t11 106.5v176q0 129 -53.5 187.5t-202.5 58.5 q-78 0 -129.5 -15.5t-80 -48t-39.5 -75.5t-11 -107v-176zM488.5 1159q-8.5 14 11.5 55l63 134q22 45 46 60t75 15h51q51 0 59 -14t-20 -57l-90 -142q-24 -39 -48.5 -52t-70.5 -13h-22q-46 0 -54.5 14z" />
<glyph unicode="&#xf4;" horiz-adv-x="1118" d="M90 420v176q0 215 117 328.5t354 113.5q244 0 355.5 -110.5t111.5 -331.5v-176q0 -214 -116 -328.5t-351 -114.5q-245 0 -358 111t-113 332zM301 420q0 -128 54.5 -186t205.5 -58q77 0 128 15t78.5 47.5t38.5 75t11 106.5v176q0 129 -53.5 187.5t-202.5 58.5 q-78 0 -129.5 -15.5t-80 -48t-39.5 -75.5t-11 -107v-176zM307 1161q-6 12 17 47l77 123q34 53 67 71.5t91 18.5t91 -18.5t67 -71.5l80 -123q23 -35 16.5 -47t-49.5 -12h-23q-43 0 -64.5 12t-43.5 49l-31 50q-20 34 -43 34q-13 0 -21.5 -6.5t-21.5 -27.5l-31 -50 q-22 -37 -43.5 -49t-64.5 -12h-21q-43 0 -49 12z" />
<glyph unicode="&#xf5;" horiz-adv-x="1118" d="M90 420v176q0 215 117 328.5t354 113.5q244 0 355.5 -110.5t111.5 -331.5v-176q0 -214 -116 -328.5t-351 -114.5q-245 0 -358 111t-113 332zM221 1208q17 207 205 207q45 0 89.5 -18.5t73.5 -41t61.5 -41t56.5 -18.5q31 0 46 17t17 41q1 29 14.5 40t46.5 11h17 q31 0 43.5 -10t11.5 -35q-7 -94 -55.5 -150.5t-147.5 -56.5q-46 0 -90.5 18.5t-73.5 41t-61.5 41t-56.5 18.5q-60 0 -66 -68q-3 -25 -14.5 -33t-44.5 -8h-17q-35 0 -46.5 9t-8.5 36zM301 420q0 -128 54.5 -186t205.5 -58q77 0 128 15t78.5 47.5t38.5 75t11 106.5v176 q0 129 -53.5 187.5t-202.5 58.5q-78 0 -129.5 -15.5t-80 -48t-39.5 -75.5t-11 -107v-176z" />
<glyph unicode="&#xf6;" horiz-adv-x="1118" d="M90 420v176q0 215 117 328.5t354 113.5q244 0 355.5 -110.5t111.5 -331.5v-176q0 -214 -116 -328.5t-351 -114.5q-245 0 -358 111t-113 332zM264 1284q0 47 34 82t81 35q49 0 83 -34.5t34 -82.5t-34 -81.5t-83 -33.5q-47 0 -81 34t-34 81zM301 420q0 -128 54.5 -186 t205.5 -58q77 0 128 15t78.5 47.5t38.5 75t11 106.5v176q0 129 -53.5 187.5t-202.5 58.5q-78 0 -129.5 -15.5t-80 -48t-39.5 -75.5t-11 -107v-176zM629 1284q0 47 34.5 82t81.5 35t81 -35t34 -82t-34.5 -81t-80.5 -34q-47 0 -81.5 34t-34.5 81z" />
<glyph unicode="&#xf7;" horiz-adv-x="1146" d="M104 655v21q0 46 16 62t62 16h783q46 0 61.5 -16t15.5 -62v-21q0 -46 -15.5 -61.5t-61.5 -15.5h-783q-46 0 -62 15.5t-16 61.5zM440 287q0 56 39 95.5t94 39.5t94.5 -39.5t39.5 -95.5q0 -54 -39.5 -93.5t-94.5 -39.5t-94 39t-39 94zM440 1044q0 56 39 95t94 39t94.5 -40 t39.5 -94q0 -56 -39.5 -95.5t-94.5 -39.5t-94 39.5t-39 95.5z" />
<glyph unicode="&#xf8;" horiz-adv-x="1118" d="M90 420v176q0 215 117 328.5t354 113.5q116 0 205 -28l25 41q19 32 35 36.5t48 -14.5l19 -10q32 -19 36.5 -35.5t-14.5 -48.5l-20 -33q133 -110 133 -350v-176q0 -214 -116 -328.5t-351 -114.5q-118 0 -207 29l-22 -39q-19 -32 -35.5 -36.5t-48.5 14.5l-23 12 q-31 17 -35 33.5t15 48.5l18 33q-133 107 -133 348zM301 420q0 -119 43 -170l334 577q-58 15 -117 15q-78 0 -129.5 -15.5t-80 -48t-39.5 -75.5t-11 -107v-176zM440 190q43 -14 121 -14q77 0 128 15t78.5 47.5t38.5 75t11 106.5v176q0 121 -43 174z" />
<glyph unicode="&#xf9;" horiz-adv-x="1099" d="M104 377v547q0 55 18.5 73.5t74.5 18.5h26q55 0 73.5 -18t18.5 -74v-547q0 -51 10 -86t35.5 -62t72.5 -40t118 -13q72 0 118.5 12.5t71.5 40t34 62t9 86.5v547q0 55 18.5 73.5t74.5 18.5h26q55 0 73.5 -18t18.5 -74v-547q0 -198 -105.5 -299t-338.5 -101 q-226 0 -336.5 103.5t-110.5 296.5zM312 1409q8 14 59 14h51q51 0 75 -15t46 -60l63 -134q20 -41 11.5 -55t-54.5 -14h-22q-46 0 -70.5 13t-48.5 52l-90 142q-28 43 -20 57z" />
<glyph unicode="&#xfa;" horiz-adv-x="1099" d="M104 377v547q0 55 18.5 73.5t74.5 18.5h26q55 0 73.5 -18t18.5 -74v-547q0 -51 10 -86t35.5 -62t72.5 -40t118 -13q72 0 118.5 12.5t71.5 40t34 62t9 86.5v547q0 55 18.5 73.5t74.5 18.5h26q55 0 73.5 -18t18.5 -74v-547q0 -198 -105.5 -299t-338.5 -101 q-226 0 -336.5 103.5t-110.5 296.5zM477.5 1159q-8.5 14 11.5 55l64 134q22 45 46 60t75 15h51q51 0 59 -14t-20 -57l-90 -142q-24 -39 -48.5 -52t-70.5 -13h-23q-46 0 -54.5 14z" />
<glyph unicode="&#xfb;" horiz-adv-x="1099" d="M104 377v547q0 55 18.5 73.5t74.5 18.5h26q55 0 73.5 -18t18.5 -74v-547q0 -51 10 -86t35.5 -62t72.5 -40t118 -13q72 0 118.5 12.5t71.5 40t34 62t9 86.5v547q0 55 18.5 73.5t74.5 18.5h26q55 0 73.5 -18t18.5 -74v-547q0 -198 -105.5 -299t-338.5 -101 q-226 0 -336.5 103.5t-110.5 296.5zM298.5 1161q-6.5 12 16.5 47l78 123q34 53 67 71.5t91 18.5t91 -18.5t67 -71.5l79 -123q23 -35 17 -47t-49 -12h-23q-43 0 -64.5 12t-43.5 49l-31 50q-20 34 -43 34q-13 0 -21.5 -6.5t-21.5 -27.5l-31 -50q-22 -37 -43.5 -49t-64.5 -12 h-21q-43 0 -49.5 12z" />
<glyph unicode="&#xfc;" horiz-adv-x="1099" d="M104 377v547q0 55 18.5 73.5t74.5 18.5h26q55 0 73.5 -18t18.5 -74v-547q0 -51 10 -86t35.5 -62t72.5 -40t118 -13q72 0 118.5 12.5t71.5 40t34 62t9 86.5v547q0 55 18.5 73.5t74.5 18.5h26q55 0 73.5 -18t18.5 -74v-547q0 -198 -105.5 -299t-338.5 -101 q-226 0 -336.5 103.5t-110.5 296.5zM254 1284q0 47 34 82t81 35q49 0 82.5 -34.5t33.5 -82.5t-33.5 -81.5t-82.5 -33.5q-47 0 -81 34t-34 81zM618 1284q0 47 35 82t82 35t81 -35t34 -82t-34.5 -81t-80.5 -34q-47 0 -82 34t-35 81z" />
<glyph unicode="&#xfd;" horiz-adv-x="1093" d="M72 924q-14 56 0 74t71 18h27q57 0 80.5 -18.5t36.5 -73.5l162 -660q14 -61 37.5 -80.5t72.5 -19.5q38 0 60 20t36 80l154 660q12 55 35 73.5t80 18.5h26q57 0 71.5 -18t0.5 -74l-221 -924q-52 -212 -157.5 -322t-281.5 -129q-40 -4 -60.5 13t-31.5 63l-6 27 q-10 43 3.5 59.5t54.5 22.5q104 15 167 79t97 185q-32 -14 -94 -14q-49 0 -86 13t-61.5 33.5t-44 56.5t-31.5 71t-25 88zM473.5 1159q-8.5 14 11.5 55l64 134q22 45 46 60t75 15h51q51 0 59 -14t-20 -57l-90 -142q-24 -39 -48.5 -52t-70.5 -13h-23q-46 0 -54.5 14z" />
<glyph unicode="&#xfe;" horiz-adv-x="1142" d="M117 -317v1640q0 55 18.5 73.5t73.5 18.5h24q56 0 74.5 -18.5t18.5 -73.5v-418q86 133 301 133q216 0 321 -115t105 -331v-168q0 -215 -105 -331t-321 -116q-218 0 -301 134v-428q0 -55 -19 -74t-74 -19h-24q-55 0 -73.5 18.5t-18.5 74.5zM326 420q0 -128 54.5 -186 t205.5 -58q78 0 129 15t78.5 47.5t38 75t10.5 106.5v176q0 64 -10.5 106.5t-38 75.5t-78.5 48.5t-129 15.5q-149 0 -204.5 -58t-55.5 -182v-182z" />
<glyph unicode="&#xff;" horiz-adv-x="1093" d="M72 924q-14 56 0 74t71 18h27q57 0 80.5 -18.5t36.5 -73.5l162 -660q14 -61 37.5 -80.5t72.5 -19.5q38 0 60 20t36 80l154 660q12 55 35 73.5t80 18.5h26q57 0 71.5 -18t0.5 -74l-221 -924q-52 -212 -157.5 -322t-281.5 -129q-40 -4 -60.5 13t-31.5 63l-6 27 q-10 43 3.5 59.5t54.5 22.5q104 15 167 79t97 185q-32 -14 -94 -14q-49 0 -86 13t-61.5 33.5t-44 56.5t-31.5 71t-25 88zM250 1284q0 47 34 82t81 35q49 0 82.5 -34.5t33.5 -82.5t-33.5 -81.5t-82.5 -33.5q-47 0 -81 34t-34 81zM614 1284q0 47 35 82t82 35t81 -35t34 -82 t-34.5 -81t-80.5 -34q-47 0 -82 34t-35 81z" />
<glyph unicode="&#x152;" horiz-adv-x="1974" d="M109 516v293q0 102 15 181t52.5 148.5t98 115t155 71t221.5 25.5q272 0 379 -142q40 123 211 123h547q56 0 74 -18.5t18 -73.5v-18q0 -56 -18.5 -74.5t-73.5 -18.5h-520q-41 0 -59.5 -18t-18.5 -59v-263h516q56 0 74 -18t18 -74v-18q0 -56 -18 -74t-74 -18h-516v-305 q0 -41 18.5 -59.5t59.5 -18.5h520q56 0 74 -18.5t18 -73.5v-19q0 -56 -18 -74t-74 -18h-547q-168 0 -207 119q-106 -144 -383 -144q-127 0 -222 25.5t-155.5 71t-98 115t-52 148.5t-14.5 181zM326 516q0 -88 12.5 -146t47 -104t99.5 -67t166 -21t166 21t100 67t47.5 104 t12.5 146v293q0 89 -12.5 147t-47.5 104t-100 66.5t-166 20.5t-166 -20.5t-99.5 -66.5t-47 -104t-12.5 -147v-293z" />
<glyph unicode="&#x153;" horiz-adv-x="1771" d="M90 420v176q0 215 117 328.5t354 113.5q270 0 361 -172q86 172 344 172q213 0 322.5 -107t109.5 -317q0 -38 -4 -92q-4 -55 -24.5 -73.5t-76.5 -18.5h-573v-45q0 -112 69.5 -160.5t225.5 -48.5q115 0 266 33q50 12 67 -3.5t17 -68.5v-26q0 -51 -16 -69t-68 -32 q-118 -33 -266 -33q-303 0 -397 175q-96 -175 -357 -175q-245 0 -358 111t-113 332zM301 420q0 -128 54.5 -186t205.5 -58q77 0 128 15t78.5 47.5t38.5 75t11 106.5v176q0 129 -53.5 187.5t-202.5 58.5q-78 0 -129.5 -15.5t-80 -48t-39.5 -75.5t-11 -107v-176zM1020 602h479 v51q0 203 -239 203q-240 0 -240 -203v-51z" />
<glyph unicode="&#x178;" horiz-adv-x="1294" d="M60 1312.5q11 18.5 75 18.5h29q65 0 95 -18.5t58 -75.5l193 -379q48 -94 71.5 -119.5t65.5 -25.5q40 0 63.5 25.5t71.5 119.5l193 379q29 57 59.5 75.5t95.5 18.5h29q64 0 75 -18.5t-20 -75.5l-276 -510q-57 -105 -89.5 -140t-92.5 -55v-438q0 -57 -18.5 -75.5 t-75.5 -18.5h-29q-57 0 -75.5 18.5t-18.5 75.5v438q-61 21 -95 56t-90 139l-274 510q-31 57 -20 75.5zM350 1577q0 47 34 82t81 35q49 0 83 -34.5t34 -82.5t-34 -81.5t-83 -33.5q-47 0 -81 34t-34 81zM715 1577q0 47 34.5 82t81.5 35t81 -35t34 -82t-34.5 -81t-80.5 -34 q-47 0 -81.5 34t-34.5 81z" />
<glyph unicode="&#x2c6;" horiz-adv-x="829" d="M161.5 1548q-6.5 12 16.5 47l78 123q34 53 67 71.5t91 18.5t90.5 -18.5t66.5 -71.5l80 -123q23 -35 16.5 -47t-49.5 -12h-22q-43 0 -65 12.5t-44 48.5l-30 50q-20 34 -43 34q-13 0 -21.5 -6.5t-21.5 -27.5l-31 -50q-22 -36 -44 -48.5t-65 -12.5h-20q-43 0 -49.5 12z" />
<glyph unicode="&#x2dc;" horiz-adv-x="1001" d="M160 1604q17 206 205 206q45 0 89.5 -18.5t73 -40.5t61 -40.5t56.5 -18.5q31 0 46.5 17t17.5 40q1 29 14.5 40t46.5 11h16q31 0 44 -10.5t12 -34.5q-7 -94 -55.5 -150.5t-147.5 -56.5q-46 0 -90.5 18.5t-74 41t-62 41t-56.5 18.5q-59 0 -65 -68q-3 -25 -14.5 -32.5 t-45.5 -7.5h-16q-35 0 -46.5 9t-8.5 36z" />
<glyph unicode="&#x2000;" horiz-adv-x="907" />
<glyph unicode="&#x2001;" horiz-adv-x="1815" />
<glyph unicode="&#x2002;" horiz-adv-x="907" />
<glyph unicode="&#x2003;" horiz-adv-x="1815" />
<glyph unicode="&#x2004;" horiz-adv-x="605" />
<glyph unicode="&#x2005;" horiz-adv-x="453" />
<glyph unicode="&#x2006;" horiz-adv-x="302" />
<glyph unicode="&#x2007;" horiz-adv-x="302" />
<glyph unicode="&#x2008;" horiz-adv-x="226" />
<glyph unicode="&#x2009;" horiz-adv-x="363" />
<glyph unicode="&#x200a;" horiz-adv-x="100" />
<glyph unicode="&#x2010;" horiz-adv-x="819" d="M53 645v23q0 46 16 61.5t62 15.5h557q46 0 62 -15.5t16 -61.5v-23q0 -46 -16 -62t-62 -16h-557q-46 0 -62 16t-16 62z" />
<glyph unicode="&#x2011;" horiz-adv-x="819" d="M53 645v23q0 46 16 61.5t62 15.5h557q46 0 62 -15.5t16 -61.5v-23q0 -46 -16 -62t-62 -16h-557q-46 0 -62 16t-16 62z" />
<glyph unicode="&#x2012;" horiz-adv-x="819" d="M53 645v23q0 46 16 61.5t62 15.5h557q46 0 62 -15.5t16 -61.5v-23q0 -46 -16 -62t-62 -16h-557q-46 0 -62 16t-16 62z" />
<glyph unicode="&#x2013;" horiz-adv-x="944" d="M-10 645v23q0 46 16 61.5t62 15.5h809q46 0 61.5 -15.5t15.5 -61.5v-23q0 -46 -15.5 -62t-61.5 -16h-809q-46 0 -62 16t-16 62z" />
<glyph unicode="&#x2014;" horiz-adv-x="1908" d="M-10 645v23q0 46 16 61.5t62 15.5h1771q46 0 62 -15.5t16 -61.5v-23q0 -46 -16 -62t-62 -16h-1771q-46 0 -62 16t-16 62z" />
<glyph unicode="&#x2018;" horiz-adv-x="438" d="M113 1098q0 61 56 183.5t105 203.5q19 35 48 26l6 -2q26 -8 26 -43q0 -80 -6 -163q-20 -314 -143 -314q-43 0 -67.5 29.5t-24.5 79.5z" />
<glyph unicode="&#x2019;" horiz-adv-x="438" d="M84 1040q0 82 6 164q20 314 143 314q43 0 68 -29.5t25 -79.5q0 -61 -56 -183t-106 -204q-20 -35 -47 -27l-6 2q-27 8 -27 43z" />
<glyph unicode="&#x201a;" horiz-adv-x="438" d="M84 -242q0 82 6 164q20 314 143 314q43 0 68 -29.5t25 -79.5q0 -61 -56 -183t-106 -204q-20 -35 -47 -27l-6 2q-27 8 -27 43z" />
<glyph unicode="&#x201c;" horiz-adv-x="813" d="M113 1098q0 61 56 183.5t105 203.5q19 35 48 26l6 -2q26 -8 26 -43q0 -80 -6 -163q-20 -314 -143 -314q-43 0 -67.5 29.5t-24.5 79.5zM487 1098q0 61 56 183t106 204q19 34 47 26l6 -2q27 -8 27 -43q0 -80 -6 -163q-20 -314 -143 -314q-43 0 -68 29.5t-25 79.5z" />
<glyph unicode="&#x201d;" horiz-adv-x="813" d="M84 1040q0 82 6 164q20 314 143 314q43 0 68 -29.5t25 -79.5q0 -61 -56 -183t-106 -204q-20 -35 -47 -27l-6 2q-27 8 -27 43zM459 1040q0 82 6 164q20 314 143 314q43 0 67.5 -29.5t24.5 -79.5q0 -61 -56 -183.5t-105 -203.5q-20 -35 -47 -27l-7 2q-26 8 -26 43z" />
<glyph unicode="&#x201e;" horiz-adv-x="806" d="M84 -242q0 82 6 164q20 314 143 314q43 0 68 -29.5t25 -79.5q0 -61 -56 -183t-106 -204q-20 -35 -47 -27l-6 2q-27 8 -27 43zM453 -242q0 82 6 164q20 314 143 314q43 0 67.5 -29.5t24.5 -79.5q0 -61 -56 -183t-106 -204q-20 -35 -47 -27l-6 2q-26 8 -26 43z" />
<glyph unicode="&#x2022;" horiz-adv-x="618" d="M78 641q0 93 64.5 162t166.5 69q101 0 165.5 -69t64.5 -162t-64.5 -161t-165.5 -68q-102 0 -166.5 68t-64.5 161z" />
<glyph unicode="&#x2026;" horiz-adv-x="1472" d="M94 113q0 55 39 94t94 39t94 -39t39 -94t-39 -94t-94 -39t-94 39t-39 94zM602 113q0 56 39 94.5t96 38.5q55 0 94 -39t39 -94t-39 -94t-94 -39q-57 0 -96 38.5t-39 94.5zM1112 113q0 55 39 94t94 39q57 0 96 -38.5t39 -94.5t-39 -94.5t-96 -38.5q-55 0 -94 39t-39 94z " />
<glyph unicode="&#x202f;" horiz-adv-x="363" />
<glyph unicode="&#x2039;" horiz-adv-x="649" d="M59 512q0 33 13 60t47 67l188 229q34 40 62 53t80 13h24q52 0 58.5 -13t-27.5 -53l-246 -301q-29 -33 -29 -55q0 -14 5.5 -23.5t23.5 -31.5l246 -301q34 -40 27.5 -53t-58.5 -13h-24q-52 0 -80 13t-62 53l-188 229q-35 41 -47.5 67t-12.5 60z" />
<glyph unicode="&#x203a;" horiz-adv-x="649" d="M117.5 103q-6.5 13 27.5 53l246 301q13 16 17 21.5t8 14.5t4 19q0 9 -4.5 19t-8 14.5t-16.5 21.5l-246 301q-34 40 -27.5 53t58.5 13h25q52 0 79.5 -13t61.5 -53l188 -229q34 -40 47 -67t13 -60t-12.5 -58.5t-47.5 -68.5l-188 -229q-34 -40 -61.5 -53t-79.5 -13h-25 q-52 0 -58.5 13z" />
<glyph unicode="&#x205f;" horiz-adv-x="453" />
<glyph unicode="&#x20ac;" horiz-adv-x="1169" d="M37 508v20q0 38 12.5 51t50.5 13h103v145h-103q-38 0 -50.5 13t-12.5 51v20q0 38 12.5 51t50.5 13h107q37 465 530 465q131 0 242 -33q51 -15 66 -38.5t6 -74.5l-4 -18q-10 -51 -30.5 -63.5t-70.5 -0.5q-100 27 -209 27q-143 0 -217.5 -61t-89.5 -203h485 q38 0 48.5 -12.5t3.5 -49.5l-6 -24q-9 -37 -24.5 -49.5t-53.5 -12.5h-457v-145h422q38 0 48.5 -12.5t2.5 -49.5l-6 -24q-8 -37 -23 -49.5t-53 -12.5h-389q11 -135 83.5 -199.5t233.5 -64.5q133 0 238 33q49 15 68.5 0.5t19.5 -66.5v-30q0 -51 -16.5 -71.5t-67.5 -35.5 q-108 -33 -244 -33q-255 0 -390 107t-148 360h-105q-38 0 -50.5 13t-12.5 51z" />
<glyph unicode="&#x2122;" horiz-adv-x="1826" d="M59 1227v22q0 38 13 51t51 13h539q38 0 50.5 -13t12.5 -51v-22q0 -38 -12.5 -51t-50.5 -13h-187v-583q0 -43 -14.5 -57.5t-57.5 -14.5h-22q-43 0 -57.5 14.5t-14.5 57.5v583h-186q-38 0 -51 13t-13 51zM864 580v624q0 57 25 83t82 26h65q110 0 142 -133l120 -459l129 485 q13 63 48.5 85t109.5 22h31q55 0 80.5 -26t25.5 -83v-624q0 -43 -14 -57.5t-57 -14.5h-23q-43 0 -57.5 14.5t-14.5 57.5v591l-159 -573q-11 -42 -34 -60t-67 -18q-42 0 -65 18t-35 60l-166 573v-591q0 -43 -14.5 -57.5t-57.5 -14.5h-22q-43 0 -57.5 14.5t-14.5 57.5z" />
<glyph unicode="&#x25fc;" horiz-adv-x="1013" d="M0 0v1014h1014v-1014h-1014z" />
<glyph unicode="&#xfb01;" horiz-adv-x="1280" d="M29 891v20q0 43 14 59.5t55 24.5l109 21v119q0 100 27 170.5t78 109.5t115 56.5t148 17.5q51 0 101 -8q54 -9 71 -28t17 -73v-24q0 -51 -17.5 -65.5t-70.5 -6.5q-60 6 -86 6q-84 0 -129 -32t-45 -107v-135h272q52 0 69 -17t17 -69v-25q0 -53 -17 -69.5t-69 -16.5h-272 v-727q0 -56 -18 -74t-74 -18h-25q-55 0 -73.5 18t-18.5 74v727h-107q-43 0 -57 14.5t-14 57.5zM911 1329q0 54 38.5 91.5t92.5 37.5t91.5 -38t37.5 -91q0 -54 -37.5 -91.5t-91.5 -37.5t-92.5 37.5t-38.5 91.5zM936 92v832q0 56 18 74t74 18h27q55 0 73.5 -18t18.5 -74v-832 q0 -56 -18.5 -74t-73.5 -18h-27q-56 0 -74 18t-18 74z" />
<glyph unicode="&#xfb02;" horiz-adv-x="1323" d="M29 891v20q0 43 14 59.5t55 24.5l109 21v119q0 100 27 170.5t78 109.5t115 56.5t148 17.5q51 0 101 -8q54 -9 71 -28t17 -73v-24q0 -51 -17.5 -65.5t-70.5 -6.5q-60 6 -86 6q-84 0 -129 -32t-45 -107v-135h272q52 0 69 -17t17 -69v-25q0 -53 -17 -69.5t-69 -16.5h-272 v-727q0 -56 -18 -74t-74 -18h-25q-55 0 -73.5 18t-18.5 74v727h-107q-43 0 -57 14.5t-14 57.5zM915 287v1054q0 55 18.5 74t74.5 19h26q55 0 73.5 -18.5t18.5 -74.5v-1013q0 -82 24 -114t73 -32q51 0 64 -14.5t13 -67.5v-20q0 -51 -15.5 -68t-67.5 -26q-12 -2 -29 -2 q-123 0 -198 73.5t-75 229.5z" />
</font>
</defs>
</svg>
