<?xml version="1.0" standalone="no"?>
<!DOCTYPE svg PUBLIC "-//W3C//DTD SVG 1.1//EN" "http://www.w3.org/Graphics/SVG/1.1/DTD/svg11.dtd" >
<svg xmlns="http://www.w3.org/2000/svg" xmlns:xlink="http://www.w3.org/1999/xlink" version="1.1">
<metadata></metadata>
<defs>
<font id="amplesoft-boldbold" horiz-adv-x="1347" >
<font-face units-per-em="2048" ascent="1536" descent="-512" />
<missing-glyph horiz-adv-x="458" />
<glyph horiz-adv-x="0" />
<glyph horiz-adv-x="682" />
<glyph unicode=" "  horiz-adv-x="458" />
<glyph unicode="&#x09;" horiz-adv-x="458" />
<glyph unicode="&#xa0;" horiz-adv-x="458" />
<glyph unicode="!" horiz-adv-x="602" d="M141 135q0 66 47 113t113 47t113 -47t47 -113t-47 -113t-113 -47t-113 47t-47 113zM174 909v303q0 70 24 94.5t95 24.5h20q71 0 95 -24.5t24 -94.5v-303q0 -248 -33 -417q-8 -42 -26 -57t-60 -15h-20q-42 0 -59.5 15t-26.5 57q-33 169 -33 417z" />
<glyph unicode="&#x22;" horiz-adv-x="724" d="M76 1151v231q0 59 20 79t78 20h29q58 0 78 -20t20 -79v-231q0 -59 -19.5 -78.5t-78.5 -19.5h-29q-58 0 -78 19.5t-20 78.5zM424 1151v231q0 59 20 79t78 20h29q58 0 78 -20t20 -79v-231q0 -59 -19.5 -78.5t-78.5 -19.5h-29q-58 0 -78 19.5t-20 78.5z" />
<glyph unicode="#" horiz-adv-x="1423" d="M96 377v24q0 51 16.5 67.5t67.5 16.5h142l90 361h-142q-51 0 -67.5 16.5t-16.5 67.5v24q0 51 16.5 67.5t67.5 16.5h189l49 197q15 58 39.5 77t83.5 19h22q59 0 74 -19t0 -77l-49 -197h250l49 197q15 58 39.5 77t83.5 19h22q59 0 74 -19t0 -77l-49 -197h96 q51 0 67.5 -16.5t16.5 -67.5v-24q0 -51 -16.5 -67.5t-67.5 -16.5h-143l-90 -361h143q51 0 67.5 -16.5t16.5 -67.5v-24q0 -51 -16.5 -67.5t-67.5 -16.5h-192l-50 -197q-13 -58 -37 -77t-83 -19h-23q-59 0 -74 19t-2 77l49 197h-249l-50 -197q-13 -58 -37 -77t-83 -19h-23 q-59 0 -74 19t-2 77l49 197h-92q-51 0 -67.5 16.5t-16.5 67.5zM541 485h250l90 361h-250z" />
<glyph unicode="$" horiz-adv-x="1046" d="M76 182v21q0 72 24 93t93 1q52 -14 77.5 -20t82 -12.5t124.5 -6.5q116 0 163.5 20.5t47.5 73.5q0 40 -30.5 70t-122.5 88l-242 154q-99 62 -148 142t-49 193q0 135 75.5 214t236.5 102v86q0 65 21 85.5t85 20.5h12q65 0 86 -21t21 -85v-78q90 -6 160 -29q68 -22 92 -51.5 t24 -97.5v-21q0 -69 -24.5 -89t-91.5 1q-97 33 -240 33q-94 0 -134 -17t-40 -63q0 -33 21.5 -57t80.5 -60l252 -159q122 -77 180 -156.5t58 -206.5q0 -143 -80.5 -228.5t-257.5 -109.5v-82q0 -64 -21 -85t-86 -21h-12q-64 0 -85 21t-21 85v72q-112 6 -220 37q-68 20 -90 48 t-22 95z" />
<glyph unicode="%" horiz-adv-x="1800" d="M76 1010q0 346 340 346t340 -346q0 -176 -85.5 -261t-254.5 -85q-340 0 -340 346zM301 1010q0 -78 24.5 -110t90.5 -32q65 0 89.5 32t24.5 110q0 77 -24.5 109t-89.5 32q-66 0 -90.5 -32t-24.5 -109zM453 20.5q-13 20.5 20 83.5l582 1123q34 63 68.5 83.5t105.5 20.5h39 q71 0 83.5 -20.5t-20.5 -83.5l-583 -1123q-34 -63 -69 -83.5t-106 -20.5h-36q-71 0 -84 20.5zM1044 322q0 346 340 346t340 -346q0 -347 -340 -347t-340 347zM1270 322q0 -79 24 -110.5t90 -31.5q65 0 90 32t25 110q0 77 -25 109t-90 32q-66 0 -90 -32t-24 -109z" />
<glyph unicode="&#x26;" horiz-adv-x="1300" d="M96 381q0 120 44.5 191t135.5 112q-81 47 -116 108t-35 164q0 194 118.5 295t352.5 101q39 0 59 -2q71 -8 95 -34.5t24 -96.5v-21q0 -72 -20.5 -92.5t-89.5 -11.5q-29 4 -76 4q-106 0 -149.5 -35t-43.5 -125q0 -81 40 -116.5t149 -35.5h223v66q0 70 24.5 94.5t94.5 24.5 h39q70 0 94 -24t24 -95v-66h64q71 0 95 -24t24 -94v16q0 -70 -24 -94.5t-95 -24.5h-64v-182q0 -111 -38 -192t-106.5 -127t-153 -67.5t-187.5 -21.5q-247 0 -374.5 101t-127.5 305zM373 395q0 -90 50.5 -128t162.5 -38q110 0 165.5 34.5t55.5 129.5v172h-215 q-119 0 -169 -40.5t-50 -129.5z" />
<glyph unicode="'" horiz-adv-x="376" d="M76 1151v231q0 59 20 79t78 20h29q58 0 78 -20t20 -79v-231q0 -59 -19.5 -78.5t-78.5 -19.5h-29q-58 0 -78 19.5t-20 78.5z" />
<glyph unicode="(" horiz-adv-x="790" d="M96 512q0 304 90 537.5t263 418.5q41 42 70 40.5t77 -44.5l18 -16q46 -43 48.5 -70t-37.5 -71q-59 -65 -105 -136t-87.5 -167.5t-64 -221.5t-22.5 -270q0 -490 283 -795q29 -31 35 -51.5t-4.5 -38.5t-43.5 -49l-20 -18q-34 -31 -53.5 -41t-40.5 -3t-51 38 q-355 368 -355 958z" />
<glyph unicode=")" horiz-adv-x="790" d="M126.5 -334.5q6.5 20.5 35.5 51.5q282 304 282 795q0 145 -22.5 270t-64 221.5t-87 167.5t-104.5 136q-40 44 -38 71t48 70l19 16q48 43 77 44.5t70 -40.5q173 -185 262.5 -418.5t89.5 -537.5q0 -591 -354 -958q-30 -31 -51 -38t-40.5 3t-53.5 41l-21 18q-33 31 -43.5 49 t-4 38.5z" />
<glyph unicode="*" horiz-adv-x="972" d="M94.5 1171.5q-11.5 21.5 3.5 73.5l11 29q17 53 39 63t73 -10l176 -72l-10 191q-3 54 13.5 72t70.5 18h33q54 0 70.5 -18t13.5 -72l-10 -195l176 72q51 22 73 11.5t37 -62.5l10 -29q15 -52 4 -73.5t-63 -36.5l-182 -52l117 -141q34 -41 30.5 -66t-47.5 -57l-24 -18 q-43 -32 -67.5 -28t-53.5 50l-103 158l-100 -156q-29 -46 -54 -50t-69 28l-24 18q-44 32 -47.5 57t30.5 66l121 143l-184 50q-52 15 -63.5 36.5z" />
<glyph unicode="+" horiz-adv-x="1155" d="M96 651v29q0 58 20 78t79 20h260v252q0 65 21 86t85 21h33q64 0 85 -21t21 -86v-252h261q59 0 78.5 -20t19.5 -78v-29q0 -59 -19.5 -78.5t-78.5 -19.5h-261v-252q0 -65 -21 -85.5t-85 -20.5h-33q-65 0 -85.5 20.5t-20.5 85.5v252h-260q-59 0 -79 20t-20 78z" />
<glyph unicode="," horiz-adv-x="477" d="M86 -141q0 420 162 420q52 0 81 -36.5t29 -97.5q0 -73 -58 -199.5t-114 -215.5q-10 -18 -21 -23t-30 0l-8 2q-20 4 -27 12t-10 29q-4 24 -4 109z" />
<glyph unicode="-" horiz-adv-x="868" d="M55 651v29q0 58 20 78t79 20h561q59 0 78.5 -20t19.5 -78v-29q0 -59 -19.5 -78.5t-78.5 -19.5h-561q-59 0 -79 20t-20 78z" />
<glyph unicode="." horiz-adv-x="491" d="M86 133q0 66 47 113t113 47t113 -47t47 -113t-47 -113t-113 -47t-113 47t-47 113z" />
<glyph unicode="/" horiz-adv-x="747" d="M21.5 -40.5q-14.5 20.5 5.5 81.5l446 1393q20 62 47.5 82t91.5 20h35q65 0 79.5 -20t-5.5 -80l-453 -1397q-20 -60 -47.5 -80t-91.5 -20h-29q-64 0 -78.5 20.5z" />
<glyph unicode="0" horiz-adv-x="1236" d="M100 518v287q0 99 14.5 178t50.5 149.5t94 117t148.5 73.5t210.5 27q121 0 212 -27t149 -73.5t94 -117t50 -149.5t14 -178v-287q0 -99 -14 -178t-50 -149.5t-94 -117t-149 -73.5t-212 -27q-120 0 -210.5 27t-148.5 73.5t-94 117t-50.5 149.5t-14.5 178zM377 518 q0 -76 9.5 -125.5t35.5 -88.5t74 -57t122 -18q76 0 124.5 18t74 57t34.5 88.5t9 125.5v287q0 76 -9 125.5t-34.5 88.5t-74 57t-124.5 18q-74 0 -122 -18t-74 -57t-35.5 -88.5t-9.5 -125.5v-287z" />
<glyph unicode="1" horiz-adv-x="819" d="M28.5 1039.5q-0.5 34.5 45.5 88.5l71 82q61 71 125.5 105.5t147.5 34.5q129 0 194.5 -71.5t65.5 -231.5v-928q0 -71 -24 -95t-95 -24h-37q-70 0 -94.5 24t-24.5 95v842q0 95 -4 115t-24 20q-12 0 -26 -13.5t-46 -52.5l-55 -69q-44 -57 -75.5 -59.5t-84.5 46.5l-8 6 q-51 51 -51.5 85.5z" />
<glyph unicode="2" horiz-adv-x="1099" d="M98 236q0 98 37.5 170t136.5 147l263 199q121 91 155.5 130.5t34.5 94.5q0 65 -51 92t-166 27q-118 0 -236 -27q-68 -17 -91 4.5t-23 93.5v33q0 70 22.5 95.5t93.5 37.5q3 0 30 4.5t48 7t61.5 5t82.5 2.5q120 0 208.5 -18t156.5 -59t103 -113t35 -175q0 -83 -25 -145 t-76 -116.5t-150 -129.5l-320 -244q-9 -7 -19 -15t-15.5 -12t-12 -9.5t-9.5 -8.5t-5.5 -7t-3.5 -7.5t-1 -7.5q0 -18 15 -23.5t65 -5.5h439q70 0 94 -24t24 -95v-18q0 -71 -24 -95t-94 -24h-459q-175 0 -249.5 53.5t-74.5 182.5z" />
<glyph unicode="3" horiz-adv-x="1079" d="M106 139v31q0 71 23.5 91t93.5 5q3 -1 24.5 -6t42.5 -9t51 -9t65.5 -8t70.5 -3q92 0 142 19.5t66.5 53t16.5 93.5q0 44 -8.5 73t-31.5 52.5t-66 34t-109 10.5h-8q-64 0 -86 22t-22 87v8q0 65 22 87t86 22h8q115 0 155 33.5t40 115.5q0 90 -44 122t-161 32q-31 0 -61.5 -2 t-58 -6t-45 -7t-39.5 -7.5t-25 -4.5q-70 -12 -93.5 7.5t-23.5 90.5v31q0 70 21.5 95t91.5 40q88 19 233 19q481 0 481 -394q0 -102 -39.5 -165.5t-119.5 -108.5q180 -78 180 -287q0 -422 -502 -422q-136 0 -254 27q-71 18 -94 43t-23 94z" />
<glyph unicode="4" horiz-adv-x="1120" d="M101.5 353q-69.5 97 2.5 311l187 555q22 67 53 89.5t102 22.5h52q71 0 87 -22.5t-7 -89.5l-211 -629q-14 -41 -1 -59.5t56 -18.5h295v373q0 71 24.5 95t94.5 24h36q70 0 94.5 -24t24.5 -95v-766q0 -71 -24.5 -95t-94.5 -24h-36q-70 0 -94.5 24t-24.5 95v137h-320 q-226 0 -295.5 97z" />
<glyph unicode="5" horiz-adv-x="1185" d="M172 137v29q0 71 24.5 92t92.5 4q127 -31 258 -31q134 0 193 38.5t59 125.5q0 111 -62.5 148t-230.5 37h-80q-129 0 -187.5 58t-58.5 187v260q0 129 58.5 187.5t187.5 58.5h446q70 0 94.5 -24.5t24.5 -94.5v-18q0 -70 -24.5 -94.5t-94.5 -24.5h-356q-32 0 -46.5 -14.5 t-14.5 -46.5v-117q0 -32 14.5 -46.5t46.5 -14.5h53q264 0 384 -109t120 -332q0 -113 -35.5 -195t-104.5 -130.5t-162 -71.5t-216 -23q-166 0 -264 25q-73 19 -96 44t-23 93z" />
<glyph unicode="6" horiz-adv-x="1167" d="M100 508v297q0 291 131.5 419t432.5 128q102 0 223 -27q71 -17 94 -44t23 -97v-25q0 -71 -24.5 -91t-94.5 -3q-132 31 -226 31q-87 0 -136 -9t-84.5 -39t-48.5 -84t-13 -147v-20q101 39 248 39q90 0 158 -11.5t125.5 -39.5t94 -73.5t56.5 -115t20 -162.5 q0 -245 -121.5 -352t-365.5 -107q-254 0 -373 133.5t-119 399.5zM377 532q0 -46 1.5 -77t7 -65.5t15 -56.5t26.5 -44t42 -33.5t60 -19t81 -7.5q115 0 155 41.5t40 147.5q0 111 -45.5 146.5t-165.5 35.5q-123 0 -217 -47v-21z" />
<glyph unicode="7" horiz-adv-x="1042" d="M76 1194v18q0 70 24 94.5t95 24.5h458q162 0 239 -60t77 -194q0 -75 -19.5 -141.5t-66.5 -159.5l-346 -670q-33 -64 -68.5 -85t-106.5 -21h-77q-71 0 -84 20.5t20 83.5l461 869q29 53 17 77.5t-72 24.5h-432q-71 0 -95 24.5t-24 94.5z" />
<glyph unicode="8" horiz-adv-x="1187" d="M100 377q0 121 42 190.5t139 116.5q-85 49 -118.5 111.5t-33.5 167.5q0 185 118 287t347 102q235 0 350 -95.5t115 -293.5q0 -105 -33.5 -167.5t-118.5 -111.5q97 -46 138.5 -116t41.5 -191q0 -187 -120 -294.5t-373 -107.5t-373.5 107.5t-120.5 294.5zM377 397 q0 -90 49 -129t168 -39t168 39t49 129q0 88 -49.5 128t-167.5 40t-167.5 -40t-49.5 -128zM399 942q0 -91 43 -123.5t152 -32.5t151.5 32.5t42.5 123.5q0 83 -42 119.5t-152 36.5t-152.5 -36.5t-42.5 -119.5z" />
<glyph unicode="9" horiz-adv-x="1167" d="M88 893q0 245 121.5 352t365.5 107q254 0 373 -133.5t119 -399.5v-297q0 -291 -131 -419t-432 -128q-39 0 -73 2t-62 6t-44.5 7t-38.5 8t-26 6q-71 15 -94 43t-23 98v25q0 73 23 93.5t92 2.5q133 -35 250 -35q87 0 136 9t85 39t49 84t13 147v20q-98 -38 -248 -38 q-113 0 -193 18.5t-141 63.5t-91 124t-30 195zM362 909q0 -111 45.5 -146.5t165.5 -35.5q124 0 218 47v21q0 54 -2.5 89t-10 73.5t-23 61t-41 42.5t-65 28.5t-92.5 8.5q-115 0 -155 -41.5t-40 -147.5z" />
<glyph unicode=":" horiz-adv-x="491" d="M86 133q0 66 47 113t113 47t113 -47t47 -113t-47 -113t-113 -47t-113 47t-47 113zM86 891q0 66 47 113t113 47t113 -47.5t47 -112.5t-47 -112.5t-113 -47.5t-113 47t-47 113z" />
<glyph unicode=";" horiz-adv-x="491" d="M86 891q0 66 47 113t113 47t113 -47.5t47 -112.5t-47 -112.5t-113 -47.5t-113 47t-47 113zM117 -141q0 420 162 420q52 0 81 -36.5t29 -97.5q0 -73 -58 -199.5t-114 -215.5q-10 -18 -21 -23t-30 0l-8 2q-20 4 -27 12t-10 29q-4 24 -4 109z" />
<glyph unicode="&#x3c;" horiz-adv-x="972" d="M68 662q0 78 31 131t112 94l571 287q58 29 78.5 16.5t20.5 -78.5v-37q0 -66 -20.5 -98.5t-80.5 -61.5l-454 -221q-18 -8 -24.5 -14t-6.5 -18q0 -20 31 -33l454 -221q60 -29 80.5 -61.5t20.5 -98.5v-37q0 -66 -20.5 -78t-78.5 17l-571 286q-81 41 -112 94.5t-31 131.5z " />
<glyph unicode="=" horiz-adv-x="1114" d="M96 428v29q0 58 20 78t79 20h725q58 0 78 -19.5t20 -78.5v-29q0 -58 -20 -78t-78 -20h-725q-59 0 -79 20t-20 78zM96 879v28q0 59 20 79t79 20h725q58 0 78 -20t20 -79v-28q0 -59 -20 -79t-78 -20h-725q-59 0 -79 20t-20 79z" />
<glyph unicode="&#x3e;" horiz-adv-x="972" d="M92 211v37q0 66 20.5 98.5t80.5 61.5l454 221q31 13 31 33q0 12 -6.5 18t-24.5 14l-454 221q-60 29 -80.5 61.5t-20.5 98.5v37q0 66 20 78.5t78 -16.5l572 -287q81 -41 112 -94t31 -131t-31 -131.5t-112 -94.5l-572 -286q-58 -29 -78 -17t-20 78z" />
<glyph unicode="?" horiz-adv-x="909" d="M98 1182v26q0 68 24 95.5t97 37.5q91 11 127 11q238 0 351.5 -92t113.5 -310q0 -65 -15 -119.5t-37 -92t-60 -72t-70.5 -56t-81.5 -49.5q-84 -41 -111 -80q-35 -48 -57.5 -59.5t-87.5 -11.5h-21q-81 0 -100 15.5t-10 72.5q18 125 223 258q86 55 120 93t34 101 q0 86 -41 117t-150 31q-44 0 -129 -13q-72 -11 -95.5 8t-23.5 89zM121 135q0 66 47 113t113 47t112.5 -47t46.5 -113t-46.5 -113t-112.5 -47t-113 47t-47 113z" />
<glyph unicode="@" horiz-adv-x="2027" d="M115 444v146q0 383 240 603t657 220q144 0 276 -32t246.5 -98.5t198.5 -162t132 -231t48 -297.5v-146q0 -60 -9 -113.5t-34.5 -109t-65 -95t-106 -64.5t-152.5 -25q-92 0 -168.5 46t-109.5 140q-34 -93 -106.5 -139.5t-205.5 -46.5q-186 0 -282 105t-96 300v148 q0 207 111 301t323 94q92 0 168 -22t136 -68t93 -123.5t33 -181.5v-150q0 -178 104 -178q37 0 63 18.5t37.5 48.5t16 56.5t4.5 54.5v152q0 144 -52.5 259t-143 187t-207.5 110t-252 38q-321 0 -486.5 -157.5t-165.5 -440.5v-146q0 -124 32.5 -226t88.5 -172.5t133.5 -118.5 t166.5 -70.5t188 -22.5q187 0 303 74q48 32 72 27.5t63 -50.5l16 -22q38 -46 34.5 -73t-50.5 -56q-206 -125 -467 -125q-170 0 -320 59t-262 165t-177.5 264.5t-65.5 346.5zM831 440q0 -90 37 -133t140 -43q104 0 142 43t38 133v146q0 89 -37.5 130.5t-142.5 41.5 q-104 0 -140.5 -41t-36.5 -131v-146z" />
<glyph unicode="A" d="M74 23q-9 11 -9 34t9 58l229 848q18 64 30.5 105t31 86.5t37 73t45 54t58.5 40t74 22t95 8.5q62 0 108.5 -9.5t82 -33.5t60 -51.5t47 -77.5t37 -95.5t35.5 -121.5l230 -848q9 -35 9 -58q-1 -23 -9 -34q-18 -23 -88 -23h-39q-71 0 -101 23t-49 92l-53 209h-541l-53 -209 q-19 -69 -48.5 -92t-100.5 -23h-39q-70 0 -88 23zM467 569h412l-99 381q-27 102 -43.5 129t-62.5 27t-63 -27.5t-44 -128.5z" />
<glyph unicode="B" horiz-adv-x="1255" d="M141 246v839q0 129 58.5 187.5t187.5 58.5h295q227 0 331.5 -95.5t104.5 -262.5q0 -100 -37.5 -167t-122.5 -116q112 -55 156.5 -127.5t44.5 -179.5q0 -50 -8.5 -94.5t-27.5 -89t-54 -79.5t-84 -62.5t-121 -42.5t-162 -15h-315q-129 0 -187.5 58.5t-58.5 187.5zM416 317 q0 -32 14.5 -46.5t46.5 -14.5h225q96 0 137.5 39t41.5 111q0 157 -179 157h-286v-246zM416 799h266q83 0 120.5 38.5t37.5 102.5q0 135 -158 135h-205q-32 0 -46.5 -14.5t-14.5 -46.5v-215z" />
<glyph unicode="C" horiz-adv-x="1095" d="M100 489v328q0 252 146 393.5t436 141.5q140 0 231 -35q69 -26 92 -53.5t23 -94.5v-16q0 -73 -25 -93q-12 -10 -35 -10q-24 0 -59 11q-118 35 -227 35q-158 0 -228.5 -68t-70.5 -211v-328q0 -45 7.5 -81t28.5 -70.5t54.5 -57t89 -36t129.5 -13.5q106 0 221 31q33 9 56 9 t35 -10q24 -20 24 -91v-16q0 -69 -22.5 -96.5t-90.5 -51.5q-91 -31 -235 -31q-288 0 -434 122t-146 392z" />
<glyph unicode="D" horiz-adv-x="1284" d="M141 246v839q0 129 58.5 187.5t187.5 58.5h170q132 0 228.5 -15t174.5 -50.5t126 -95.5t73 -149t25 -212v-287q0 -274 -152.5 -398t-474.5 -124h-170q-129 0 -187.5 58.5t-58.5 187.5zM416 317q0 -32 14.5 -46.5t46.5 -14.5h80q198 0 271 58.5t73 207.5v287 q0 149 -73 207.5t-271 58.5h-80q-32 0 -46.5 -14.5t-14.5 -46.5v-697z" />
<glyph unicode="E" horiz-adv-x="1193" d="M141 246v839q0 129 58.5 187.5t187.5 58.5h588q71 0 95 -24.5t24 -94.5v-18q0 -70 -24 -94.5t-95 -24.5h-498q-32 0 -46.5 -14.5t-14.5 -46.5v-205h477q71 0 95 -24.5t24 -94.5v-18q0 -70 -24 -94.5t-95 -24.5h-477v-236q0 -32 14.5 -46.5t46.5 -14.5h498q71 0 95 -24 t24 -95v-18q0 -71 -24 -95t-95 -24h-588q-129 0 -187.5 58.5t-58.5 187.5z" />
<glyph unicode="F" horiz-adv-x="1132" d="M141 119v966q0 129 58.5 187.5t187.5 58.5h547q70 0 94.5 -24.5t24.5 -94.5v-18q0 -70 -24.5 -94.5t-94.5 -24.5h-457q-32 0 -46.5 -14.5t-14.5 -46.5v-226h436q71 0 95 -24t24 -94v-19q0 -71 -24.5 -95t-94.5 -24h-436v-413q0 -71 -24 -95t-95 -24h-37q-70 0 -94.5 24 t-24.5 95z" />
<glyph unicode="G" horiz-adv-x="1230" d="M100 502v327q0 114 36 207t110.5 165t198 111.5t288.5 39.5q141 0 266 -41q65 -23 88 -51.5t23 -96.5v-16q0 -72 -24 -92q-11 -10 -33.5 -10t-55.5 10q-131 41 -256 41q-199 0 -278.5 -64t-79.5 -223v-328q0 -45 8.5 -79.5t32 -68t63 -55t105 -34.5t153.5 -13q38 0 78 5 q31 3 42.5 18t11.5 49v336q0 71 24 95t94 24h17q70 0 94 -24t24 -95v-354q0 -139 -45 -206.5t-170 -88.5q-87 -15 -172 -15q-340 0 -491.5 120t-151.5 407z" />
<glyph unicode="H" horiz-adv-x="1316" d="M141 119v1093q0 70 24.5 94.5t94.5 24.5h37q71 0 95 -24.5t24 -94.5v-383h485v383q0 70 24.5 94.5t94.5 24.5h37q71 0 95 -24.5t24 -94.5v-1093q0 -71 -24 -95t-95 -24h-37q-70 0 -94.5 24t-24.5 95v454h-485v-454q0 -71 -24 -95t-95 -24h-37q-70 0 -94.5 24t-24.5 95z " />
<glyph unicode="I" horiz-adv-x="589" d="M158 119v1093q0 71 24 95t94 24h37q71 0 95 -24.5t24 -94.5v-1093q0 -71 -24 -95t-95 -24h-37q-70 0 -94 24t-24 95z" />
<glyph unicode="J" horiz-adv-x="589" d="M-36.5 -231q-4.5 27 7 49.5t45.5 62.5q28 33 48.5 66.5t44.5 88t36.5 133t12.5 175.5v868q0 71 24 95t94 24h37q71 0 95 -24.5t24 -94.5v-847q0 -139 -21 -252.5t-60.5 -196.5t-82.5 -141t-100 -111q-43 -41 -79 -41h-6q-38 4 -77 62l-12 18q-26 39 -30.5 66z" />
<glyph unicode="K" horiz-adv-x="1267" d="M141 119v1093q0 70 24.5 94.5t94.5 24.5h37q71 0 95 -24.5t24 -94.5v-1093q0 -71 -24 -95t-95 -24h-37q-70 0 -94.5 24t-24.5 95zM477 700q0 57 19.5 107t74.5 117l256 315q44 55 83 73.5t110 18.5h88q71 -1 80 -19q2 -3 2 -7q0 -21 -37 -66l-317 -397q-76 -94 -85 -111 q-10 -19 -10 -39q0 -25 66 -106q18 -23 29 -37l358 -455q37 -47 37 -68q0 -4 -2 -8q-9 -18 -80 -18h-88q-71 0 -110 18.5t-83 75.5l-297 377q-54 69 -74 120t-20 109z" />
<glyph unicode="L" horiz-adv-x="1060" d="M141 246v966q0 70 24.5 94.5t94.5 24.5h37q71 0 95 -24.5t24 -94.5v-895q0 -32 14.5 -46.5t46.5 -14.5h416q71 0 95 -24t24 -95v-18q0 -71 -24 -95t-95 -24h-506q-129 0 -187.5 58.5t-58.5 187.5z" />
<glyph unicode="M" horiz-adv-x="1736" d="M76 119l65 897q12 168 84.5 247.5t227.5 79.5q144 0 215 -78t90 -249l76 -723q4 -32 6 -43t8 -18t20 -7q19 0 24.5 12t10.5 56l76 723q17 169 88.5 248t214.5 79q157 0 229 -78t84 -249l66 -897q1 -13 1 -24q0 -51 -19 -71q-23 -24 -93 -24h-41q-71 0 -97 24.5t-30 94.5 l-57 876q-5 65 -13 84t-34 19q-25 0 -35.5 -20t-17.5 -83l-95 -751q-12 -94 -37.5 -144.5t-78.5 -75t-146 -24.5q-58 0 -99 10t-75.5 36.5t-56 75t-31.5 122.5l-96 751q-7 63 -17.5 83t-35.5 20t-33.5 -20t-13.5 -83l-56 -876q-4 -70 -30 -94.5t-97 -24.5h-41q-70 0 -92 24 q-18 20 -19 71q0 11 1 24z" />
<glyph unicode="N" horiz-adv-x="1400" d="M141 119v921q0 176 66 246t219 70q128 0 190 -53t97 -197l213 -858q6 -25 14.5 -34t22.5 -9q18 0 24 11.5t6 45.5v950q0 70 24.5 94.5t94.5 24.5h29q71 0 95 -24.5t24 -94.5v-921q0 -177 -64.5 -246.5t-210.5 -69.5q-132 0 -197 56t-102 202l-209 836q-8 35 -15.5 46 t-25.5 11q-19 0 -23.5 -11t-4.5 -50v-946q0 -71 -24 -95t-95 -24h-29q-70 0 -94.5 24t-24.5 95z" />
<glyph unicode="O" horiz-adv-x="1331" d="M100 518v287q0 100 15.5 178.5t54.5 149t102 117t162.5 73.5t231.5 27t231.5 -27t162.5 -73.5t102 -117t54 -149t15 -178.5v-287q0 -100 -15 -178.5t-54 -149t-102 -117t-162.5 -73.5t-231.5 -27t-231.5 27t-162.5 73.5t-102 117t-54.5 149t-15.5 178.5zM377 518 q0 -76 11 -125.5t41 -88.5t88 -57t149 -18t148.5 17.5t88 57.5t41 89t10.5 125v287q0 76 -10.5 125t-41 89t-88 57.5t-148.5 17.5t-149 -18t-88 -57t-41 -88.5t-11 -125.5v-287z" />
<glyph unicode="P" horiz-adv-x="1251" d="M141 119v966q0 129 58.5 187.5t187.5 58.5h336q235 0 344 -118t109 -328t-109 -327.5t-344 -117.5h-307v-321q0 -71 -24 -95t-95 -24h-37q-70 0 -94.5 24t-24.5 95zM416 696h307q97 0 137.5 46t40.5 143t-40.5 143.5t-137.5 46.5h-246q-32 0 -46.5 -14.5t-14.5 -46.5 v-318z" />
<glyph unicode="Q" horiz-adv-x="1331" d="M100 518v287q0 100 15.5 178.5t54.5 149t102 117t162.5 73.5t231.5 27t231.5 -27t162.5 -73.5t102 -117t54 -149t15 -178.5v-287q0 -97 -15 -174.5t-50.5 -147t-101 -119t-159.5 -75.5l217 -205q46 -44 46 -61v-4q-7 -17 -78 -17h-119q-71 0 -111.5 18t-87.5 70l-151 172 q-121 4 -212.5 33t-150 76t-94.5 116t-50 145.5t-14 172.5zM377 518q0 -76 11 -125.5t41 -88.5t88 -57t149 -18t148.5 17.5t88 57.5t41 89t10.5 125v287q0 76 -10.5 125t-41 89t-88 57.5t-148.5 17.5t-149 -18t-88 -57t-41 -88.5t-11 -125.5v-287z" />
<glyph unicode="R" horiz-adv-x="1296" d="M141 119v966q0 129 58.5 187.5t187.5 58.5h336q235 0 344 -112t109 -314q0 -331 -277 -403l268 -404q31 -45 31 -68q0 -6 -2 -10q-11 -20 -82 -20h-78q-71 0 -107.5 20t-76.5 80l-250 381h-186v-362q0 -71 -24 -95t-95 -24h-37q-70 0 -94.5 24t-24.5 95zM416 737h307 q178 0 178 168q0 86 -40.5 128t-137.5 42h-246q-32 0 -46.5 -14.5t-14.5 -46.5v-277z" />
<glyph unicode="S" horiz-adv-x="1087" d="M76 156v20q0 72 25 93q13 11 40 11q22 0 54 -8q153 -41 311 -41q123 0 173 24.5t50 86.5q0 45 -32.5 77.5t-131.5 90.5l-262 154q-105 61 -156 143.5t-51 200.5q0 173 113.5 258.5t363.5 85.5q141 0 256 -33q74 -21 97.5 -47.5t23.5 -95.5v-21q0 -73 -24 -93 q-12 -10 -36 -10t-61 11q-108 33 -256 33q-105 0 -149.5 -21t-44.5 -76q0 -37 24 -63t89 -64l272 -159q85 -49 136 -96t81.5 -116t30.5 -159q0 -181 -120 -274t-390 -93q-165 0 -309 39q-72 21 -94.5 47t-22.5 95z" />
<glyph unicode="T" horiz-adv-x="1173" d="M55 1194v18q0 70 24.5 94.5t94.5 24.5h825q71 0 95 -24.5t24 -94.5v-18q0 -70 -24 -94.5t-95 -24.5h-274v-956q0 -71 -24.5 -95t-94.5 -24h-39q-70 0 -94 24t-24 95v956h-275q-70 0 -94.5 24.5t-24.5 94.5z" />
<glyph unicode="U" horiz-adv-x="1316" d="M121 467v745q0 70 24.5 94.5t94.5 24.5h36q70 0 94.5 -24.5t24.5 -94.5v-745q0 -126 68.5 -181t195.5 -55q126 0 194.5 55t68.5 181v745q0 71 24 95t94 24h37q71 0 95 -24.5t24 -94.5v-745q0 -130 -40 -226.5t-113.5 -153.5t-169 -84.5t-214.5 -27.5q-120 0 -216 27.5 t-169 84.5t-113 153.5t-40 226.5z" />
<glyph unicode="V" horiz-adv-x="1314" d="M76 1217q-8 32 -8 54q0 25 10 37q19 23 90 23h47q71 0 100.5 -23.5t44.5 -93.5l191 -833q23 -98 41 -127t65 -29t65.5 29t41.5 127l190 833q15 70 45 93.5t101 23.5h47q71 -1 89 -23q10 -12 10 -38q0 -22 -7 -53l-203 -848q-17 -73 -32 -122t-37 -96.5t-48.5 -76.5 t-63.5 -52t-85.5 -32.5t-112.5 -9.5q-76 0 -131.5 16t-93.5 43.5t-66.5 79t-47 107t-39.5 143.5z" />
<glyph unicode="W" horiz-adv-x="1945" d="M82 1212q-3 21 -3 38q0 38 15 56q21 24 92 25h41q70 0 97 -24t36 -95l103 -864q9 -75 22 -99t47 -24q33 0 48.5 24.5t25.5 98.5l94 699q22 164 79.5 224t193.5 60t193 -59.5t79 -224.5l94 -699q10 -74 25.5 -98.5t48.5 -24.5q34 0 47.5 24t22.5 99l102 864q9 71 36 95 t97 24h41q71 -1 93 -25q15 -17 15 -57q0 -17 -3 -37l-111 -864q-13 -101 -34 -166.5t-59.5 -113t-98.5 -68t-148 -20.5q-59 0 -103.5 9.5t-77.5 31t-55.5 50t-38.5 72.5t-26 91t-18 114l-82 674q-7 48 -12.5 61t-26.5 13t-26.5 -13t-12.5 -61l-82 -674 q-13 -101 -30.5 -163.5t-52.5 -112t-92.5 -71t-144.5 -21.5q-88 0 -147.5 20.5t-98 68t-59.5 113t-34 166.5z" />
<glyph unicode="X" horiz-adv-x="1323" d="M84 21q-4 7 -5 17q0 24 21 68l226 467q47 97 106 127q-54 25 -102 131l-189 394q-21 45 -21 68q0 11 4 17q14 20 85 21h70q70 0 102.5 -22t60.5 -88l113 -267q33 -80 53 -102.5t54 -22.5t53.5 22t52.5 103l113 267q28 66 60.5 88t102.5 22h70q70 -1 84 -21q4 -6 5 -17 q0 -24 -21 -68l-189 -394q-48 -106 -104 -131q61 -30 108 -127l226 -467q21 -44 21 -68q0 -11 -4 -17q-14 -21 -85 -21h-70q-70 0 -103.5 22t-61.5 87l-152 342q-35 81 -53.5 102.5t-52.5 21.5t-53 -21.5t-54 -102.5l-152 -342q-28 -65 -61.5 -87t-103.5 -22h-70 q-70 0 -84 21z" />
<glyph unicode="Y" d="M62 1310q12 21 83 21h70q71 0 105.5 -21t66.5 -85l160 -328q51 -103 72 -129.5t55 -26.5q35 0 55.5 26.5t71.5 129.5l160 328q32 64 66.5 85t105.5 21h69q71 0 84 -21q4 -5 4 -14q0 -24 -24 -69l-289 -535q-50 -91 -78.5 -120.5t-85.5 -55.5v-397q0 -71 -24.5 -95 t-94.5 -24h-39q-70 0 -94 24t-24 95v397q-58 26 -87 55t-79 121l-289 535q-24 46 -24 69q0 9 4 14z" />
<glyph unicode="Z" horiz-adv-x="1157" d="M49 242q0 95 33.5 161.5t118.5 131.5l602 462q23 18 31 28.5t8 23.5q0 15 -13.5 20.5t-46.5 5.5h-551q-70 0 -94 24t-24 95v18q0 71 24 95t94 24h570q171 0 239 -59.5t68 -186.5q0 -92 -33.5 -158.5t-120.5 -133.5l-594 -455q-28 -20 -37.5 -32t-9.5 -25q0 -15 13.5 -20 t48.5 -5h614q71 0 95 -24t24 -95v-18q0 -71 -24 -95t-95 -24h-610q-101 0 -167.5 16.5t-101.5 50t-48 74.5t-13 101z" />
<glyph unicode="[" horiz-adv-x="741" d="M154 -266v1556q0 129 58 187.5t187 58.5h156q57 0 75.5 -18.5t18.5 -75.5v-29q0 -57 -18.5 -75.5t-75.5 -18.5h-94q-62 0 -62 -62v-1490q0 -62 62 -62h94q57 0 75.5 -18.5t18.5 -75.5v-29q0 -57 -18.5 -75.5t-75.5 -18.5h-156q-129 0 -187 58.5t-58 187.5z" />
<glyph unicode="\" horiz-adv-x="747" d="M21.5 1516q14.5 20 78.5 20h35q64 0 91.5 -20t47.5 -82l447 -1393q20 -61 5.5 -81.5t-79.5 -20.5h-29q-64 0 -91.5 20t-47.5 80l-452 1397q-20 60 -5.5 80z" />
<glyph unicode="]" horiz-adv-x="741" d="M92 -389q0 57 18.5 75.5t75.5 18.5h95q32 0 46.5 15t14.5 47v1490q0 32 -14.5 47t-46.5 15h-95q-57 0 -75.5 18.5t-18.5 75.5v29q0 57 18.5 75.5t75.5 18.5h156q129 0 187.5 -58.5t58.5 -187.5v-1556q0 -129 -58.5 -187.5t-187.5 -58.5h-156q-57 0 -75.5 18.5t-18.5 75.5 v29z" />
<glyph unicode="^" horiz-adv-x="1171" d="M187 763.5q-13 20.5 12 78.5l190 458q36 87 79.5 120.5t115.5 33.5t116 -34t80 -120l193 -458q25 -58 11.5 -78.5t-77.5 -20.5h-28q-64 0 -92 20t-50 81l-127 366q-6 18 -11.5 24.5t-14.5 6.5q-17 0 -27 -31l-127 -366q-22 -61 -49.5 -81t-91.5 -20h-25q-64 0 -77 20.5z " />
<glyph unicode="_" horiz-adv-x="1073" d="M-6 -119q0 54 18 72t72 18h905q54 0 72 -18t18 -72v-24q0 -54 -18 -72t-72 -18h-905q-54 0 -72 18t-18 72v24z" />
<glyph unicode="`" horiz-adv-x="630" d="M149 1794.5q11 20.5 82 20.5h43q70 0 104.5 -22t63.5 -87l35 -80q25 -54 13.5 -72t-70.5 -18h-27q-59 0 -89 16.5t-62 65.5l-64 98q-40 58 -29 78.5z" />
<glyph unicode="a" horiz-adv-x="1017" d="M49 299q0 319 416 319h207v78q0 74 -53 99.5t-160 25.5q-85 0 -178 -12q-22 -3 -39 -3q-36 0 -52 12q-24 18 -24 87v8q0 66 22 91t88 34q85 11 166 11q241 0 368.5 -81t127.5 -272v-391q0 -166 -106 -248t-338 -82q-230 0 -337.5 81t-107.5 243zM315 305q0 -28 10 -48.5 t24.5 -31.5t39 -17t46.5 -7.5t54 -1.5q33 0 55 1.5t48.5 8.5t42 19t26.5 35t11 56v99h-211q-146 0 -146 -113z" />
<glyph unicode="b" horiz-adv-x="1157" d="M100 424v895q0 69 23 92t92 23h37q69 0 92 -23t23 -92v-387q86 117 280 117q212 0 321 -119.5t109 -341.5v-164q0 -234 -125 -341.5t-364 -107.5q-104 0 -190.5 25.5t-154 77.5t-105.5 140.5t-38 205.5zM367 430q0 -106 46 -154.5t177 -48.5q69 0 113 12.5t67 40.5 t31 62.5t8 87.5v164q0 53 -8.5 87.5t-31.5 62.5t-67 40.5t-112 12.5q-131 0 -177 -48.5t-46 -154.5v-164z" />
<glyph unicode="c" horiz-adv-x="858" d="M80 414v196q0 202 125.5 320.5t363.5 118.5q65 0 133 -15q65 -14 87 -41t22 -96v-23q-1 -69 -23 -88q-13 -11 -38 -11q-20 0 -48 7q-62 15 -129 15q-124 0 -174.5 -40t-50.5 -151v-184q0 -108 57 -151.5t187 -43.5q54 0 125 13q26 5 45 5q30 0 44 -12q22 -19 23 -88v-20 q0 -69 -22 -95t-90 -40q-67 -15 -137 -15q-500 0 -500 439z" />
<glyph unicode="d" horiz-adv-x="1157" d="M80 424v164q0 222 109 341.5t321 119.5q195 0 281 -117v387q0 69 22.5 92t91.5 23h37q69 0 92 -23t23 -92v-895q0 -117 -38 -205.5t-105.5 -140.5t-154 -77.5t-190.5 -25.5q-239 0 -364 107.5t-125 341.5zM348 430q0 -53 8 -87.5t31 -62.5t67 -40.5t113 -12.5 q131 0 177.5 48.5t46.5 154.5v164q0 106 -46.5 154.5t-177.5 48.5q-68 0 -112 -12.5t-67 -40.5t-31.5 -62.5t-8.5 -87.5v-164z" />
<glyph unicode="e" horiz-adv-x="1085" d="M80 424v164q0 103 25 184t79.5 145t148.5 98t224 34q223 0 336 -112t113 -331q0 -34 -5 -80q-9 -69 -35 -90.5t-98 -21.5h-520v-31q0 -80 63.5 -118t204.5 -38q107 0 248 29q26 5 45 5q31 -1 43 -13q22 -20 21 -90v-23q0 -68 -20 -91.5t-89 -41.5q-105 -27 -250 -27 q-274 0 -404 107t-130 342zM348 631h404v31q0 155 -203 155q-201 0 -201 -155v-31z" />
<glyph unicode="f" horiz-adv-x="835" d="M29 874v9q0 60 20 85t80 38l84 18v84q0 112 29 190t84 121t123.5 61.5t158.5 18.5q51 0 105 -6q68 -9 91 -38t23 -99v-21q0 -67 -21 -83q-15 -12 -52 -12q-18 0 -41 3q-36 4 -84 4q-150 0 -150 -117v-106h213q69 0 92 -23t23 -92v-22q0 -69 -23 -92t-92 -23h-213v-657 q0 -69 -22.5 -92t-91.5 -23h-37q-69 0 -92 23t-23 92v657h-82q-61 0 -81.5 20t-20.5 82z" />
<glyph unicode="g" horiz-adv-x="1077" d="M55 -174q0 132 103 194q-72 49 -72 152q0 75 40 119t118 71q-158 91 -158 302v12q0 177 122 275t341 98q91 0 180 -27l119 86q48 35 81 35h1q34 -1 76 -43l6 -6q46 -46 46 -74t-40 -72l-74 -82q34 -41 49 -84.5t15 -105.5v-12q0 -186 -110 -283.5t-349 -97.5 q-123 0 -160 -10t-37 -44q0 -19 15.5 -28.5t57 -14t124.5 -4.5q192 0 297.5 -31t148.5 -96t43 -182q0 -121 -43.5 -188.5t-149 -99t-296.5 -31.5q-147 0 -245 17t-152 53.5t-75.5 84t-21.5 117.5zM324 -133q0 -22 4.5 -36.5t18.5 -24.5t28 -15.5t44.5 -8t55.5 -3t74 -0.5 q45 0 68.5 0.5t53.5 3t44.5 8t29 15.5t20 25t5.5 36t-5.5 36t-20 25t-29 15.5t-44.5 8t-53.5 3t-68.5 0.5q-93 0 -170 6q-55 -26 -55 -94zM354 664q0 -76 42 -113t153 -37q110 0 150 37t40 113v12q0 70 -40.5 105.5t-149.5 35.5q-110 0 -152.5 -35.5t-42.5 -105.5v-12z" />
<glyph unicode="h" horiz-adv-x="1150" d="M121 115v1204q0 69 23 92t92 23h38q69 0 92 -23t23 -92v-387q50 55 131.5 86t181.5 31q52 0 99.5 -10t94 -35t80 -64t54.5 -101.5t21 -142.5v-581q0 -69 -23 -92t-92 -23h-39q-69 0 -92 23t-23 92v534q0 82 -43.5 115t-128.5 33q-102 0 -161.5 -54.5t-59.5 -193.5v-434 q0 -69 -23 -92t-92 -23h-38q-69 0 -92 23t-23 92z" />
<glyph unicode="i" horiz-adv-x="507" d="M94 1331q0 66 47 113t113 47t113 -47.5t47 -112.5t-47 -112.5t-113 -47.5t-113 47t-47 113zM121 115v794q0 69 23 92t92 23h36q69 0 92 -23t23 -92v-794q0 -69 -23 -92t-92 -23h-36q-69 0 -92 23t-23 92z" />
<glyph unicode="j" horiz-adv-x="509" d="M-76.5 -287q-4.5 26 5 46t38.5 51q154 165 154 477v622q0 69 23 92t92 23h38q69 0 92 -23t23 -92v-602q0 -140 -20.5 -253t-60.5 -197.5t-87 -146t-112 -118.5q-37 -34 -65 -34q-5 0 -10 1q-30 7 -67 66l-14 23q-25 39 -29.5 65zM96 1331q0 66 47 113t113 47t113 -47.5 t47 -112.5t-47 -112.5t-113 -47.5t-113 47t-47 113z" />
<glyph unicode="k" horiz-adv-x="1146" d="M121 115v1204q0 69 23 92t92 23h36q69 0 92 -23t23 -92v-1204q0 -69 -23 -92t-92 -23h-36q-69 0 -92 23t-23 92zM457 549q0 51 17 88.5t63 93.5l165 205q43 53 80.5 70.5t106.5 17.5h102q69 0 77 -17q1 -3 1 -6q0 -19 -37 -65l-268 -328q-39 -44 -39 -67q0 -24 37 -66 l313 -385q36 -45 36 -65q1 -4 -1 -7q-8 -18 -78 -18h-102q-69 0 -106.5 18t-80.5 72l-206 258q-45 56 -62.5 101.5t-17.5 99.5z" />
<glyph unicode="l" horiz-adv-x="559" d="M100 309v1010q0 69 23 92t92 23h37q69 0 92 -23t23 -92v-950q0 -77 21.5 -107.5t68.5 -30.5h10q42 0 56 -17.5t14 -76.5v-39q0 -60 -14.5 -83t-55.5 -31q-20 -4 -61 -4q-139 0 -222.5 81t-83.5 248z" />
<glyph unicode="m" horiz-adv-x="1677" d="M100 115v520q0 201 112 307.5t327 106.5q213 0 303 -131q93 131 301 131q223 0 328.5 -103t105.5 -311v-520q0 -69 -23 -92t-92 -23h-39q-69 0 -91.5 23t-22.5 92v520q0 85 -33.5 123.5t-132.5 38.5q-104 0 -139 -38.5t-35 -123.5v-520q0 -69 -23 -92t-92 -23h-31 q-69 0 -91.5 23t-22.5 92v520q0 85 -34 123.5t-136 38.5q-101 0 -135.5 -38.5t-34.5 -123.5v-520q0 -69 -23 -92t-92 -23h-39q-69 0 -92 23t-23 92z" />
<glyph unicode="n" horiz-adv-x="1130" d="M100 115v520q0 202 118 308t349 106q240 0 351.5 -102.5t111.5 -311.5v-520q0 -69 -23 -92t-92 -23h-38q-69 0 -92 23t-23 92v520q0 43 -7 70t-27 49.5t-59.5 32.5t-101.5 10t-101.5 -10t-60.5 -32.5t-28.5 -50t-7.5 -69.5v-520q0 -69 -23 -92t-92 -23h-39q-69 0 -92 23 t-23 92z" />
<glyph unicode="o" horiz-adv-x="1138" d="M80 430v164q0 220 126 337.5t365 117.5q250 0 369 -113t119 -342v-164q0 -221 -125 -338t-363 -117q-250 0 -370.5 113t-120.5 342zM348 430q0 -106 46 -154.5t177 -48.5q130 0 175 48t45 155v164q0 107 -45 155t-175 48q-131 0 -177 -48.5t-46 -154.5v-164z" />
<glyph unicode="p" horiz-adv-x="1157" d="M100 -295v895q0 117 38 205.5t105.5 140.5t154 77.5t190.5 25.5q239 0 364 -107.5t125 -341.5v-164q0 -222 -109 -341.5t-321 -119.5q-194 0 -280 117v-387q0 -69 -23 -92t-92 -23h-37q-69 0 -92 23t-23 92zM367 430q0 -106 46 -154.5t177 -48.5q68 0 112 12.5t67 40.5 t31.5 62.5t8.5 87.5v164q0 53 -8 87.5t-31 62.5t-67 40.5t-113 12.5q-131 0 -177 -48.5t-46 -154.5v-164z" />
<glyph unicode="q" horiz-adv-x="1157" d="M80 436v164q0 234 125 341.5t364 107.5q104 0 190.5 -25.5t154 -77.5t105.5 -140.5t38 -205.5v-895q0 -69 -23 -92t-92 -23h-37q-69 0 -91.5 23t-22.5 92v387q-86 -117 -281 -117q-212 0 -321 119.5t-109 341.5zM348 430q0 -53 8.5 -87.5t31.5 -62.5t67 -40.5t112 -12.5 q131 0 177.5 48.5t46.5 154.5v164q0 106 -46.5 154.5t-177.5 48.5q-69 0 -113 -12.5t-67 -40.5t-31 -62.5t-8 -87.5v-164z" />
<glyph unicode="r" horiz-adv-x="696" d="M100 115v561q0 182 108 277.5t318 95.5h23q60 0 82 -30t22 -101v-23q0 -67 -20 -85q-16 -14 -58 -14q-12 0 -26 1h-23q-94 0 -125.5 -33.5t-31.5 -108.5v-540q0 -69 -23 -92t-92 -23h-39q-69 0 -92 23t-23 92z" />
<glyph unicode="s" horiz-adv-x="958" d="M70 137v23q0 70 23 92q13 12 38 12q21 0 51 -8q120 -33 279 -33q90 0 123.5 12.5t33.5 47.5q0 27 -24 43.5t-105 50.5l-190 80q-108 45 -160.5 109t-52.5 182q0 153 98 227t320 74q113 0 217 -25q68 -15 90.5 -41t22.5 -94v-21q0 -70 -24 -90q-13 -10 -38 -10 q-22 0 -53 8q-108 25 -219 25q-88 0 -120 -13.5t-32 -42.5q0 -23 17 -35.5t67 -33.5l213 -84q122 -47 179 -115.5t57 -191.5q0 -159 -103.5 -234.5t-337.5 -75.5q-147 0 -258 27q-67 15 -89.5 41t-22.5 94z" />
<glyph unicode="t" horiz-adv-x="892" d="M29 874v9q0 62 20 86.5t80 36.5l84 18l25 162q9 63 33 83.5t89 20.5h13q65 0 85.5 -21t20.5 -85v-160h234q69 0 91.5 -23t22.5 -92v-22q0 -69 -22.5 -92t-91.5 -23h-234v-405q0 -138 129 -138q79 0 144 13q32 5 53 5q26 1 38 -7q21 -14 21 -82v-23q0 -70 -23 -101 t-89 -44q-58 -13 -144 -13q-89 0 -158 19.5t-124 63.5t-84 122t-29 187v403h-82q-61 0 -81.5 20t-20.5 82z" />
<glyph unicode="u" horiz-adv-x="1130" d="M100 389v520q0 69 23 92t92 23h39q69 0 92 -23t23 -92v-520q0 -42 7.5 -69.5t28.5 -50t60.5 -32.5t101.5 -10t101.5 10t59.5 32.5t27 49.5t7 70v520q0 69 23 92t92 23h38q69 0 92 -23t23 -92v-520q0 -209 -111.5 -311.5t-351.5 -102.5q-231 0 -349 106t-118 308z" />
<glyph unicode="v" horiz-adv-x="1126" d="M68 911q-7 31 -7 52q0 27 10 39q18 22 87 22h45q69 0 96.5 -22.5t42.5 -90.5l135 -618q11 -54 29.5 -70t56.5 -16q39 0 57 15.5t29 70.5l135 618q15 68 43 90.5t97 22.5h45q69 0 87 -22q10 -12 10 -39q0 -22 -7 -52l-150 -649q-12 -52 -22 -84.5t-27.5 -69t-41 -58 t-58.5 -40.5t-83.5 -27t-113.5 -8t-113.5 8t-83.5 26.5t-58.5 40t-41 58t-27.5 69.5t-22 85z" />
<glyph unicode="w" horiz-adv-x="1732" d="M74 911q-3 22 -3 39q0 36 13 52q19 22 88 22h45q69 0 94.5 -23t34.5 -92l78 -616q7 -55 20 -70.5t45 -15.5q30 0 45 17t21 69l66 528q14 109 68.5 156t176.5 47q118 0 175 -43t71 -160l66 -528q6 -53 20 -69.5t45 -16.5t45 16t21 70l77 616q9 69 35 92t95 23h45 q69 0 88 -22q13 -15 13 -52q0 -17 -3 -39l-90 -649q-8 -56 -20 -96.5t-35 -78.5t-57 -61t-88 -37t-126 -14q-78 0 -131.5 19.5t-84.5 60.5t-46 88.5t-23 118.5l-57 467q-5 41 -10.5 52.5t-24.5 11.5t-24.5 -11.5t-10.5 -52.5l-57 -467q-8 -70 -23 -117.5t-45.5 -88.5 t-84.5 -61t-132 -20q-90 0 -150.5 19t-95.5 59.5t-52 88t-27 120.5z" />
<glyph unicode="x" horiz-adv-x="1191" d="M72 20q-3 5 -3 13q0 22 25 67l158 275q8 13 23.5 40t20.5 35.5t16 26t16.5 23.5t15.5 16.5t19 16.5t20 12q-34 17 -54.5 44t-63.5 105q-8 15 -13 23l-117 207q-25 45 -25 67q0 8 2 13q12 20 81 20h63q70 0 103 -19.5t63 -80.5l90 -176q29 -57 42.5 -71.5t41.5 -14.5 t41.5 14.5t42.5 71.5l90 176q30 61 63 80.5t103 19.5h63q69 0 81 -20q3 -5 2 -13q0 -22 -25 -67l-117 -207q-5 -10 -16.5 -30.5t-15.5 -27.5t-13 -22.5t-12.5 -20.5t-11 -16t-11.5 -15.5t-11 -12t-13 -11t-13.5 -8t-15.5 -8.5q10 -5 19 -11t16 -11.5t15.5 -16t13.5 -17 t15 -22.5t15 -25t18 -31.5t21 -35.5l158 -275q25 -45 25 -67q-1 -8 -3 -13q-12 -20 -80 -20h-65q-69 0 -102.5 20t-65.5 80l-129 244q-31 59 -43 72.5t-39 13.5t-39 -13.5t-43 -72.5l-129 -244q-32 -60 -65.5 -80t-102.5 -20h-65q-68 0 -80 20z" />
<glyph unicode="y" horiz-adv-x="1126" d="M68 911q-7 31 -7 52q0 26 10 39q18 22 87 22h45q69 0 96.5 -22.5t42.5 -90.5l135 -618q11 -55 31 -70.5t65 -15.5q29 0 47 17t29 69l135 618q15 68 43 90.5t97 22.5h45q69 0 87 -22q10 -13 10 -39q0 -21 -7 -52l-209 -911q-27 -118 -71.5 -204.5t-103.5 -138.5 t-123.5 -80t-143.5 -40q-28 -4 -49 -4q-33 0 -49 10q-25 17 -40 88l-2 11q-8 34 -8 57q0 22 8 34q14 25 78 38q183 42 223 213q-27 -9 -84 -9q-54 0 -95 15t-67.5 37.5t-47.5 62.5t-33 77.5t-25 94.5z" />
<glyph unicode="z" horiz-adv-x="1005" d="M61 236q0 41 6.5 74t24.5 70.5t56.5 72t95.5 63.5l420 213q36 19 36 35q0 11 -9 14.5t-34 3.5h-419q-69 0 -92 23t-23 92v12q0 69 23 92t92 23h450q145 0 200.5 -54.5t55.5 -181.5q0 -101 -34.5 -161.5t-147.5 -118.5l-420 -213q-37 -18 -37 -35q0 -12 8 -15t35 -3h481 q69 0 92 -23t23 -92v-12q0 -69 -23 -92t-92 -23h-512q-133 0 -194.5 56.5t-61.5 179.5z" />
<glyph unicode="{" horiz-adv-x="870" d="M55 516v29q0 57 19 75.5t76 18.5h10q63 0 95 76.5t32 212.5v205q0 193 99.5 298t268.5 105h29q57 0 75.5 -18.5t18.5 -75.5v-29q0 -57 -18.5 -75.5t-75.5 -18.5h-29q-63 0 -93 -56t-30 -176v-198q0 -270 -170 -359q170 -84 170 -358v-235q0 -120 30 -176t93 -56h29 q57 0 75.5 -18.5t18.5 -75.5v-29q0 -57 -18.5 -75.5t-75.5 -18.5h-29q-165 0 -266.5 105t-101.5 298v242q0 137 -32 213t-95 76h-10q-57 0 -76 18.5t-19 75.5z" />
<glyph unicode="|" horiz-adv-x="552" d="M154 -406v1836q0 64 21 85t85 21h33q65 0 85.5 -21t20.5 -85v-1836q0 -64 -20.5 -85t-85.5 -21h-33q-64 0 -85 21t-21 85z" />
<glyph unicode="}" horiz-adv-x="870" d="M92 -389q0 57 18.5 75.5t75.5 18.5h29q63 0 93 56t30 176v235q0 274 170 358q-170 89 -170 359v198q0 120 -30 176t-93 56h-29q-57 0 -75.5 18.5t-18.5 75.5v29q0 57 18.5 75.5t75.5 18.5h29q169 0 269 -105t100 -298v-205q0 -136 32 -212.5t95 -76.5h10q57 0 75.5 -18.5 t18.5 -75.5v-29q0 -57 -18.5 -75.5t-75.5 -18.5h-10q-63 0 -95 -76t-32 -213v-242q0 -192 -102 -297.5t-267 -105.5h-29q-57 0 -75.5 18.5t-18.5 75.5v29z" />
<glyph unicode="~" horiz-adv-x="1175" d="M80 481q14 140 90 219.5t213 79.5q65 0 118.5 -19t89 -46.5t66 -55t64 -46.5t67.5 -19q27 0 46.5 9.5t30 27.5t15.5 32t9 33q11 50 27 63t69 13h25q56 0 73 -14t13 -60q-14 -139 -89 -219t-206 -80q-62 0 -115 19t-89.5 46.5t-69 54.5t-67.5 46t-71 19q-27 0 -46.5 -10 t-30.5 -28t-16 -34.5t-9 -38.5q-7 -44 -23 -54.5t-71 -10.5h-27q-58 0 -74 11.5t-12 61.5z" />
<glyph unicode="&#xa1;" horiz-adv-x="602" d="M141 889q0 66 47 113t113 47t113 -47t47 -113t-47 -113t-113 -47t-113 47t-47 113zM174 115q0 248 33 417q9 42 26.5 57t59.5 15h20q42 0 60 -15t26 -57q33 -169 33 -417v-303q0 -70 -24 -94.5t-95 -24.5h-20q-71 0 -95 24.5t-24 94.5v303z" />
<glyph unicode="&#xa2;" horiz-adv-x="878" d="M80 567v197q0 171 91 283.5t267 144.5v84q0 54 18 72t72 18h33q54 0 72 -18t18 -72v-80q34 -5 58 -10q62 -14 82 -38.5t20 -88.5v-39q0 -64 -23 -81.5t-86 -2.5q-58 14 -129 14q-124 0 -174.5 -39.5t-50.5 -150.5v-185q0 -108 57 -151t187 -43q68 0 133 14q64 12 84 -3 t20 -79v-37q0 -64 -21 -90.5t-83 -40.5q-37 -8 -74 -12v-78q0 -54 -18 -72t-72 -18h-33q-54 0 -72 18t-18 72v84q-358 56 -358 428z" />
<glyph unicode="&#xa3;" horiz-adv-x="1095" d="M35 651v25q0 51 16.5 67.5t67.5 16.5h92v108q0 245 113.5 364.5t351.5 119.5q70 0 153 -15q70 -12 91.5 -39t21.5 -98v-14q0 -72 -21 -92.5t-90 -10.5q-88 13 -145 13q-123 0 -162 -53.5t-39 -196.5v-86h254q51 0 67.5 -16.5t16.5 -67.5v-25q0 -51 -16.5 -67.5 t-67.5 -16.5h-254v-250q0 -32 15 -46.5t47 -14.5h375q70 0 94 -24t24 -95v-18q0 -71 -24 -95t-94 -24h-465q-129 0 -187.5 58.5t-58.5 187.5v321h-92q-51 0 -67.5 16.5t-16.5 67.5z" />
<glyph unicode="&#xa4;" horiz-adv-x="1409" d="M149.5 266q0.5 33 49.5 80l184 182q-31 60 -31 136q0 70 29 133l-184 184q-48 49 -47.5 82t49.5 82l24 24q49 49 82 49t80 -49l207 -206q59 16 115 16q53 0 112 -16l203 204q47 49 79.5 49t82.5 -49l24 -24q50 -47 50 -80t-50 -82l-178 -178q31 -64 31 -139 q0 -72 -33 -140l182 -176q50 -47 50 -79.5t-50 -82.5l-28 -28q-47 -50 -80 -50t-80 50l-207 209q-53 -15 -108 -15q-61 0 -113 15l-209 -209q-47 -50 -80 -50t-82 50l-26 26q-48 49 -47.5 82zM567 664q0 -60 40 -98t100 -38t99.5 38t39.5 98q0 62 -39 100.5t-100 38.5 t-100.5 -38.5t-39.5 -100.5z" />
<glyph unicode="&#xa5;" horiz-adv-x="1314" d="M85 1309.5q14 21.5 85 21.5h70q70 0 102.5 -22t58.5 -88l129 -324q40 -102 63 -129t64 -27t64 27t63 129l129 324q26 66 58.5 88t103.5 22h70q70 0 84 -21.5t-15 -86.5l-200 -432q-42 -89 -65.5 -122t-67.5 -57h182q47 0 63.5 -16.5t16.5 -63.5v-24q0 -47 -16.5 -63.5 t-63.5 -16.5h-266v-102h266q47 0 63.5 -16.5t16.5 -63.5v-25q0 -47 -16.5 -63.5t-63.5 -16.5h-266v-22q0 -71 -24.5 -95t-94.5 -24h-39q-71 0 -95 24t-24 95v22h-270q-47 0 -63.5 16.5t-16.5 63.5v25q0 47 16.5 63.5t63.5 16.5h270v102h-270q-47 0 -63.5 16.5t-16.5 63.5v24 q0 47 16.5 63.5t63.5 16.5h184q-44 24 -67.5 57t-65.5 122l-201 432q-29 65 -15 86.5z" />
<glyph unicode="&#xa6;" horiz-adv-x="552" d="M154 250q0 64 21 85t85 21h33q65 0 85.5 -21t20.5 -85v-656q0 -64 -20.5 -85t-85.5 -21h-33q-64 0 -85 21t-21 85v656zM154 817v613q0 64 21 85t85 21h33q65 0 85.5 -21t20.5 -85v-613q0 -65 -20.5 -85.5t-85.5 -20.5h-33q-64 0 -85 20.5t-21 85.5z" />
<glyph unicode="&#xa7;" horiz-adv-x="1099" d="M92 555q0 196 146 279q-75 57 -110.5 126.5t-35.5 167.5q0 171 109.5 256.5t347.5 85.5q130 0 244 -32q69 -19 90.5 -45.5t21.5 -94.5v-28q0 -69 -26.5 -89t-90.5 1q-98 32 -237 32q-96 0 -136 -20.5t-40 -75.5q0 -35 22 -61t90 -66l273 -160q63 -37 104.5 -70t76 -76.5 t51 -99t16.5 -126.5q0 -196 -140 -285q70 -57 105 -125.5t35 -165.5q0 -175 -119 -268.5t-383 -93.5q-155 0 -281 37q-69 21 -90.5 45.5t-21.5 91.5v29q0 70 25.5 91.5t88.5 0.5q119 -39 281 -39q119 0 168 24.5t49 87.5q0 43 -31.5 74.5t-132.5 91.5l-262 154 q-103 61 -155 142t-52 204zM365 582q0 -50 22.5 -89t93.5 -81l195 -115q31 19 45 49.5t14 85.5q0 21 -4 37.5t-18.5 43.5t-51.5 58.5t-94 63.5l-129 74q-39 -12 -56 -41.5t-17 -85.5z" />
<glyph unicode="&#xa8;" horiz-adv-x="866" d="M92 1675q0 58 41 100t98 42q59 0 100.5 -41.5t41.5 -100.5q0 -57 -42 -98t-100 -41q-57 0 -98 41t-41 98zM494 1675q0 59 41.5 100.5t99.5 41.5q57 0 98 -42t41 -100q0 -57 -41.5 -98t-97.5 -41q-58 0 -99.5 41t-41.5 98z" />
<glyph unicode="&#xa9;" horiz-adv-x="1746" d="M129 721q0 153 58.5 291t158 237.5t237 158t289.5 58.5q153 0 291 -58.5t237.5 -158t158.5 -237.5t59 -291q0 -203 -99.5 -374t-271 -270.5t-375.5 -99.5q-152 0 -289.5 59t-237 158.5t-158 237t-58.5 289.5zM283 721q0 -159 79 -294.5t215 -214.5t295 -79q160 0 296 79 t215 214.5t79 294.5q0 160 -79 296.5t-215 216t-296 79.5q-159 0 -295 -79.5t-215 -216t-79 -296.5zM532 635v184q0 171 106.5 252.5t293.5 81.5q48 0 98 -8q53 -9 71.5 -31t18.5 -76v-22q0 -53 -19.5 -68t-72.5 -4q-36 8 -88 8q-97 0 -139.5 -32.5t-42.5 -112.5v-172 q0 -141 184 -141q64 0 109 10q51 10 67.5 -6t16.5 -72v-20q0 -54 -16 -74.5t-68 -30.5q-45 -10 -113 -10q-200 0 -303 82.5t-103 261.5z" />
<glyph unicode="&#xab;" horiz-adv-x="1148" d="M55 512q0 37 12 64t44 65l182 219q40 49 74.5 65.5t99.5 16.5h33q64 0 71.5 -16t-32.5 -66l-246 -299q-23 -26 -23 -49t23 -49l246 -299q40 -50 32.5 -66t-71.5 -16h-33q-65 0 -99.5 16.5t-74.5 65.5l-182 219q-32 38 -44 65t-12 64zM506 512q0 37 12 64t43 65l182 219 q40 49 75 65.5t100 16.5h32q64 0 71.5 -16t-32.5 -66l-246 -299q-22 -25 -22 -49t22 -49l246 -299q40 -50 32.5 -66t-71.5 -16h-32q-65 0 -100 16.5t-75 65.5l-182 219q-31 38 -43 65t-12 64z" />
<glyph unicode="&#xac;" horiz-adv-x="1155" d="M55 860v29q0 58 20 78t79 20h659q129 0 187.5 -58.5t58.5 -187.5v-247q0 -64 -21.5 -85.5t-85.5 -21.5h-32q-64 0 -85.5 21.5t-21.5 85.5v206q0 32 -14.5 47t-46.5 15h-598q-59 0 -79 20t-20 78z" />
<glyph unicode="&#xad;" horiz-adv-x="868" d="M55 651v29q0 58 20 78t79 20h561q59 0 78.5 -20t19.5 -78v-29q0 -59 -19.5 -78.5t-78.5 -19.5h-561q-59 0 -79 20t-20 78z" />
<glyph unicode="&#xae;" horiz-adv-x="1746" d="M129 721q0 153 58.5 291t158 237.5t237 158t289.5 58.5q153 0 291 -58.5t237.5 -158t158.5 -237.5t59 -291q0 -203 -99.5 -374t-271 -270.5t-375.5 -99.5q-152 0 -289.5 59t-237 158.5t-158 237t-58.5 289.5zM283 721q0 -159 79 -294.5t215 -214.5t295 -79q160 0 296 79 t215 214.5t79 294.5q0 160 -79 296.5t-215 216t-296 79.5q-159 0 -295 -79.5t-215 -216t-79 -296.5zM573 410v475q0 129 58.5 187t187.5 58h96q145 0 223.5 -70t78.5 -196q0 -88 -37.5 -151.5t-102.5 -96.5l97 -215q24 -54 12.5 -72t-70.5 -18h-51q-58 0 -84.5 18t-48.5 74 l-70 191h-67v-184q0 -58 -20.5 -78.5t-78.5 -20.5h-24q-58 0 -78.5 20.5t-20.5 78.5zM795 780h112q43 0 61.5 17t18.5 59q0 41 -18.5 59.5t-61.5 18.5h-51q-32 0 -46.5 -15t-14.5 -47v-92z" />
<glyph unicode="&#xb0;" horiz-adv-x="854" d="M92 1202q0 142 97 238t239 96q140 0 237 -97t97 -237t-96.5 -236t-237.5 -96q-143 0 -239.5 94t-96.5 238zM289 1202q0 -61 39.5 -101t99.5 -40q55 0 96 41t41 100q0 62 -38.5 103t-98.5 41q-61 0 -100 -41t-39 -103z" />
<glyph unicode="&#xb1;" horiz-adv-x="1155" d="M96 98v29q0 58 20 78t79 20h260v328h-260q-59 0 -79 20t-20 78v29q0 58 20 78t79 20h260v252q0 65 21 86t85 21h33q64 0 85 -21t21 -86v-252h261q59 0 78.5 -20t19.5 -78v-29q0 -59 -19.5 -78.5t-78.5 -19.5h-261v-328h261q59 0 78.5 -19.5t19.5 -78.5v-29 q0 -58 -19.5 -78t-78.5 -20h-766q-59 0 -79 20t-20 78z" />
<glyph unicode="&#xb4;" horiz-adv-x="645" d="M140.5 1554q-11.5 18 13.5 72l39 82q31 64 64.5 85.5t104.5 21.5h52q70 0 80.5 -20.5t-29.5 -78.5l-68 -98q-34 -49 -64 -65.5t-89 -16.5h-33q-59 0 -70.5 18z" />
<glyph unicode="&#xb5;" horiz-adv-x="1150" d="M121 -295v1204q0 69 23 92t92 23h36q69 0 92 -23t23 -92v-536q0 -75 43 -110.5t158 -35.5q62 0 101 10t59 32.5t27 49.5t7 70v520q0 69 23 92t92 23h39q69 0 92 -23t23 -92v-520q0 -187 -114.5 -300.5t-287.5 -113.5q-73 0 -146.5 28t-115.5 89v-387q0 -69 -23 -92 t-92 -23h-36q-69 0 -92 23t-23 92z" />
<glyph unicode="&#xb6;" horiz-adv-x="1243" d="M43 911q0 185 126.5 302.5t354.5 117.5h332q129 0 187.5 -58.5t58.5 -187.5v-1196q0 -54 -18 -72t-72 -18h-33q-54 0 -72 18t-18 72v1119q0 54 -24.5 78t-78.5 24h-110v-659q0 -211 -60 -359.5t-208 -273.5q-27 -23 -44 -26.5t-30 8t-33 44.5l-18 29q-30 45 -29.5 67.5 t39.5 55.5q170 143 170 455v43q-179 0 -299.5 119.5t-120.5 297.5z" />
<glyph unicode="&#xb7;" horiz-adv-x="491" d="M86 666q0 66 47 112.5t113 46.5t113 -46.5t47 -112.5t-47 -113t-113 -47t-113 47t-47 113z" />
<glyph unicode="&#xb8;" horiz-adv-x="536" d="M96 -328q0 38 10.5 50t45.5 8q16 -2 34 -2q70 0 70 49q0 55 -68 55h-8q-37 -3 -46.5 8.5t-0.5 46.5l39 164h141l-26 -125q83 0 122.5 -32.5t39.5 -114.5q0 -102 -55 -147.5t-175 -45.5q-37 0 -61 4q-37 4 -49.5 18.5t-12.5 51.5v12z" />
<glyph unicode="&#xbb;" horiz-adv-x="1148" d="M127.5 98q-7.5 16 32.5 66l246 299q22 25 22 49t-22 49l-246 299q-40 50 -32.5 66t71.5 16h32q65 0 100 -16.5t75 -65.5l182 -219q31 -38 43 -65t12 -64t-12 -64t-43 -65l-182 -219q-40 -49 -75 -65.5t-100 -16.5h-32q-64 0 -71.5 16zM577.5 98q-7.5 16 32.5 66l246 299 q23 26 23 49t-23 49l-246 299q-40 50 -32.5 66t71.5 16h33q65 0 99.5 -16.5t74.5 -65.5l182 -219q32 -38 44 -65t12 -64t-12 -64t-44 -65l-182 -219q-40 -49 -74.5 -65.5t-99.5 -16.5h-33q-64 0 -71.5 16z" />
<glyph unicode="&#xbf;" horiz-adv-x="909" d="M98 76q0 65 15 119.5t37 92t60 72t70.5 56t81.5 49.5q84 41 111 80q35 48 57.5 59.5t87.5 11.5h21q81 0 100.5 -15.5t10.5 -72.5q-18 -124 -224 -258q-58 -37 -85.5 -59t-47.5 -56.5t-20 -78.5q0 -86 40.5 -117t149.5 -31q45 0 129 13q72 11 95.5 -8t23.5 -89v-26 q0 -68 -24 -95.5t-97 -37.5q-91 -11 -127 -11q-238 0 -351.5 92t-113.5 310zM469 891q0 66 47 113t113 47t112.5 -47t46.5 -113t-46.5 -113t-112.5 -47t-113 47t-47 113z" />
<glyph unicode="&#xc0;" d="M73.5 23q-17.5 23 0.5 92l229 848q18 64 30.5 105t31 86.5t37 73t45 54t58.5 40t74 22t95 8.5q62 0 108.5 -9.5t82 -33.5t60 -51.5t47 -77.5t37 -95.5t35.5 -121.5l230 -848q18 -69 0.5 -92t-88.5 -23h-39q-71 0 -101 23t-49 92l-53 209h-541l-53 -209q-19 -69 -48.5 -92 t-100.5 -23h-39q-71 0 -88.5 23zM424 1704q11 20 82 20h43q71 0 105 -22t63 -86l35 -80q24 -54 12.5 -72t-70.5 -18h-26q-59 0 -89.5 16.5t-62.5 65.5l-63 98q-40 58 -29 78zM467 569h412l-99 381q-27 102 -43.5 129t-62.5 27t-63 -27.5t-44 -128.5z" />
<glyph unicode="&#xc1;" d="M73.5 23q-17.5 23 0.5 92l229 848q18 64 30.5 105t31 86.5t37 73t45 54t58.5 40t74 22t95 8.5q62 0 108.5 -9.5t82 -33.5t60 -51.5t47 -77.5t37 -95.5t35.5 -121.5l230 -848q18 -69 0.5 -92t-88.5 -23h-39q-71 0 -101 23t-49 92l-53 209h-541l-53 -209q-19 -69 -48.5 -92 t-100.5 -23h-39q-71 0 -88.5 23zM467 569h412l-99 381q-27 102 -43.5 129t-62.5 27t-63 -27.5t-44 -128.5zM580.5 1464q-11.5 18 13.5 72l39 82q30 64 64.5 85t105.5 21h51q70 0 80.5 -20t-29.5 -78l-67 -98q-34 -49 -64.5 -65.5t-89.5 -16.5h-33q-59 0 -70.5 18z" />
<glyph unicode="&#xc2;" d="M73.5 23q-17.5 23 0.5 92l229 848q18 64 30.5 105t31 86.5t37 73t45 54t58.5 40t74 22t95 8.5q62 0 108.5 -9.5t82 -33.5t60 -51.5t47 -77.5t37 -95.5t35.5 -121.5l230 -848q18 -69 0.5 -92t-88.5 -23h-39q-71 0 -101 23t-49 92l-53 209h-541l-53 -209q-19 -69 -48.5 -92 t-100.5 -23h-39q-71 0 -88.5 23zM401 1461q-8 15 21 61l80 118q32 49 67.5 66.5t102.5 17.5t102.5 -17.5t67.5 -66.5l80 -118q29 -46 21 -61t-62 -15h-23q-54 0 -81.5 15t-55.5 61l-12 18q-18 27 -37 27q-18 0 -37 -27l-12 -18q-28 -45 -56 -60.5t-82 -15.5h-22 q-54 0 -62 15zM467 569h412l-99 381q-27 102 -43.5 129t-62.5 27t-63 -27.5t-44 -128.5z" />
<glyph unicode="&#xc3;" d="M73.5 23q-17.5 23 0.5 92l229 848q18 64 30.5 105t31 86.5t37 73t45 54t58.5 40t74 22t95 8.5q62 0 108.5 -9.5t82 -33.5t60 -51.5t47 -77.5t37 -95.5t35.5 -121.5l230 -848q18 -69 0.5 -92t-88.5 -23h-39q-71 0 -101 23t-49 92l-53 209h-541l-53 -209q-19 -69 -48.5 -92 t-100.5 -23h-39q-71 0 -88.5 23zM303 1503q24 226 232 226q61 0 117 -27.5t98 -54.5t67 -27q43 0 57 43q13 38 25.5 48.5t52.5 10.5h19q42 0 57 -16t10 -51q-28 -213 -229 -213q-48 0 -94.5 17t-75.5 37t-60.5 37t-52.5 17q-46 0 -57 -43q-11 -39 -23.5 -49t-54.5 -10h-18 q-47 0 -60.5 8t-9.5 47zM467 569h412l-99 381q-27 102 -43.5 129t-62.5 27t-63 -27.5t-44 -128.5z" />
<glyph unicode="&#xc4;" d="M73.5 23q-17.5 23 0.5 92l229 848q18 64 30.5 105t31 86.5t37 73t45 54t58.5 40t74 22t95 8.5q62 0 108.5 -9.5t82 -33.5t60 -51.5t47 -77.5t37 -95.5t35.5 -121.5l230 -848q18 -69 0.5 -92t-88.5 -23h-39q-71 0 -101 23t-49 92l-53 209h-541l-53 -209q-19 -69 -48.5 -92 t-100.5 -23h-39q-71 0 -88.5 23zM332 1585q0 58 41 99.5t98 41.5q59 0 100 -41t41 -100q0 -57 -41.5 -98t-99.5 -41q-57 0 -98 41t-41 98zM467 569h412l-99 381q-27 102 -43.5 129t-62.5 27t-63 -27.5t-44 -128.5zM733 1585q0 59 41.5 100t99.5 41q57 0 98.5 -41.5 t41.5 -99.5q0 -57 -42 -98t-98 -41q-58 0 -99.5 41t-41.5 98z" />
<glyph unicode="&#xc5;" d="M73.5 23q-17.5 23 0.5 92l229 848q18 64 30.5 105t31 86.5t37 73t45 54t58.5 40t74 22t95 8.5q62 0 108.5 -9.5t82 -33.5t60 -51.5t47 -77.5t37 -95.5t35.5 -121.5l230 -848q18 -69 0.5 -92t-88.5 -23h-39q-71 0 -101 23t-49 92l-53 209h-541l-53 -209q-19 -69 -48.5 -92 t-100.5 -23h-39q-71 0 -88.5 23zM467 569h412l-99 381q-27 102 -43.5 129t-62.5 27t-63 -27.5t-44 -128.5zM477 1585q0 93 58 145t137 52q81 0 138.5 -52t57.5 -145q0 -90 -57.5 -141t-138.5 -51q-79 0 -137 51t-58 141zM598 1585q0 -31 21 -51.5t53 -20.5t54 20.5t22 51.5 q0 33 -21.5 54.5t-54.5 21.5q-32 0 -53 -21t-21 -55z" />
<glyph unicode="&#xc6;" horiz-adv-x="1880" d="M73.5 23q-17.5 23 2.5 92l243 827q31 105 60.5 170.5t76 118.5t112 76.5t159.5 23.5h934q71 0 95 -24.5t24 -94.5v-18q0 -70 -24 -94.5t-95 -24.5h-498q-32 0 -46.5 -14.5t-14.5 -46.5v-205h477q71 0 95 -24.5t24 -94.5v-18q0 -70 -24 -94.5t-95 -24.5h-477v-236 q0 -32 14.5 -46.5t46.5 -14.5h498q71 0 95 -24t24 -95v-18q0 -71 -24 -95t-95 -24h-588q-129 0 -187.5 58.5t-58.5 187.5v78h-419l-58 -209q-20 -69 -50.5 -92t-100.5 -23h-37q-71 0 -88.5 23zM477 569h350v455v51h-120q-32 0 -52.5 -8t-35 -30.5t-23 -45.5t-21.5 -69z" />
<glyph unicode="&#xc7;" horiz-adv-x="1095" d="M100 489v328q0 252 146 393.5t436 141.5q140 0 231 -35q69 -26 92 -53.5t23 -94.5v-16q0 -72 -25 -92.5t-94 0.5q-118 35 -227 35q-158 0 -228.5 -68t-70.5 -211v-328q0 -45 7.5 -81t28.5 -70.5t54.5 -57t89 -36t129.5 -13.5q106 0 221 31q68 19 91.5 -1t23.5 -91v-16 q0 -69 -22.5 -96.5t-90.5 -51.5q-94 -29 -213 -31l-10 -49q83 0 122.5 -32.5t39.5 -114.5q0 -102 -55 -147.5t-174 -45.5q-38 0 -62 4q-37 4 -49 18.5t-12 51.5v12q0 39 10 50.5t45 7.5q16 -2 35 -2q70 0 70 49q0 55 -68 55h-8q-37 -3 -46.5 8.5t-0.5 46.5l22 95 q-230 22 -345.5 144t-115.5 363z" />
<glyph unicode="&#xc8;" horiz-adv-x="1193" d="M141 246v839q0 129 58.5 187.5t187.5 58.5h588q71 0 95 -24.5t24 -94.5v-18q0 -70 -24 -94.5t-95 -24.5h-498q-32 0 -46.5 -14.5t-14.5 -46.5v-205h477q71 0 95 -24.5t24 -94.5v-18q0 -70 -24 -94.5t-95 -24.5h-477v-236q0 -32 14.5 -46.5t46.5 -14.5h498q71 0 95 -24 t24 -95v-18q0 -71 -24 -95t-95 -24h-588q-129 0 -187.5 58.5t-58.5 187.5zM371 1704q11 20 82 20h43q71 0 105 -22t63 -86l34 -80q25 -54 13.5 -72t-70.5 -18h-27q-59 0 -89 16.5t-62 65.5l-64 98q-39 58 -28 78z" />
<glyph unicode="&#xc9;" horiz-adv-x="1193" d="M141 246v839q0 129 58.5 187.5t187.5 58.5h588q71 0 95 -24.5t24 -94.5v-18q0 -70 -24 -94.5t-95 -24.5h-498q-32 0 -46.5 -14.5t-14.5 -46.5v-205h477q71 0 95 -24.5t24 -94.5v-18q0 -70 -24 -94.5t-95 -24.5h-477v-236q0 -32 14.5 -46.5t46.5 -14.5h498q71 0 95 -24 t24 -95v-18q0 -71 -24 -95t-95 -24h-588q-129 0 -187.5 58.5t-58.5 187.5zM562.5 1464q-11.5 18 12.5 72l39 82q30 64 64.5 85t105.5 21h52q70 0 80.5 -20t-29.5 -78l-68 -98q-34 -49 -64 -65.5t-89 -16.5h-33q-59 0 -70.5 18z" />
<glyph unicode="&#xca;" horiz-adv-x="1193" d="M141 246v839q0 129 58.5 187.5t187.5 58.5h588q71 0 95 -24.5t24 -94.5v-18q0 -70 -24 -94.5t-95 -24.5h-498q-32 0 -46.5 -14.5t-14.5 -46.5v-205h477q71 0 95 -24.5t24 -94.5v-18q0 -70 -24 -94.5t-95 -24.5h-477v-236q0 -32 14.5 -46.5t46.5 -14.5h498q71 0 95 -24 t24 -95v-18q0 -71 -24 -95t-95 -24h-588q-129 0 -187.5 58.5t-58.5 187.5zM366 1461q-8 15 21 61l80 118q32 49 67.5 66.5t102.5 17.5t102.5 -17.5t67.5 -66.5l80 -118q29 -46 21 -61t-62 -15h-23q-54 0 -81.5 15t-55.5 61l-12 18q-18 27 -37 27q-18 0 -37 -27l-12 -18 q-28 -46 -55.5 -61t-81.5 -15h-23q-54 0 -62 15z" />
<glyph unicode="&#xcb;" horiz-adv-x="1193" d="M141 246v839q0 129 58.5 187.5t187.5 58.5h588q71 0 95 -24.5t24 -94.5v-18q0 -70 -24 -94.5t-95 -24.5h-498q-32 0 -46.5 -14.5t-14.5 -46.5v-205h477q71 0 95 -24.5t24 -94.5v-18q0 -70 -24 -94.5t-95 -24.5h-477v-236q0 -32 14.5 -46.5t46.5 -14.5h498q71 0 95 -24 t24 -95v-18q0 -71 -24 -95t-95 -24h-588q-129 0 -187.5 58.5t-58.5 187.5zM297 1585q0 58 41 99.5t98 41.5q59 0 100.5 -41.5t41.5 -99.5q0 -57 -42 -98t-100 -41q-57 0 -98 41t-41 98zM698 1585q0 58 41.5 99.5t100.5 41.5q57 0 98 -41.5t41 -99.5q0 -57 -41.5 -98 t-97.5 -41q-58 0 -100 41t-42 98z" />
<glyph unicode="&#xcc;" horiz-adv-x="589" d="M29 1704q11 20 82 20h43q71 0 105 -22t63 -86l34 -80q25 -54 13.5 -72t-70.5 -18h-27q-59 0 -89 16.5t-62 65.5l-64 98q-39 58 -28 78zM158 119v1093q0 71 24 95t94 24h37q71 0 95 -24.5t24 -94.5v-1093q0 -71 -24 -95t-95 -24h-37q-70 0 -94 24t-24 95z" />
<glyph unicode="&#xcd;" horiz-adv-x="589" d="M158 119v1093q0 71 24 95t94 24h37q71 0 95 -24.5t24 -94.5v-1093q0 -71 -24 -95t-95 -24h-37q-70 0 -94 24t-24 95zM220.5 1464q-11.5 18 12.5 72l39 82q30 64 64.5 85t105.5 21h52q70 0 80.5 -20t-29.5 -78l-68 -98q-34 -49 -64 -65.5t-89 -16.5h-33q-59 0 -70.5 18z " />
<glyph unicode="&#xce;" horiz-adv-x="589" d="M24 1461q-8 15 21 61l80 118q32 49 67.5 66.5t102.5 17.5t102.5 -17.5t67.5 -66.5l80 -118q29 -46 21 -61t-62 -15h-23q-54 0 -81.5 15t-55.5 61l-12 18q-18 27 -37 27q-18 0 -37 -27l-12 -18q-28 -46 -55.5 -61t-81.5 -15h-23q-54 0 -62 15zM158 119v1093q0 71 24 95 t94 24h37q71 0 95 -24.5t24 -94.5v-1093q0 -71 -24 -95t-95 -24h-37q-70 0 -94 24t-24 95z" />
<glyph unicode="&#xcf;" horiz-adv-x="589" d="M-45 1585q0 58 41 99.5t98 41.5q59 0 100.5 -41.5t41.5 -99.5q0 -57 -42 -98t-100 -41q-57 0 -98 41t-41 98zM158 119v1093q0 71 24 95t94 24h37q71 0 95 -24.5t24 -94.5v-1093q0 -71 -24 -95t-95 -24h-37q-70 0 -94 24t-24 95zM356 1585q0 58 41.5 99.5t100.5 41.5 q57 0 98 -41.5t41 -99.5q0 -57 -41.5 -98t-97.5 -41q-58 0 -100 41t-42 98z" />
<glyph unicode="&#xd0;" horiz-adv-x="1339" d="M35 653v25q0 51 16.5 67.5t67.5 16.5h78v323q0 129 58 187.5t187 58.5h170q132 0 228.5 -15t174.5 -50.5t126 -95.5t73 -149t25 -212v-287q0 -274 -152.5 -398t-474.5 -124h-170q-129 0 -187 58.5t-58 187.5v323h-78q-51 0 -67.5 16.5t-16.5 67.5zM471 317 q0 -32 14.5 -46.5t46.5 -14.5h80q198 0 271 58.5t73 207.5v287q0 149 -73 207.5t-271 58.5h-80q-32 0 -46.5 -14.5t-14.5 -46.5v-252h86q51 0 67.5 -16.5t16.5 -67.5v-25q0 -51 -16.5 -67.5t-67.5 -16.5h-86v-252z" />
<glyph unicode="&#xd1;" horiz-adv-x="1400" d="M141 119v921q0 176 66 246t219 70q128 0 190 -53t97 -197l213 -858q6 -25 14.5 -34t22.5 -9q18 0 24 11.5t6 45.5v950q0 70 24.5 94.5t94.5 24.5h29q71 0 95 -24.5t24 -94.5v-921q0 -177 -64.5 -246.5t-210.5 -69.5q-132 0 -197 56t-102 202l-209 836q-8 35 -15.5 46 t-25.5 11q-19 0 -23.5 -11t-4.5 -50v-946q0 -71 -24 -95t-95 -24h-29q-70 0 -94.5 24t-24.5 95zM367 1503q24 226 231 226q48 0 94.5 -17t75.5 -37.5t60.5 -37.5t52.5 -17q43 0 57 43q13 38 25.5 48.5t52.5 10.5h18q42 0 57.5 -16t10.5 -51q-28 -213 -230 -213q-48 0 -94 17 t-75.5 37t-60.5 37t-52 17q-47 0 -58 -43q-11 -39 -23 -49t-54 -10h-19q-47 0 -60 8t-9 47z" />
<glyph unicode="&#xd2;" horiz-adv-x="1331" d="M100 518v287q0 100 15.5 178.5t54.5 149t102 117t162.5 73.5t231.5 27t231.5 -27t162.5 -73.5t102 -117t54 -149t15 -178.5v-287q0 -100 -15 -178.5t-54 -149t-102 -117t-162.5 -73.5t-231.5 -27t-231.5 27t-162.5 73.5t-102 117t-54.5 149t-15.5 178.5zM377 518 q0 -76 11 -125.5t41 -88.5t88 -57t149 -18t148.5 17.5t88 57.5t41 89t10.5 125v287q0 76 -10.5 125t-41 89t-88 57.5t-148.5 17.5t-149 -18t-88 -57t-41 -88.5t-11 -125.5v-287zM399 1704q11 20 82 20h43q71 0 105 -22t63 -86l35 -80q25 -54 13.5 -72t-70.5 -18h-27 q-59 0 -89 16.5t-62 65.5l-64 98q-40 58 -29 78z" />
<glyph unicode="&#xd3;" horiz-adv-x="1331" d="M100 518v287q0 100 15.5 178.5t54.5 149t102 117t162.5 73.5t231.5 27t231.5 -27t162.5 -73.5t102 -117t54 -149t15 -178.5v-287q0 -100 -15 -178.5t-54 -149t-102 -117t-162.5 -73.5t-231.5 -27t-231.5 27t-162.5 73.5t-102 117t-54.5 149t-15.5 178.5zM377 518 q0 -76 11 -125.5t41 -88.5t88 -57t149 -18t148.5 17.5t88 57.5t41 89t10.5 125v287q0 76 -10.5 125t-41 89t-88 57.5t-148.5 17.5t-149 -18t-88 -57t-41 -88.5t-11 -125.5v-287zM531.5 1464q-11.5 18 13.5 72l39 82q30 64 64.5 85t105.5 21h51q70 0 80.5 -20t-29.5 -78 l-68 -98q-34 -49 -64 -65.5t-89 -16.5h-33q-59 0 -70.5 18z" />
<glyph unicode="&#xd4;" horiz-adv-x="1331" d="M100 518v287q0 100 15.5 178.5t54.5 149t102 117t162.5 73.5t231.5 27t231.5 -27t162.5 -73.5t102 -117t54 -149t15 -178.5v-287q0 -100 -15 -178.5t-54 -149t-102 -117t-162.5 -73.5t-231.5 -27t-231.5 27t-162.5 73.5t-102 117t-54.5 149t-15.5 178.5zM377 518 q0 -76 11 -125.5t41 -88.5t88 -57t149 -18t148.5 17.5t88 57.5t41 89t10.5 125v287q0 76 -10.5 125t-41 89t-88 57.5t-148.5 17.5t-149 -18t-88 -57t-41 -88.5t-11 -125.5v-287zM395 1461q-8 15 21 61l80 118q32 49 67.5 66.5t102.5 17.5t102.5 -17.5t67.5 -66.5l79 -118 q29 -46 21 -61t-62 -15h-22q-54 0 -81.5 15t-55.5 61l-13 18q-18 27 -36 27t-37 -27l-13 -18q-28 -46 -55.5 -61t-81.5 -15h-22q-54 0 -62 15z" />
<glyph unicode="&#xd5;" horiz-adv-x="1331" d="M100 518v287q0 100 15.5 178.5t54.5 149t102 117t162.5 73.5t231.5 27t231.5 -27t162.5 -73.5t102 -117t54 -149t15 -178.5v-287q0 -100 -15 -178.5t-54 -149t-102 -117t-162.5 -73.5t-231.5 -27t-231.5 27t-162.5 73.5t-102 117t-54.5 149t-15.5 178.5zM297 1503 q24 226 231 226q48 0 94.5 -17t75.5 -37.5t60.5 -37.5t52.5 -17q43 0 57 43q13 38 25.5 48.5t52.5 10.5h19q42 0 57 -16t10 -51q-28 -213 -229 -213q-48 0 -94.5 17t-75.5 37t-60.5 37t-52.5 17q-46 0 -57 -43q-11 -39 -23.5 -49t-54.5 -10h-18q-47 0 -60.5 8t-9.5 47z M377 518q0 -76 11 -125.5t41 -88.5t88 -57t149 -18t148.5 17.5t88 57.5t41 89t10.5 125v287q0 76 -10.5 125t-41 89t-88 57.5t-148.5 17.5t-149 -18t-88 -57t-41 -88.5t-11 -125.5v-287z" />
<glyph unicode="&#xd6;" horiz-adv-x="1331" d="M100 518v287q0 100 15.5 178.5t54.5 149t102 117t162.5 73.5t231.5 27t231.5 -27t162.5 -73.5t102 -117t54 -149t15 -178.5v-287q0 -100 -15 -178.5t-54 -149t-102 -117t-162.5 -73.5t-231.5 -27t-231.5 27t-162.5 73.5t-102 117t-54.5 149t-15.5 178.5zM326 1585 q0 58 41 99.5t98 41.5q59 0 100 -41t41 -100q0 -57 -41.5 -98t-99.5 -41q-57 0 -98 41t-41 98zM377 518q0 -76 11 -125.5t41 -88.5t88 -57t149 -18t148.5 17.5t88 57.5t41 89t10.5 125v287q0 76 -10.5 125t-41 89t-88 57.5t-148.5 17.5t-149 -18t-88 -57t-41 -88.5 t-11 -125.5v-287zM727 1585q0 59 41.5 100t99.5 41q57 0 98.5 -41.5t41.5 -99.5q0 -57 -42 -98t-98 -41q-58 0 -99.5 41t-41.5 98z" />
<glyph unicode="&#xd7;" horiz-adv-x="1163" d="M133 346q0 29 41 70l248 250l-248 249q-41 41 -41 70t41 70l19 18q41 41 69.5 41t69.5 -41l250 -248l249 248q41 41 70 41t70 -41l18 -18q41 -41 41 -70t-41 -70l-248 -249l248 -250q41 -41 41 -70t-41 -70l-18 -18q-41 -41 -70 -41t-70 41l-249 248l-250 -248 q-41 -41 -69.5 -41t-69.5 41l-19 18q-41 41 -41 70z" />
<glyph unicode="&#xd8;" horiz-adv-x="1331" d="M100 518v287q0 100 15.5 178.5t54.5 149t102 117t162.5 73.5t231.5 27q151 0 258 -35l34 59q28 46 52.5 53t70.5 -20l21 -10q46 -28 53 -52.5t-20 -70.5l-35 -62q131 -128 131 -407v-287q0 -100 -15 -178.5t-54 -149t-102 -117t-162.5 -73.5t-231.5 -27q-153 0 -260 35 l-33 -57q-28 -46 -52.5 -53t-70.5 20l-21 10q-46 28 -52.5 52.5t20.5 70.5l32 60q-129 129 -129 407zM377 518q0 -110 20 -164l416 721q-62 19 -147 19q-91 0 -149 -18t-88 -57t-41 -88.5t-11 -125.5v-287zM510 250q58 -21 156 -21q91 0 148.5 17.5t88 57.5t41 89t10.5 125 v287q0 113 -26 172z" />
<glyph unicode="&#xd9;" horiz-adv-x="1316" d="M121 467v745q0 70 24.5 94.5t94.5 24.5h36q70 0 94.5 -24.5t24.5 -94.5v-745q0 -126 68.5 -181t195.5 -55q126 0 194.5 55t68.5 181v745q0 71 24 95t94 24h37q71 0 95 -24.5t24 -94.5v-745q0 -130 -40 -226.5t-113.5 -153.5t-169 -84.5t-214.5 -27.5q-120 0 -216 27.5 t-169 84.5t-113 153.5t-40 226.5zM391 1704q11 20 82 20h43q71 0 105 -22t63 -86l35 -80q25 -54 13.5 -72t-70.5 -18h-27q-59 0 -89.5 16.5t-62.5 65.5l-63 98q-40 58 -29 78z" />
<glyph unicode="&#xda;" horiz-adv-x="1316" d="M121 467v745q0 70 24.5 94.5t94.5 24.5h36q70 0 94.5 -24.5t24.5 -94.5v-745q0 -126 68.5 -181t195.5 -55q126 0 194.5 55t68.5 181v745q0 71 24 95t94 24h37q71 0 95 -24.5t24 -94.5v-745q0 -130 -40 -226.5t-113.5 -153.5t-169 -84.5t-214.5 -27.5q-120 0 -216 27.5 t-169 84.5t-113 153.5t-40 226.5zM582.5 1464q-11.5 18 13.5 72l39 82q30 64 64.5 85t105.5 21h51q70 0 80.5 -20t-29.5 -78l-67 -98q-34 -49 -64.5 -65.5t-89.5 -16.5h-33q-59 0 -70.5 18z" />
<glyph unicode="&#xdb;" horiz-adv-x="1316" d="M121 467v745q0 70 24.5 94.5t94.5 24.5h36q70 0 94.5 -24.5t24.5 -94.5v-745q0 -126 68.5 -181t195.5 -55q126 0 194.5 55t68.5 181v745q0 71 24 95t94 24h37q71 0 95 -24.5t24 -94.5v-745q0 -130 -40 -226.5t-113.5 -153.5t-169 -84.5t-214.5 -27.5q-120 0 -216 27.5 t-169 84.5t-113 153.5t-40 226.5zM387 1461q-8 15 21 61l79 118q32 49 67.5 66.5t102.5 17.5t102.5 -17.5t67.5 -66.5l80 -118q29 -46 21 -61t-62 -15h-22q-54 0 -81.5 15t-55.5 61l-13 18q-18 27 -37 27q-11 0 -18 -5.5t-18 -21.5l-13 -18q-28 -46 -55.5 -61t-81.5 -15h-22 q-54 0 -62 15z" />
<glyph unicode="&#xdc;" horiz-adv-x="1316" d="M121 467v745q0 70 24.5 94.5t94.5 24.5h36q70 0 94.5 -24.5t24.5 -94.5v-745q0 -126 68.5 -181t195.5 -55q126 0 194.5 55t68.5 181v745q0 71 24 95t94 24h37q71 0 95 -24.5t24 -94.5v-745q0 -130 -40 -226.5t-113.5 -153.5t-169 -84.5t-214.5 -27.5q-120 0 -216 27.5 t-169 84.5t-113 153.5t-40 226.5zM317 1585q0 58 41.5 99.5t98.5 41.5q59 0 100 -41t41 -100q0 -57 -41.5 -98t-99.5 -41q-57 0 -98.5 41t-41.5 98zM719 1585q0 59 41.5 100t99.5 41q57 0 98 -41.5t41 -99.5q0 -57 -41.5 -98t-97.5 -41q-58 0 -99.5 41t-41.5 98z" />
<glyph unicode="&#xdd;" d="M61.5 1310.5q12.5 20.5 83.5 20.5h70q71 0 105.5 -21t66.5 -85l160 -328q51 -103 72 -129.5t55 -26.5q35 0 55.5 26.5t71.5 129.5l160 328q32 64 66.5 85t105.5 21h69q71 0 84 -20.5t-20 -83.5l-289 -535q-50 -91 -78.5 -120.5t-85.5 -55.5v-397q0 -71 -24.5 -95 t-94.5 -24h-39q-70 0 -94 24t-24 95v397q-58 26 -87 55t-79 121l-289 535q-33 63 -20.5 83.5zM599.5 1464q-11.5 18 12.5 72l39 82q30 64 64.5 85t105.5 21h51q71 0 81.5 -20t-29.5 -78l-68 -98q-34 -49 -64.5 -65.5t-89.5 -16.5h-32q-59 0 -70.5 18z" />
<glyph unicode="&#xde;" horiz-adv-x="1251" d="M141 119v1093q0 70 24.5 94.5t94.5 24.5h37q71 0 95 -24.5t24 -94.5v-79h297q463 0 463 -447q0 -444 -463 -444h-297v-123q0 -71 -24 -95t-95 -24h-37q-70 0 -94.5 24t-24.5 95zM416 498h297q99 0 143.5 41t44.5 147q0 107 -45 149t-143 42h-297v-379z" />
<glyph unicode="&#xdf;" horiz-adv-x="1187" d="M121 115v776q0 249 117.5 355t359.5 106q212 0 310 -84t98 -262q0 -64 -26.5 -114t-64.5 -79.5t-76 -52t-64.5 -42.5t-26.5 -40q0 -17 35.5 -37t86 -44t101 -56t86 -86.5t35.5 -122.5q0 -192 -113.5 -274.5t-360.5 -82.5q-30 0 -40 2q-70 11 -92.5 36t-22.5 93v39 q0 66 22.5 81t94.5 7q18 -2 49 -2q113 0 149.5 18.5t36.5 69.5q0 29 -25 51.5t-63 37t-82 36.5t-82 48t-63 74.5t-25 113.5q0 55 26 100.5t63.5 74.5t75 53.5t63.5 50t26 51.5q0 46 -30 67t-109 21q-114 0 -154.5 -44t-40.5 -155v-784q0 -69 -22.5 -92t-91.5 -23h-45 q-69 0 -92 23t-23 92z" />
<glyph unicode="&#xe0;" horiz-adv-x="1017" d="M49 299q0 319 416 319h207v78q0 74 -53 99.5t-160 25.5q-85 0 -178 -12q-67 -9 -91 9.5t-24 86.5v8q0 66 22 91t88 34q85 11 166 11q241 0 368.5 -81t127.5 -272v-391q0 -166 -106 -248t-338 -82q-230 0 -337.5 81t-107.5 243zM305 1422q11 20 82 20h43q70 0 104.5 -22 t63.5 -87l35 -80q24 -54 12.5 -72t-70.5 -18h-26q-59 0 -89.5 16.5t-62.5 65.5l-63 98q-40 59 -29 79zM315 305q0 -28 10 -48.5t24.5 -31.5t39 -17t46.5 -7.5t54 -1.5q33 0 55 1.5t48.5 8.5t42 19t26.5 35t11 56v99h-211q-146 0 -146 -113z" />
<glyph unicode="&#xe1;" horiz-adv-x="1017" d="M49 299q0 319 416 319h207v78q0 74 -53 99.5t-160 25.5q-85 0 -178 -12q-67 -9 -91 9.5t-24 86.5v8q0 66 22 91t88 34q85 11 166 11q241 0 368.5 -81t127.5 -272v-391q0 -166 -106 -248t-338 -82q-230 0 -337.5 81t-107.5 243zM315 305q0 -28 10 -48.5t24.5 -31.5t39 -17 t46.5 -7.5t54 -1.5q33 0 55 1.5t48.5 8.5t42 19t26.5 35t11 56v99h-211q-146 0 -146 -113zM435.5 1181q-11.5 18 13.5 72l38 82q31 64 65 85.5t105 21.5h52q70 0 80.5 -20t-29.5 -79l-68 -98q-34 -49 -64 -65.5t-89 -16.5h-33q-59 0 -70.5 18z" />
<glyph unicode="&#xe2;" horiz-adv-x="1017" d="M49 299q0 319 416 319h207v78q0 74 -53 99.5t-160 25.5q-85 0 -178 -12q-67 -9 -91 9.5t-24 86.5v8q0 66 22 91t88 34q85 11 166 11q241 0 368.5 -81t127.5 -272v-391q0 -166 -106 -248t-338 -82q-230 0 -337.5 81t-107.5 243zM235 1180q-8 15 21 61l80 119 q32 49 67.5 66.5t102.5 17.5t102.5 -17.5t67.5 -66.5l80 -119q29 -46 21 -61t-62 -15h-23q-54 0 -81.5 15t-55.5 61l-12 19q-17 26 -37 26q-19 0 -37 -26l-12 -19q-28 -45 -56 -60.5t-82 -15.5h-22q-54 0 -62 15zM315 305q0 -28 10 -48.5t24.5 -31.5t39 -17t46.5 -7.5 t54 -1.5q33 0 55 1.5t48.5 8.5t42 19t26.5 35t11 56v99h-211q-146 0 -146 -113z" />
<glyph unicode="&#xe3;" horiz-adv-x="1017" d="M49 299q0 319 416 319h207v78q0 74 -53 99.5t-160 25.5q-85 0 -178 -12q-67 -9 -91 9.5t-24 86.5v8q0 66 22 91t88 34q85 11 166 11q241 0 368.5 -81t127.5 -272v-391q0 -166 -106 -248t-338 -82q-230 0 -337.5 81t-107.5 243zM139 1221q24 225 232 225q48 0 94 -17 t75.5 -37.5t60.5 -37.5t52 -17q44 0 58 43q13 39 25 49.5t52 10.5h19q42 0 57 -16.5t10 -51.5q-28 -213 -229 -213q-48 0 -94.5 17t-75.5 37.5t-60.5 37.5t-52.5 17q-46 0 -57 -43q-11 -39 -23.5 -49.5t-54.5 -10.5h-18q-47 0 -60.5 8.5t-9.5 47.5zM315 305q0 -28 10 -48.5 t24.5 -31.5t39 -17t46.5 -7.5t54 -1.5q33 0 55 1.5t48.5 8.5t42 19t26.5 35t11 56v99h-211q-146 0 -146 -113z" />
<glyph unicode="&#xe4;" horiz-adv-x="1017" d="M49 299q0 319 416 319h207v78q0 74 -53 99.5t-160 25.5q-85 0 -178 -12q-67 -9 -91 9.5t-24 86.5v8q0 66 22 91t88 34q85 11 166 11q241 0 368.5 -81t127.5 -272v-391q0 -166 -106 -248t-338 -82q-230 0 -337.5 81t-107.5 243zM186 1305q0 58 41.5 99.5t98.5 41.5 q58 0 99.5 -41t41.5 -100q0 -57 -41.5 -98.5t-99.5 -41.5q-57 0 -98.5 41.5t-41.5 98.5zM315 305q0 -28 10 -48.5t24.5 -31.5t39 -17t46.5 -7.5t54 -1.5q33 0 55 1.5t48.5 8.5t42 19t26.5 35t11 56v99h-211q-146 0 -146 -113zM588 1305q0 59 41 100t100 41q57 0 98 -41.5 t41 -99.5q0 -57 -41.5 -98.5t-97.5 -41.5q-58 0 -99.5 41.5t-41.5 98.5z" />
<glyph unicode="&#xe5;" horiz-adv-x="1017" d="M49 299q0 319 416 319h207v78q0 74 -53 99.5t-160 25.5q-85 0 -178 -12q-67 -9 -91 9.5t-24 86.5v8q0 66 22 91t88 34q85 11 166 11q241 0 368.5 -81t127.5 -272v-391q0 -166 -106 -248t-338 -82q-230 0 -337.5 81t-107.5 243zM311 1303q0 93 57.5 144.5t137.5 51.5 q81 0 138.5 -51.5t57.5 -144.5q0 -90 -58 -141.5t-138 -51.5q-79 0 -137 51.5t-58 141.5zM315 305q0 -28 10 -48.5t24.5 -31.5t39 -17t46.5 -7.5t54 -1.5q33 0 55 1.5t48.5 8.5t42 19t26.5 35t11 56v99h-211q-146 0 -146 -113zM432 1303q0 -31 21 -51.5t53 -20.5t54 20.5 t22 51.5q0 33 -21.5 54t-54.5 21q-32 0 -53 -21t-21 -54z" />
<glyph unicode="&#xe6;" horiz-adv-x="1646" d="M49 299q0 319 416 319h207v78q0 74 -53 99.5t-160 25.5q-88 0 -178 -12q-65 -9 -90 10.5t-25 83.5v12q0 64 24 89t89 34q71 11 163 11q136 0 239.5 -34.5t129.5 -105.5h8q20 63 111.5 101.5t208.5 38.5q223 0 335.5 -112t112.5 -331q0 -38 -4 -84q-6 -64 -31 -86t-90 -22 h-532v-31q0 -80 63.5 -118t204.5 -38q38 0 82 4t69.5 8t61 10.5t37.5 6.5q64 10 85 -7.5t21 -82.5v-35q0 -64 -20.5 -89t-85.5 -40q-118 -27 -252 -27q-136 0 -241 34.5t-128 99.5h-8q-14 -64 -106 -99t-219 -35q-230 0 -337.5 81t-107.5 243zM315 305q0 -28 10 -48.5 t24.5 -31.5t39 -17t46.5 -7.5t54 -1.5q33 0 55 1.5t48.5 8.5t42 19t26.5 35t11 56v99h-211q-146 0 -146 -113zM930 631h403v31q0 155 -203 155q-200 0 -200 -155v-31z" />
<glyph unicode="&#xe7;" horiz-adv-x="878" d="M80 414v196q0 202 125.5 320.5t363.5 118.5q65 0 133 -15q65 -14 87 -41t22 -96v-23q0 -69 -22.5 -88t-86.5 -4q-62 15 -129 15q-124 0 -174.5 -40t-50.5 -151v-184q0 -108 57 -151.5t187 -43.5q54 0 125 13q67 12 89.5 -7t22.5 -88v-20q0 -69 -21 -94t-89 -39 q-77 -17 -144 -17l-10 -49q83 0 122.5 -32.5t39.5 -114.5q0 -102 -55 -147.5t-174 -45.5q-38 0 -62 4q-37 4 -49 18.5t-12 51.5v12q0 39 10 50.5t45 7.5q16 -2 35 -2q70 0 70 49q0 55 -68 55h-8q-37 -3 -46.5 8.5t-0.5 46.5l22 99q-354 57 -354 428z" />
<glyph unicode="&#xe8;" horiz-adv-x="1064" d="M80 424v164q0 103 25 184t79.5 145t148.5 98t224 34q223 0 336 -112t113 -331q0 -34 -5 -80q-9 -69 -35 -90.5t-98 -21.5h-520v-31q0 -80 63.5 -118t204.5 -38q107 0 248 29q66 13 87.5 -7.5t21.5 -90.5v-23q0 -68 -20 -91.5t-89 -41.5q-105 -27 -250 -27 q-274 0 -404 107t-130 342zM291 1422q11 20 82 20h43q70 0 104.5 -22t63.5 -87l34 -80q25 -54 13.5 -72t-70.5 -18h-26q-59 0 -89.5 16.5t-62.5 65.5l-64 98q-39 59 -28 79zM348 631h404v31q0 155 -203 155q-201 0 -201 -155v-31z" />
<glyph unicode="&#xe9;" horiz-adv-x="1064" d="M80 424v164q0 103 25 184t79.5 145t148.5 98t224 34q223 0 336 -112t113 -331q0 -34 -5 -80q-9 -69 -35 -90.5t-98 -21.5h-520v-31q0 -80 63.5 -118t204.5 -38q107 0 248 29q66 13 87.5 -7.5t21.5 -90.5v-23q0 -68 -20 -91.5t-89 -41.5q-105 -27 -250 -27 q-274 0 -404 107t-130 342zM348 631h404v31q0 155 -203 155q-201 0 -201 -155v-31zM421.5 1181q-11.5 18 12.5 72l39 82q31 64 65 85.5t105 21.5h51q70 0 80.5 -20t-29.5 -79l-67 -98q-34 -49 -64.5 -65.5t-89.5 -16.5h-32q-59 0 -70.5 18z" />
<glyph unicode="&#xea;" horiz-adv-x="1064" d="M80 424v164q0 103 25 184t79.5 145t148.5 98t224 34q223 0 336 -112t113 -331q0 -34 -5 -80q-9 -69 -35 -90.5t-98 -21.5h-520v-31q0 -80 63.5 -118t204.5 -38q107 0 248 29q66 13 87.5 -7.5t21.5 -90.5v-23q0 -68 -20 -91.5t-89 -41.5q-105 -27 -250 -27 q-274 0 -404 107t-130 342zM241 1180q-8 15 21 61l80 119q32 49 67.5 66.5t102.5 17.5t102.5 -17.5t67.5 -66.5l80 -119q29 -46 21 -61t-62 -15h-23q-54 0 -81.5 15t-55.5 61l-12 19q-17 26 -37 26q-19 0 -37 -26l-12 -19q-28 -46 -55.5 -61t-81.5 -15h-23q-54 0 -62 15z M348 631h404v31q0 155 -203 155q-201 0 -201 -155v-31z" />
<glyph unicode="&#xeb;" horiz-adv-x="1064" d="M80 424v164q0 103 25 184t79.5 145t148.5 98t224 34q223 0 336 -112t113 -331q0 -34 -5 -80q-9 -69 -35 -90.5t-98 -21.5h-520v-31q0 -80 63.5 -118t204.5 -38q107 0 248 29q66 13 87.5 -7.5t21.5 -90.5v-23q0 -68 -20 -91.5t-89 -41.5q-105 -27 -250 -27 q-274 0 -404 107t-130 342zM203 1305q0 58 41 99.5t98 41.5q58 0 99.5 -41t41.5 -100q0 -57 -41.5 -98.5t-99.5 -41.5q-57 0 -98 41.5t-41 98.5zM348 631h404v31q0 155 -203 155q-201 0 -201 -155v-31zM604 1305q0 59 41 100t100 41q57 0 98.5 -41.5t41.5 -99.5 q0 -57 -42 -98.5t-98 -41.5q-58 0 -99.5 41.5t-41.5 98.5z" />
<glyph unicode="&#xec;" horiz-adv-x="507" d="M4 1422q11 20 82 20h43q70 0 104.5 -22t63.5 -87l35 -80q24 -54 12.5 -72t-70.5 -18h-26q-59 0 -89.5 16.5t-62.5 65.5l-63 98q-40 59 -29 79zM121 115v794q0 69 23 92t92 23h36q69 0 92 -23t23 -92v-794q0 -69 -23 -92t-92 -23h-36q-69 0 -92 23t-23 92z" />
<glyph unicode="&#xed;" horiz-adv-x="507" d="M121 115v794q0 69 23 92t92 23h36q69 0 92 -23t23 -92v-794q0 -69 -23 -92t-92 -23h-36q-69 0 -92 23t-23 92zM167.5 1181q-11.5 18 12.5 72l39 82q31 64 65 85.5t105 21.5h51q70 0 81 -20t-29 -79l-68 -98q-34 -49 -64.5 -65.5t-89.5 -16.5h-32q-59 0 -70.5 18z" />
<glyph unicode="&#xee;" horiz-adv-x="507" d="M-17 1180q-8 15 21 61l80 119q32 49 67.5 66.5t102.5 17.5t102.5 -17.5t67.5 -66.5l80 -119q29 -46 21 -61t-62 -15h-23q-54 0 -81.5 15t-55.5 61l-12 19q-17 26 -37 26q-19 0 -37 -26l-12 -19q-28 -46 -55.5 -61t-81.5 -15h-23q-54 0 -62 15zM121 115v794q0 69 23 92 t92 23h36q69 0 92 -23t23 -92v-794q0 -69 -23 -92t-92 -23h-36q-69 0 -92 23t-23 92z" />
<glyph unicode="&#xef;" horiz-adv-x="507" d="M-86 1305q0 58 41 99.5t98 41.5q59 0 100.5 -41.5t41.5 -99.5q0 -57 -42 -98.5t-100 -41.5q-57 0 -98 41.5t-41 98.5zM121 115v794q0 69 23 92t92 23h36q69 0 92 -23t23 -92v-794q0 -69 -23 -92t-92 -23h-36q-69 0 -92 23t-23 92zM315 1305q0 58 41.5 99.5t100.5 41.5 q57 0 98 -41.5t41 -99.5q0 -57 -41.5 -98.5t-97.5 -41.5q-58 0 -100 41.5t-42 98.5z" />
<glyph unicode="&#xf0;" horiz-adv-x="1167" d="M88 414q0 225 110 323.5t349 98.5q134 0 235 -39q-10 110 -45.5 183t-101.5 130l-141 -141q-31 -31 -51.5 -31t-51.5 31l-18 18q-31 31 -31 51.5t31 51.5l114 114q-72 30 -153 43q-67 13 -83.5 41t3.5 94l4 13q20 65 48.5 80.5t96.5 3.5q144 -27 271 -88l74 73 q31 31 51 31t51 -31l18 -18q31 -31 31 -51.5t-31 -51.5l-51 -51q80 -70 131.5 -148.5t85 -206.5t33.5 -296q0 -141 -14.5 -243t-51 -185.5t-98 -134t-154.5 -77t-223 -26.5q-438 0 -438 439zM362 414q0 -98 40.5 -140.5t132.5 -42.5q63 0 104 9t70.5 28.5t44.5 58.5 t21.5 91.5t6.5 134.5q-94 47 -227 47q-105 0 -149 -37.5t-44 -148.5z" />
<glyph unicode="&#xf1;" horiz-adv-x="1130" d="M100 115v520q0 202 118 308t349 106q240 0 351.5 -102.5t111.5 -311.5v-520q0 -69 -23 -92t-92 -23h-38q-69 0 -92 23t-23 92v520q0 43 -7 70t-27 49.5t-59.5 32.5t-101.5 10t-101.5 -10t-60.5 -32.5t-28.5 -50t-7.5 -69.5v-520q0 -69 -23 -92t-92 -23h-39q-69 0 -92 23 t-23 92zM190 1221q24 225 232 225q48 0 94.5 -17t75.5 -37.5t60.5 -37.5t52.5 -17q43 0 57 43q13 38 25.5 49t52.5 11h18q42 0 57.5 -16.5t10.5 -51.5q-28 -213 -230 -213q-61 0 -117 27.5t-98 54.5t-67 27q-47 0 -58 -43q-11 -40 -23 -50t-54 -10h-19q-47 0 -60.5 8.5 t-9.5 47.5z" />
<glyph unicode="&#xf2;" horiz-adv-x="1138" d="M80 430v164q0 220 126 337.5t365 117.5q250 0 369 -113t119 -342v-164q0 -221 -125 -338t-363 -117q-250 0 -370.5 113t-120.5 342zM311 1422q11 20 82 20h43q70 0 104.5 -22t63.5 -87l35 -80q25 -54 13.5 -72t-70.5 -18h-27q-59 0 -89.5 16.5t-62.5 65.5l-63 98 q-40 59 -29 79zM348 430q0 -106 46 -154.5t177 -48.5q130 0 175 48t45 155v164q0 107 -45 155t-175 48q-131 0 -177 -48.5t-46 -154.5v-164z" />
<glyph unicode="&#xf3;" horiz-adv-x="1138" d="M80 430v164q0 220 126 337.5t365 117.5q250 0 369 -113t119 -342v-164q0 -221 -125 -338t-363 -117q-250 0 -370.5 113t-120.5 342zM348 430q0 -106 46 -154.5t177 -48.5q130 0 175 48t45 155v164q0 107 -45 155t-175 48q-131 0 -177 -48.5t-46 -154.5v-164zM494.5 1181 q-11.5 18 13.5 72l39 82q31 64 65 85.5t105 21.5h51q70 0 80.5 -20t-29.5 -79l-67 -98q-34 -49 -64.5 -65.5t-89.5 -16.5h-33q-59 0 -70.5 18z" />
<glyph unicode="&#xf4;" horiz-adv-x="1138" d="M80 430v164q0 220 126 337.5t365 117.5q250 0 369 -113t119 -342v-164q0 -221 -125 -338t-363 -117q-250 0 -370.5 113t-120.5 342zM298 1180q-8 15 21 61l80 119q32 49 67.5 66.5t102.5 17.5t102.5 -17.5t67.5 -66.5l80 -119q29 -46 21 -61t-62 -15h-22q-54 0 -82 15.5 t-56 60.5l-12 19q-17 26 -37 26q-19 0 -37 -26l-12 -19q-28 -46 -55.5 -61t-81.5 -15h-23q-54 0 -62 15zM348 430q0 -106 46 -154.5t177 -48.5q130 0 175 48t45 155v164q0 107 -45 155t-175 48q-131 0 -177 -48.5t-46 -154.5v-164z" />
<glyph unicode="&#xf5;" horiz-adv-x="1138" d="M80 430v164q0 220 126 337.5t365 117.5q250 0 369 -113t119 -342v-164q0 -221 -125 -338t-363 -117q-250 0 -370.5 113t-120.5 342zM201 1221q24 225 231 225q48 0 94.5 -17t75.5 -37.5t60.5 -37.5t52.5 -17q43 0 57 43q13 38 25.5 49t52.5 11h18q42 0 57.5 -16.5 t10.5 -51.5q-28 -213 -229 -213q-48 0 -94.5 17t-75.5 37.5t-60.5 37.5t-52.5 17q-46 0 -57 -43q-11 -39 -23.5 -49.5t-54.5 -10.5h-19q-47 0 -60 8.5t-9 47.5zM348 430q0 -106 46 -154.5t177 -48.5q130 0 175 48t45 155v164q0 107 -45 155t-175 48q-131 0 -177 -48.5 t-46 -154.5v-164z" />
<glyph unicode="&#xf6;" horiz-adv-x="1138" d="M80 430v164q0 220 126 337.5t365 117.5q250 0 369 -113t119 -342v-164q0 -221 -125 -338t-363 -117q-250 0 -370.5 113t-120.5 342zM229 1305q0 58 41.5 99.5t98.5 41.5q59 0 100 -41t41 -100q0 -57 -41.5 -98.5t-99.5 -41.5q-57 0 -98.5 41.5t-41.5 98.5zM348 430 q0 -106 46 -154.5t177 -48.5q130 0 175 48t45 155v164q0 107 -45 155t-175 48q-131 0 -177 -48.5t-46 -154.5v-164zM631 1305q0 59 41.5 100t99.5 41q57 0 98 -41.5t41 -99.5q0 -57 -41.5 -98.5t-97.5 -41.5q-58 0 -99.5 41.5t-41.5 98.5z" />
<glyph unicode="&#xf7;" horiz-adv-x="1155" d="M96 651v29q0 58 20 78t79 20h766q59 0 78.5 -20t19.5 -78v-29q0 -59 -19.5 -78.5t-78.5 -19.5h-766q-59 0 -79 20t-20 78zM418 281q0 66 47 112.5t113 46.5t112.5 -47t46.5 -112t-46.5 -112.5t-112.5 -47.5t-113 47t-47 113zM418 1051q0 66 47 112.5t113 46.5t112.5 -47 t46.5 -112t-46.5 -112.5t-112.5 -47.5t-113 47t-47 113z" />
<glyph unicode="&#xf8;" horiz-adv-x="1138" d="M80 430v164q0 220 126 337.5t365 117.5q103 0 193 -23l20 35q23 40 45 46t62 -17l20 -13q40 -23 46 -44.5t-17 -61.5l-14 -23q133 -112 133 -354v-164q0 -221 -125 -338t-363 -117q-104 0 -194 23l-19 -33q-23 -40 -44.5 -45.5t-61.5 17.5l-21 10q-40 23 -45.5 44.5 t17.5 61.5l12 23q-135 112 -135 354zM348 430q0 -81 25 -127l282 488q-37 6 -84 6q-131 0 -177 -48.5t-46 -154.5v-164zM485 233q38 -6 86 -6q130 0 175 48t45 155v164q0 83 -25 129z" />
<glyph unicode="&#xf9;" horiz-adv-x="1130" d="M100 389v520q0 69 23 92t92 23h39q69 0 92 -23t23 -92v-520q0 -42 7.5 -69.5t28.5 -50t60.5 -32.5t101.5 -10t101.5 10t59.5 32.5t27 49.5t7 70v520q0 69 23 92t92 23h38q69 0 92 -23t23 -92v-520q0 -209 -111.5 -311.5t-351.5 -102.5q-231 0 -349 106t-118 308z M289 1424q11 20 82 20h43q70 0 104.5 -22t63.5 -87l34 -80q25 -54 13.5 -72t-70.5 -18h-27q-59 0 -89 16.5t-62 65.5l-64 99q-39 58 -28 78z" />
<glyph unicode="&#xfa;" horiz-adv-x="1130" d="M100 389v520q0 69 23 92t92 23h39q69 0 92 -23t23 -92v-520q0 -42 7.5 -69.5t28.5 -50t60.5 -32.5t101.5 -10t101.5 10t59.5 32.5t27 49.5t7 70v520q0 69 23 92t92 23h38q69 0 92 -23t23 -92v-520q0 -209 -111.5 -311.5t-351.5 -102.5q-231 0 -349 106t-118 308z M480.5 1181q-11.5 18 13.5 72l38 82q31 64 65 85.5t105 21.5h52q70 0 80.5 -20t-29.5 -79l-68 -98q-34 -49 -64 -65.5t-89 -16.5h-33q-59 0 -70.5 18z" />
<glyph unicode="&#xfb;" horiz-adv-x="1130" d="M100 389v520q0 69 23 92t92 23h39q69 0 92 -23t23 -92v-520q0 -42 7.5 -69.5t28.5 -50t60.5 -32.5t101.5 -10t101.5 10t59.5 32.5t27 49.5t7 70v520q0 69 23 92t92 23h38q69 0 92 -23t23 -92v-520q0 -209 -111.5 -311.5t-351.5 -102.5q-231 0 -349 106t-118 308z M284 1180q-8 15 21 61l80 119q32 49 67.5 66.5t102.5 17.5t102.5 -17.5t67.5 -66.5l80 -119q29 -46 21 -61t-62 -15h-23q-54 0 -81.5 15t-55.5 61l-12 19q-17 26 -37 26q-19 0 -37 -26l-12 -19q-28 -46 -55.5 -61t-81.5 -15h-23q-54 0 -62 15z" />
<glyph unicode="&#xfc;" horiz-adv-x="1130" d="M100 389v520q0 69 23 92t92 23h39q69 0 92 -23t23 -92v-520q0 -42 7.5 -69.5t28.5 -50t60.5 -32.5t101.5 -10t101.5 10t59.5 32.5t27 49.5t7 70v520q0 69 23 92t92 23h38q69 0 92 -23t23 -92v-520q0 -209 -111.5 -311.5t-351.5 -102.5q-231 0 -349 106t-118 308z M227 1305q0 58 41.5 99.5t98.5 41.5q59 0 100 -41t41 -100q0 -57 -41.5 -98.5t-99.5 -41.5q-57 0 -98.5 41.5t-41.5 98.5zM629 1305q0 59 41.5 100t99.5 41q57 0 98 -41.5t41 -99.5q0 -57 -41.5 -98.5t-97.5 -41.5q-58 0 -99.5 41.5t-41.5 98.5z" />
<glyph unicode="&#xfd;" horiz-adv-x="1126" d="M68 911q-15 68 3 90.5t87 22.5h45q69 0 96.5 -22.5t42.5 -90.5l135 -618q11 -55 31 -70.5t65 -15.5q29 0 47 17t29 69l135 618q15 68 43 90.5t97 22.5h45q69 0 87 -22.5t3 -90.5l-209 -911q-27 -118 -71.5 -204.5t-103.5 -138.5t-123.5 -80t-143.5 -40q-72 -11 -97.5 6 t-40.5 88l-2 11q-15 66 -0.5 91t78.5 38q183 42 223 213q-27 -9 -84 -9q-54 0 -95 15t-67.5 37.5t-47.5 62.5t-33 77.5t-25 94.5zM474.5 1181q-11.5 18 12.5 72l39 82q31 64 65 85.5t105 21.5h52q70 0 80.5 -20t-29.5 -79l-68 -98q-34 -49 -64 -65.5t-89 -16.5h-33 q-59 0 -70.5 18z" />
<glyph unicode="&#xfe;" horiz-adv-x="1157" d="M100 -295v1614q0 69 23 92t92 23h37q69 0 92 -23t23 -92v-387q86 117 280 117q212 0 321 -119.5t109 -341.5v-152q0 -222 -109 -341.5t-321 -119.5q-194 0 -280 117v-387q0 -69 -23 -92t-92 -23h-37q-69 0 -92 23t-23 92zM367 430q0 -106 46 -154.5t177 -48.5 q68 0 112 12.5t67 40.5t31.5 62.5t8.5 87.5v164q0 53 -8.5 87.5t-31.5 62.5t-67 40.5t-112 12.5q-131 0 -177 -48.5t-46 -154.5v-164z" />
<glyph unicode="&#xff;" horiz-adv-x="1126" d="M68 911q-15 68 3 90.5t87 22.5h45q69 0 96.5 -22.5t42.5 -90.5l135 -618q11 -55 31 -70.5t65 -15.5q29 0 47 17t29 69l135 618q15 68 43 90.5t97 22.5h45q69 0 87 -22.5t3 -90.5l-209 -911q-27 -118 -71.5 -204.5t-103.5 -138.5t-123.5 -80t-143.5 -40q-72 -11 -97.5 6 t-40.5 88l-2 11q-15 66 -0.5 91t78.5 38q183 42 223 213q-27 -9 -84 -9q-54 0 -95 15t-67.5 37.5t-47.5 62.5t-33 77.5t-25 94.5zM223 1305q0 58 41 99.5t98 41.5q59 0 100.5 -41.5t41.5 -99.5q0 -57 -42 -98.5t-100 -41.5q-57 0 -98 41.5t-41 98.5zM625 1305q0 59 41.5 100 t99.5 41q57 0 98 -41.5t41 -99.5q0 -57 -41.5 -98.5t-97.5 -41.5q-58 0 -99.5 41.5t-41.5 98.5z" />
<glyph unicode="&#x152;" horiz-adv-x="2000" d="M100 518v287q0 100 15.5 178.5t54.5 149t102 117t162.5 73.5t231.5 27q236 0 364 -109q55 90 213 90h539q70 0 94.5 -24.5t24.5 -94.5v-18q0 -70 -24.5 -94.5t-94.5 -24.5h-498q-32 0 -46.5 -14.5t-14.5 -46.5v-205h477q70 0 94.5 -24.5t24.5 -94.5v-18 q0 -70 -24.5 -94.5t-94.5 -24.5h-477v-236q0 -32 14.5 -46.5t46.5 -14.5h498q70 0 94.5 -24t24.5 -95v-18q0 -71 -24.5 -95t-94.5 -24h-539q-152 0 -209 84q-127 -111 -368 -111q-132 0 -231.5 27t-162.5 73.5t-102 117t-54.5 149t-15.5 178.5zM377 518q0 -76 11 -125.5 t41 -88.5t88 -57t149 -18t148.5 17.5t88 57.5t41 89t10.5 125v287q0 76 -10.5 125t-41 89t-88 57.5t-148.5 17.5t-149 -18t-88 -57t-41 -88.5t-11 -125.5v-287z" />
<glyph unicode="&#x153;" horiz-adv-x="1765" d="M80 430v164q0 220 126 337.5t365 117.5q242 0 351 -136q107 136 335 136q223 0 336 -112t113 -331q0 -36 -4 -86q-6 -64 -30 -85t-89 -21h-534v-31q0 -80 63.5 -118t204.5 -38q114 0 248 29q63 13 85.5 -5t22.5 -83v-39q0 -64 -22 -89.5t-86 -37.5q-138 -27 -250 -27 q-283 0 -400 140q-113 -140 -344 -140q-250 0 -370.5 113t-120.5 342zM348 430q0 -106 46 -154.5t177 -48.5q130 0 175 48t45 155v164q0 107 -45 155t-175 48q-131 0 -177 -48.5t-46 -154.5v-164zM1049 631h403v31q0 155 -203 155q-200 0 -200 -155v-31z" />
<glyph unicode="&#x178;" d="M61.5 1310.5q12.5 20.5 83.5 20.5h70q71 0 105.5 -21t66.5 -85l160 -328q51 -103 72 -129.5t55 -26.5q35 0 55.5 26.5t71.5 129.5l160 328q32 64 66.5 85t105.5 21h69q71 0 84 -20.5t-20 -83.5l-289 -535q-50 -91 -78.5 -120.5t-85.5 -55.5v-397q0 -71 -24.5 -95 t-94.5 -24h-39q-70 0 -94 24t-24 95v397q-58 26 -87 55t-79 121l-289 535q-33 63 -20.5 83.5zM334 1585q0 58 41 99.5t98 41.5q59 0 100 -41t41 -100q0 -57 -41.5 -98t-99.5 -41q-57 0 -98 41t-41 98zM735 1585q0 58 41.5 99.5t100.5 41.5q57 0 98 -41.5t41 -99.5 q0 -57 -41.5 -98t-97.5 -41q-58 0 -100 41t-42 98z" />
<glyph unicode="&#x2c6;" horiz-adv-x="905" d="M182 1551q-8 15 21 61l80 119q32 49 67.5 66.5t102.5 17.5t102.5 -17.5t67.5 -66.5l79 -119q29 -46 21.5 -61t-61.5 -15h-23q-54 0 -81.5 15t-55.5 61l-13 18q-18 27 -36 27t-37 -27l-13 -18q-28 -46 -55.5 -61t-81.5 -15h-22q-54 0 -62 15z" />
<glyph unicode="&#x2dc;" horiz-adv-x="1048" d="M156 1597q24 226 231 226q48 0 94.5 -17t75.5 -37.5t60.5 -37.5t52.5 -17q43 0 57 43q13 38 25.5 49t52.5 11h18q42 0 57.5 -16.5t10.5 -51.5q-28 -213 -229 -213q-48 0 -94.5 17t-75.5 37.5t-60.5 37.5t-52.5 17q-46 0 -57 -43q-11 -39 -23.5 -49.5t-54.5 -10.5h-19 q-47 0 -60 8t-9 47z" />
<glyph unicode="&#x2000;" horiz-adv-x="911" />
<glyph unicode="&#x2001;" horiz-adv-x="1823" />
<glyph unicode="&#x2002;" horiz-adv-x="911" />
<glyph unicode="&#x2003;" horiz-adv-x="1823" />
<glyph unicode="&#x2004;" horiz-adv-x="607" />
<glyph unicode="&#x2005;" horiz-adv-x="455" />
<glyph unicode="&#x2006;" horiz-adv-x="303" />
<glyph unicode="&#x2007;" horiz-adv-x="303" />
<glyph unicode="&#x2008;" horiz-adv-x="227" />
<glyph unicode="&#x2009;" horiz-adv-x="364" />
<glyph unicode="&#x200a;" horiz-adv-x="101" />
<glyph unicode="&#x2010;" horiz-adv-x="868" d="M55 651v29q0 58 20 78t79 20h561q59 0 78.5 -20t19.5 -78v-29q0 -59 -19.5 -78.5t-78.5 -19.5h-561q-59 0 -79 20t-20 78z" />
<glyph unicode="&#x2011;" horiz-adv-x="868" d="M55 651v29q0 58 20 78t79 20h561q59 0 78.5 -20t19.5 -78v-29q0 -59 -19.5 -78.5t-78.5 -19.5h-561q-59 0 -79 20t-20 78z" />
<glyph unicode="&#x2012;" horiz-adv-x="868" d="M55 651v29q0 58 20 78t79 20h561q59 0 78.5 -20t19.5 -78v-29q0 -59 -19.5 -78.5t-78.5 -19.5h-561q-59 0 -79 20t-20 78z" />
<glyph unicode="&#x2013;" horiz-adv-x="1011" d="M-6 651v29q0 58 20 78t78 20h828q58 0 78 -20t20 -78v-29q0 -59 -20 -78.5t-78 -19.5h-828q-58 0 -78 19.5t-20 78.5z" />
<glyph unicode="&#x2014;" horiz-adv-x="2035" d="M-6 651v29q0 58 20 78t78 20h1852q58 0 78 -20t20 -78v-29q0 -59 -20 -78.5t-78 -19.5h-1852q-58 0 -78 19.5t-20 78.5z" />
<glyph unicode="&#x2018;" horiz-adv-x="477" d="M119 1106q0 73 58 200t114 216q10 18 21.5 22.5t29.5 -0.5l8 -2q20 -4 27 -12t10 -29q4 -24 4 -108q0 -420 -162 -420q-52 0 -81 36t-29 97z" />
<glyph unicode="&#x2019;" horiz-adv-x="477" d="M86 1133q0 419 162 419q52 0 81 -36t29 -97q0 -73 -58 -199.5t-114 -215.5q-10 -18 -21 -23t-30 0l-8 2q-20 4 -27 12t-10 29q-4 24 -4 109z" />
<glyph unicode="&#x201a;" horiz-adv-x="477" d="M86 -141q0 420 162 420q52 0 81 -36.5t29 -97.5q0 -73 -58 -199.5t-114 -215.5q-10 -18 -21 -23t-30 0l-8 2q-20 4 -27 12t-10 29q-4 24 -4 109z" />
<glyph unicode="&#x201c;" horiz-adv-x="886" d="M119 1106q0 73 58 200t114 216q10 18 21.5 22.5t29.5 -0.5l8 -2q20 -4 27 -12t10 -29q4 -24 4 -108q0 -420 -162 -420q-52 0 -81 36t-29 97zM528 1106q0 73 58 200t114 216q10 18 22 22.5t30 -0.5l8 -2q20 -4 27 -12t10 -29q4 -24 4 -108q0 -420 -162 -420 q-52 0 -81.5 36t-29.5 97z" />
<glyph unicode="&#x201d;" horiz-adv-x="886" d="M86 1133q0 419 162 419q52 0 81 -36t29 -97q0 -73 -58 -199.5t-114 -215.5q-10 -18 -21 -23t-30 0l-8 2q-20 4 -27 12t-10 29q-4 24 -4 109zM496 1133q0 419 161 419q52 0 81.5 -36t29.5 -97q0 -73 -58 -199.5t-114 -215.5q-10 -18 -21 -23t-30 0l-8 2q-20 4 -27 12 t-10 29q-4 24 -4 109z" />
<glyph unicode="&#x201e;" horiz-adv-x="886" d="M86 -141q0 420 162 420q52 0 81 -36.5t29 -97.5q0 -73 -58 -199.5t-114 -215.5q-10 -18 -21 -23t-30 0l-8 2q-20 4 -27 12t-10 29q-4 24 -4 109zM496 -141q0 420 161 420q52 0 81.5 -36.5t29.5 -97.5q0 -73 -58 -199.5t-114 -215.5q-10 -18 -21 -23t-30 0l-8 2 q-20 4 -27 12t-10 29q-4 24 -4 109z" />
<glyph unicode="&#x2022;" horiz-adv-x="692" d="M80 645q0 105 74 185.5t192 80.5t192 -80.5t74 -185.5t-74 -185.5t-192 -80.5t-192 80.5t-74 185.5z" />
<glyph unicode="&#x2026;" horiz-adv-x="1593" d="M86 133q0 66 47 113t113 47t113 -47t47 -113t-47 -113t-113 -47t-113 47t-47 113zM637 133q0 66 47 113t113 47t112.5 -47t46.5 -113t-46.5 -113t-112.5 -47t-113 47t-47 113zM1188 133q0 66 47 113t113 47t112.5 -47t46.5 -113t-46.5 -113t-112.5 -47t-113 47t-47 113z " />
<glyph unicode="&#x202f;" horiz-adv-x="364" />
<glyph unicode="&#x2039;" horiz-adv-x="698" d="M55 512q0 37 12 64t44 65l182 219q40 49 74.5 65.5t99.5 16.5h33q64 0 71.5 -16t-32.5 -66l-246 -299q-23 -26 -23 -49t23 -49l246 -299q40 -50 32.5 -66t-71.5 -16h-33q-65 0 -99.5 16.5t-74.5 65.5l-182 219q-32 38 -44 65t-12 64z" />
<glyph unicode="&#x203a;" horiz-adv-x="698" d="M127.5 98q-7.5 16 32.5 66l246 299q22 25 22 49t-22 49l-246 299q-40 50 -32.5 66t71.5 16h32q65 0 100 -16.5t75 -65.5l182 -219q31 -38 43 -65t12 -64t-12 -64t-43 -65l-182 -219q-40 -49 -75 -65.5t-100 -16.5h-32q-64 0 -71.5 16z" />
<glyph unicode="&#x205f;" horiz-adv-x="455" />
<glyph unicode="&#x20ac;" horiz-adv-x="1206" d="M35 508v24q0 47 16.5 63.5t63.5 16.5h94v103h-94q-47 0 -63.5 16.5t-16.5 63.5v24q0 47 16.5 63.5t63.5 16.5h98q22 216 162 334.5t399 118.5q139 0 234 -31q65 -21 81 -52t1 -100l-3 -10q-13 -66 -37.5 -81t-93.5 -1q-5 1 -22 4t-29.5 5t-33 4.5t-45 4t-52.5 1.5 q-127 0 -192.5 -48.5t-83.5 -148.5h454q47 0 60 -16t4 -62l-6 -28q-9 -46 -29.5 -62t-67.5 -16h-421v-103h399q47 0 59.5 -15.5t3.5 -61.5l-6 -29q-9 -46 -29 -62t-67 -16h-356q8 -61 34.5 -102t90.5 -68t163 -27q130 0 207 23q66 17 89.5 -3.5t23.5 -90.5v-25 q0 -68 -22 -93.5t-91 -43.5q-90 -23 -219 -23q-265 0 -405.5 108t-155.5 345h-96q-47 0 -63.5 16.5t-16.5 63.5z" />
<glyph unicode="&#x2122;" horiz-adv-x="1912" d="M68 1223v28q0 47 16 63.5t63 16.5h529q47 0 63.5 -16.5t16.5 -63.5v-28q0 -47 -16.5 -63.5t-63.5 -16.5h-160v-539q0 -54 -18 -72t-72 -18h-29q-54 0 -72 18t-18 72v539h-160q-47 0 -63 16.5t-16 63.5zM883 604v594q0 69 31.5 101t101.5 32h90q69 0 108 -31t52 -100 l86 -426l84 426q13 69 51.5 100t107.5 31h80q69 0 101 -32t32 -101v-594q0 -54 -18 -72t-72 -18h-28q-54 0 -72.5 18t-18.5 72v561l-135 -561q-12 -50 -38 -70t-78 -20q-49 0 -77 21t-40 69l-139 561v-561q0 -54 -18.5 -72t-72.5 -18h-28q-54 0 -72 18t-18 72z" />
<glyph unicode="&#x25fc;" horiz-adv-x="1024" d="M0 0v1024h1024v-1024h-1024z" />
<glyph unicode="&#xfb01;" horiz-adv-x="1343" d="M29 874v9q0 60 20 85t80 38l84 18v84q0 112 29 190t84 121t123.5 61.5t158.5 18.5q51 0 105 -6q68 -9 91 -38t23 -99v-21q0 -67 -21.5 -83.5t-92.5 -8.5q-36 4 -84 4q-150 0 -150 -117v-106h213q69 0 92 -23t23 -92v-22q0 -69 -23 -92t-92 -23h-213v-657q0 -69 -22.5 -92 t-91.5 -23h-37q-69 0 -92 23t-23 92v657h-82q-61 0 -81.5 20t-20.5 82zM930 1331q0 66 47 113t113 47t112.5 -47.5t46.5 -112.5t-46.5 -112.5t-112.5 -47.5t-113 47t-47 113zM956 115v794q0 69 23 92t92 23h37q69 0 92 -23t23 -92v-794q0 -69 -23 -92t-92 -23h-37 q-69 0 -92 23t-23 92z" />
<glyph unicode="&#xfb02;" horiz-adv-x="1394" d="M29 874v9q0 60 20 85t80 38l84 18v84q0 112 29 190t84 121t123.5 61.5t158.5 18.5q51 0 105 -6q68 -9 91 -38t23 -99v-21q0 -67 -21.5 -83.5t-92.5 -8.5q-36 4 -84 4q-150 0 -150 -117v-106h213q69 0 92 -23t23 -92v-22q0 -69 -23 -92t-92 -23h-213v-657q0 -69 -22.5 -92 t-91.5 -23h-37q-69 0 -92 23t-23 92v657h-82q-61 0 -81.5 20t-20.5 82zM936 309v1010q0 69 23 92t92 23h36q69 0 92 -23t23 -92v-950q0 -77 21.5 -107.5t68.5 -30.5h11q41 0 55 -17t14 -77v-39q0 -61 -14.5 -83.5t-54.5 -30.5q-20 -4 -62 -4q-139 0 -222 81t-83 248z" />
</font>
</defs>
</svg>
